<svg width="462" height="102" viewBox="0 0 462 102" fill="none" xmlns="http://www.w3.org/2000/svg">
<path d="M43.1348 3.89648L231.798 9.99902L231.879 10.001L231.96 9.99902L418.907 3.90625C437.627 3.29614 450.921 21.9581 444.228 39.4512C441.504 46.5684 441.498 54.4746 444.172 61.6016C450.895 79.5199 437.288 98.6398 418.211 97.9766L231.965 91.502L231.879 91.498L231.792 91.502L43.8555 97.9854C24.4091 98.6563 10.3212 79.4866 16.6172 61.0283C18.9362 54.2296 18.9288 46.808 16.5664 40.0166C10.2958 21.9898 24.0585 3.27947 43.1348 3.89648Z" fill="#F5F5F5" stroke="#EE5656" stroke-width="5"/>
<path d="M144.749 57.5L143.096 52.0332H135.502L133.885 57.5H130.071L137.225 34.5605H141.409L148.563 57.5H144.749ZM136.469 48.8164H142.129L139.317 39.3594L136.469 48.8164ZM166.528 55.1621C165.473 56.2168 164.36 56.9375 163.188 57.3242C162.028 57.7109 160.768 57.9043 159.409 57.9043C158.038 57.9043 156.79 57.6992 155.665 57.2891C154.551 56.8789 153.602 56.3047 152.817 55.5664C152.043 54.8164 151.446 53.9141 151.024 52.8594C150.614 51.8047 150.409 50.627 150.409 49.3262C150.409 48.084 150.614 46.9355 151.024 45.8809C151.446 44.8145 152.008 43.9062 152.711 43.1562C153.426 42.3945 154.264 41.8027 155.225 41.3809C156.186 40.9473 157.206 40.7305 158.284 40.7305C159.409 40.7305 160.387 40.9648 161.219 41.4336C162.051 41.9023 162.655 42.5879 163.03 43.4902V41.1172H166.282V48.7461H163.03C163.03 47.3047 162.631 46.1562 161.834 45.3008C161.049 44.4336 160.024 44 158.758 44C158.254 44 157.721 44.1055 157.159 44.3164C156.608 44.5156 156.098 44.832 155.629 45.2656C155.172 45.6992 154.792 46.25 154.487 46.918C154.182 47.5859 154.03 48.3887 154.03 49.3262C154.03 50.2402 154.176 51.0312 154.469 51.6992C154.762 52.3555 155.143 52.9004 155.612 53.334C156.092 53.7559 156.655 54.0781 157.299 54.3008C157.956 54.5117 158.629 54.6172 159.321 54.6172C160.504 54.6172 161.53 54.4355 162.397 54.0723C163.276 53.6973 164.032 53.2051 164.665 52.5957L166.528 55.1621ZM186.18 55.1621C185.125 56.2168 184.012 56.9375 182.84 57.3242C181.68 57.7109 180.42 57.9043 179.061 57.9043C177.69 57.9043 176.442 57.6992 175.317 57.2891C174.204 56.8789 173.254 56.3047 172.469 55.5664C171.696 54.8164 171.098 53.9141 170.676 52.8594C170.266 51.8047 170.061 50.627 170.061 49.3262C170.061 48.084 170.266 46.9355 170.676 45.8809C171.098 44.8145 171.661 43.9062 172.364 43.1562C173.079 42.3945 173.917 41.8027 174.877 41.3809C175.838 40.9473 176.858 40.7305 177.936 40.7305C179.061 40.7305 180.04 40.9648 180.872 41.4336C181.704 41.9023 182.307 42.5879 182.682 43.4902V41.1172H185.934V48.7461H182.682C182.682 47.3047 182.284 46.1562 181.487 45.3008C180.702 44.4336 179.676 44 178.411 44C177.907 44 177.374 44.1055 176.811 44.3164C176.26 44.5156 175.75 44.832 175.282 45.2656C174.825 45.6992 174.444 46.25 174.139 46.918C173.834 47.5859 173.682 48.3887 173.682 49.3262C173.682 50.2402 173.829 51.0312 174.122 51.6992C174.415 52.3555 174.795 52.9004 175.264 53.334C175.745 53.7559 176.307 54.0781 176.952 54.3008C177.608 54.5117 178.282 54.6172 178.973 54.6172C180.157 54.6172 181.182 54.4355 182.049 54.0723C182.928 53.6973 183.684 53.2051 184.317 52.5957L186.18 55.1621ZM193.405 50.6973C193.581 51.8223 194.114 52.7598 195.004 53.5098C195.907 54.248 197.114 54.6172 198.625 54.6172C199.809 54.6172 200.834 54.4355 201.702 54.0723C202.581 53.6973 203.336 53.2051 203.969 52.5957L205.833 55.1621C204.778 56.2168 203.659 56.9375 202.475 57.3242C201.303 57.7109 200.02 57.9043 198.625 57.9043C197.36 57.9043 196.182 57.6934 195.092 57.2715C194.002 56.8496 193.059 56.2637 192.262 55.5137C191.465 54.752 190.838 53.8496 190.381 52.8066C189.936 51.7637 189.713 50.6035 189.713 49.3262C189.713 48.084 189.918 46.9414 190.329 45.8984C190.75 44.8438 191.336 43.9355 192.086 43.1738C192.848 42.4004 193.756 41.8027 194.811 41.3809C195.866 40.9473 197.032 40.7305 198.309 40.7305C199.633 40.7305 200.834 40.959 201.913 41.416C202.991 41.8613 203.911 42.5117 204.672 43.3672C205.446 44.2227 206.049 45.2715 206.483 46.5137C206.917 47.7441 207.133 49.1387 207.133 50.6973H193.405ZM203.02 47.498C202.833 46.4434 202.288 45.5996 201.385 44.9668C200.483 44.3223 199.458 44 198.309 44C197.161 44 196.129 44.3223 195.215 44.9668C194.301 45.5996 193.75 46.4434 193.563 47.498H203.02ZM225.661 52.5957C225.661 53.6621 225.42 54.5293 224.94 55.1973C224.459 55.8652 223.838 56.4043 223.077 56.8145C222.327 57.2246 221.483 57.5059 220.545 57.6582C219.62 57.8223 218.711 57.9043 217.821 57.9043C216.333 57.9043 214.85 57.6875 213.374 57.2539C211.897 56.8203 210.62 56.252 209.542 55.5488L211.053 52.5605C212.342 53.3105 213.52 53.8438 214.586 54.1602C215.665 54.4648 216.743 54.6172 217.821 54.6172C219.286 54.6172 220.352 54.4648 221.02 54.1602C221.688 53.8438 222.022 53.4102 222.022 52.8594C222.022 52.5898 221.928 52.3672 221.741 52.1914C221.553 52.0156 221.243 51.8574 220.809 51.7168C220.375 51.5645 219.801 51.418 219.086 51.2773C218.383 51.125 217.504 50.9668 216.45 50.8027C215.606 50.6621 214.803 50.4922 214.042 50.293C213.292 50.082 212.629 49.7891 212.055 49.4141C211.481 49.0391 211.018 48.5645 210.667 47.9902C210.327 47.416 210.157 46.6953 210.157 45.8281C210.157 44.9492 210.379 44.1875 210.825 43.543C211.282 42.8867 211.874 42.3477 212.6 41.9258C213.338 41.5039 214.165 41.1992 215.079 41.0117C215.993 40.8242 216.907 40.7305 217.821 40.7305C219.11 40.7305 220.358 40.9004 221.565 41.2402C222.784 41.5684 223.85 42.043 224.764 42.6641L223.323 45.4766C222.409 44.9023 221.518 44.5156 220.651 44.3164C219.795 44.1055 218.852 44 217.821 44C217.387 44 216.936 44.0234 216.467 44.0703C215.999 44.1172 215.565 44.2109 215.167 44.3516C214.768 44.4805 214.434 44.6621 214.165 44.8965C213.907 45.1191 213.778 45.3945 213.778 45.7227C213.778 46.1562 214.159 46.5137 214.92 46.7949C215.694 47.0645 217.006 47.334 218.858 47.6035C219.866 47.7441 220.786 47.9258 221.618 48.1484C222.45 48.3594 223.165 48.6523 223.762 49.0273C224.36 49.3906 224.823 49.8652 225.151 50.4512C225.491 51.0254 225.661 51.7402 225.661 52.5957ZM245.313 52.5957C245.313 53.6621 245.073 54.5293 244.592 55.1973C244.112 55.8652 243.491 56.4043 242.729 56.8145C241.979 57.2246 241.135 57.5059 240.198 57.6582C239.272 57.8223 238.364 57.9043 237.473 57.9043C235.985 57.9043 234.502 57.6875 233.026 57.2539C231.549 56.8203 230.272 56.252 229.194 55.5488L230.706 52.5605C231.995 53.3105 233.172 53.8438 234.239 54.1602C235.317 54.4648 236.395 54.6172 237.473 54.6172C238.938 54.6172 240.004 54.4648 240.672 54.1602C241.34 53.8438 241.674 53.4102 241.674 52.8594C241.674 52.5898 241.581 52.3672 241.393 52.1914C241.206 52.0156 240.895 51.8574 240.461 51.7168C240.028 51.5645 239.454 51.418 238.739 51.2773C238.036 51.125 237.157 50.9668 236.102 50.8027C235.258 50.6621 234.456 50.4922 233.694 50.293C232.944 50.082 232.282 49.7891 231.708 49.4141C231.133 49.0391 230.67 48.5645 230.319 47.9902C229.979 47.416 229.809 46.6953 229.809 45.8281C229.809 44.9492 230.032 44.1875 230.477 43.543C230.934 42.8867 231.526 42.3477 232.252 41.9258C232.991 41.5039 233.817 41.1992 234.731 41.0117C235.645 40.8242 236.559 40.7305 237.473 40.7305C238.762 40.7305 240.01 40.9004 241.217 41.2402C242.436 41.5684 243.502 42.043 244.417 42.6641L242.975 45.4766C242.061 44.9023 241.17 44.5156 240.303 44.3164C239.448 44.1055 238.504 44 237.473 44C237.04 44 236.588 44.0234 236.12 44.0703C235.651 44.1172 235.217 44.2109 234.819 44.3516C234.42 44.4805 234.086 44.6621 233.817 44.8965C233.559 45.1191 233.43 45.3945 233.43 45.7227C233.43 46.1562 233.811 46.5137 234.573 46.7949C235.346 47.0645 236.659 47.334 238.51 47.6035C239.518 47.7441 240.438 47.9258 241.27 48.1484C242.102 48.3594 242.817 48.6523 243.415 49.0273C244.012 49.3906 244.475 49.8652 244.803 50.4512C245.143 51.0254 245.313 51.7402 245.313 52.5957ZM265.827 49.3262C265.827 50.6035 265.622 51.7637 265.211 52.8066C264.813 53.8496 264.233 54.752 263.471 55.5137C262.721 56.2637 261.819 56.8496 260.764 57.2715C259.709 57.6934 258.532 57.9043 257.231 57.9043C255.954 57.9043 254.788 57.6934 253.733 57.2715C252.678 56.8496 251.77 56.2637 251.008 55.5137C250.258 54.752 249.678 53.8496 249.268 52.8066C248.87 51.7637 248.67 50.6035 248.67 49.3262C248.67 48.084 248.87 46.9355 249.268 45.8809C249.678 44.8145 250.258 43.9004 251.008 43.1387C251.77 42.3652 252.678 41.7734 253.733 41.3633C254.788 40.9414 255.954 40.7305 257.231 40.7305C258.532 40.7305 259.709 40.9414 260.764 41.3633C261.819 41.7734 262.721 42.3652 263.471 43.1387C264.233 43.9004 264.813 44.8145 265.211 45.8809C265.622 46.9355 265.827 48.084 265.827 49.3262ZM262.206 49.3262C262.206 48.5879 262.088 47.8906 261.854 47.2344C261.631 46.5664 261.303 45.998 260.87 45.5293C260.436 45.0605 259.909 44.6914 259.288 44.4219C258.678 44.1406 257.993 44 257.231 44C256.458 44 255.766 44.1406 255.157 44.4219C254.547 44.6914 254.032 45.0605 253.61 45.5293C253.188 45.998 252.86 46.5664 252.625 47.2344C252.403 47.8906 252.292 48.5879 252.292 49.3262C252.292 50.0996 252.403 50.8027 252.625 51.4355C252.86 52.0684 253.188 52.625 253.61 53.1055C254.032 53.5859 254.547 53.9609 255.157 54.2305C255.766 54.4883 256.458 54.6172 257.231 54.6172C257.993 54.6172 258.678 54.4883 259.288 54.2305C259.909 53.9609 260.436 53.5859 260.87 53.1055C261.303 52.625 261.631 52.0684 261.854 51.4355C262.088 50.8027 262.206 50.0996 262.206 49.3262ZM284.653 45.002C284.219 44.791 283.774 44.6328 283.317 44.5273C282.872 44.4102 282.356 44.3516 281.77 44.3516C280.961 44.3516 280.2 44.4746 279.485 44.7207C278.782 44.9551 278.172 45.3125 277.657 45.793C277.141 46.2734 276.737 46.877 276.444 47.6035C276.163 48.3184 276.022 49.168 276.022 50.1523V54.2305H279.696V57.5H268.674V54.2305H272.383V44.4043H268.674V41.1172H276.022V45.2305C276.62 43.5898 277.499 42.4297 278.659 41.75C279.831 41.0703 281.219 40.7305 282.825 40.7305C283.329 40.7305 283.856 40.7832 284.407 40.8887C284.958 40.9941 285.497 41.1816 286.024 41.4512L284.653 45.002ZM298.733 38.9902H294.303V34.5605H298.733V38.9902ZM302.073 57.5H291.069V54.2305H294.69V44.4043H291.069V41.1172H298.329V54.2305H302.073V57.5ZM311.319 50.6973C311.495 51.8223 312.028 52.7598 312.918 53.5098C313.821 54.248 315.028 54.6172 316.54 54.6172C317.723 54.6172 318.749 54.4355 319.616 54.0723C320.495 53.6973 321.25 53.2051 321.883 52.5957L323.747 55.1621C322.692 56.2168 321.573 56.9375 320.389 57.3242C319.217 57.7109 317.934 57.9043 316.54 57.9043C315.274 57.9043 314.096 57.6934 313.006 57.2715C311.917 56.8496 310.973 56.2637 310.176 55.5137C309.379 54.752 308.752 53.8496 308.295 52.8066C307.85 51.7637 307.627 50.6035 307.627 49.3262C307.627 48.084 307.833 46.9414 308.243 45.8984C308.665 44.8438 309.25 43.9355 310 43.1738C310.762 42.4004 311.67 41.8027 312.725 41.3809C313.78 40.9473 314.946 40.7305 316.223 40.7305C317.547 40.7305 318.749 40.959 319.827 41.416C320.905 41.8613 321.825 42.5117 322.586 43.3672C323.36 44.2227 323.963 45.2715 324.397 46.5137C324.831 47.7441 325.047 49.1387 325.047 50.6973H311.319ZM320.934 47.498C320.747 46.4434 320.202 45.5996 319.299 44.9668C318.397 44.3223 317.372 44 316.223 44C315.075 44 314.043 44.3223 313.129 44.9668C312.215 45.5996 311.665 46.4434 311.477 47.498H320.934ZM343.575 52.5957C343.575 53.6621 343.334 54.5293 342.854 55.1973C342.374 55.8652 341.752 56.4043 340.991 56.8145C340.241 57.2246 339.397 57.5059 338.459 57.6582C337.534 57.8223 336.625 57.9043 335.735 57.9043C334.247 57.9043 332.764 57.6875 331.288 57.2539C329.811 56.8203 328.534 56.252 327.456 55.5488L328.967 52.5605C330.256 53.3105 331.434 53.8438 332.5 54.1602C333.579 54.4648 334.657 54.6172 335.735 54.6172C337.2 54.6172 338.266 54.4648 338.934 54.1602C339.602 53.8438 339.936 53.4102 339.936 52.8594C339.936 52.5898 339.842 52.3672 339.655 52.1914C339.467 52.0156 339.157 51.8574 338.723 51.7168C338.29 51.5645 337.715 51.418 337 51.2773C336.297 51.125 335.418 50.9668 334.364 50.8027C333.52 50.6621 332.717 50.4922 331.956 50.293C331.206 50.082 330.543 49.7891 329.969 49.4141C329.395 49.0391 328.932 48.5645 328.581 47.9902C328.241 47.416 328.071 46.6953 328.071 45.8281C328.071 44.9492 328.293 44.1875 328.739 43.543C329.196 42.8867 329.788 42.3477 330.514 41.9258C331.252 41.5039 332.079 41.1992 332.993 41.0117C333.907 40.8242 334.821 40.7305 335.735 40.7305C337.024 40.7305 338.272 40.9004 339.479 41.2402C340.698 41.5684 341.764 42.043 342.678 42.6641L341.237 45.4766C340.323 44.9023 339.432 44.5156 338.565 44.3164C337.709 44.1055 336.766 44 335.735 44C335.301 44 334.85 44.0234 334.381 44.0703C333.913 44.1172 333.479 44.2109 333.081 44.3516C332.682 44.4805 332.348 44.6621 332.079 44.8965C331.821 45.1191 331.692 45.3945 331.692 45.7227C331.692 46.1562 332.073 46.5137 332.834 46.7949C333.608 47.0645 334.92 47.334 336.772 47.6035C337.78 47.7441 338.7 47.9258 339.532 48.1484C340.364 48.3594 341.079 48.6523 341.676 49.0273C342.274 49.3906 342.737 49.8652 343.065 50.4512C343.405 51.0254 343.575 51.7402 343.575 52.5957Z" fill="#EE5656"/>
</svg>
