<svg width="256" height="102" viewBox="0 0 256 102" fill="none" xmlns="http://www.w3.org/2000/svg">
<path d="M2.79544 28.7931C1.32185 13.6151 13.6629 0.665235 28.8942 1.40684L133.5 6.5L225.034 1.62318C240.793 0.783592 253.377 14.5745 251.103 30.1905L248.53 47.8616C248.179 50.2742 248.182 52.7253 248.54 55.1369L250.968 71.4867C253.303 87.2056 240.571 101.085 224.71 100.112L125 94L29.3753 100.12C13.9841 101.105 1.38065 88.0555 2.90022 72.7078L4.75849 53.9393C4.91911 52.317 4.92067 50.6829 4.76313 49.0603L2.79544 28.7931Z" fill="#FFA352"/>
<path d="M37.0527 62L35.4004 56.5332H27.8066L26.1895 62H22.375L29.5293 39.0605H33.7129L40.8672 62H37.0527ZM28.7734 53.3164H34.4336L31.6211 43.8594L28.7734 53.3164ZM58.832 59.6621C57.7773 60.7168 56.6641 61.4375 55.4922 61.8242C54.332 62.2109 53.0723 62.4043 51.7129 62.4043C50.3418 62.4043 49.0938 62.1992 47.9688 61.7891C46.8555 61.3789 45.9062 60.8047 45.1211 60.0664C44.3477 59.3164 43.75 58.4141 43.3281 57.3594C42.918 56.3047 42.7129 55.127 42.7129 53.8262C42.7129 52.584 42.918 51.4355 43.3281 50.3809C43.75 49.3145 44.3125 48.4062 45.0156 47.6562C45.7305 46.8945 46.5684 46.3027 47.5293 45.8809C48.4902 45.4473 49.5098 45.2305 50.5879 45.2305C51.7129 45.2305 52.6914 45.4648 53.5234 45.9336C54.3555 46.4023 54.959 47.0879 55.334 47.9902V45.6172H58.5859V53.2461H55.334C55.334 51.8047 54.9355 50.6562 54.1387 49.8008C53.3535 48.9336 52.3281 48.5 51.0625 48.5C50.5586 48.5 50.0254 48.6055 49.4629 48.8164C48.9121 49.0156 48.4023 49.332 47.9336 49.7656C47.4766 50.1992 47.0957 50.75 46.791 51.418C46.4863 52.0859 46.334 52.8887 46.334 53.8262C46.334 54.7402 46.4805 55.5312 46.7734 56.1992C47.0664 56.8555 47.4473 57.4004 47.916 57.834C48.3965 58.2559 48.959 58.5781 49.6035 58.8008C50.2598 59.0117 50.9336 59.1172 51.625 59.1172C52.8086 59.1172 53.834 58.9355 54.7012 58.5723C55.5801 58.1973 56.3359 57.7051 56.9688 57.0957L58.832 59.6621ZM78.4844 59.6621C77.4297 60.7168 76.3164 61.4375 75.1445 61.8242C73.9844 62.2109 72.7246 62.4043 71.3652 62.4043C69.9941 62.4043 68.7461 62.1992 67.6211 61.7891C66.5078 61.3789 65.5586 60.8047 64.7734 60.0664C64 59.3164 63.4023 58.4141 62.9805 57.3594C62.5703 56.3047 62.3652 55.127 62.3652 53.8262C62.3652 52.584 62.5703 51.4355 62.9805 50.3809C63.4023 49.3145 63.9648 48.4062 64.668 47.6562C65.3828 46.8945 66.2207 46.3027 67.1816 45.8809C68.1426 45.4473 69.1621 45.2305 70.2402 45.2305C71.3652 45.2305 72.3438 45.4648 73.1758 45.9336C74.0078 46.4023 74.6113 47.0879 74.9863 47.9902V45.6172H78.2383V53.2461H74.9863C74.9863 51.8047 74.5879 50.6562 73.791 49.8008C73.0059 48.9336 71.9805 48.5 70.7148 48.5C70.2109 48.5 69.6777 48.6055 69.1152 48.8164C68.5645 49.0156 68.0547 49.332 67.5859 49.7656C67.1289 50.1992 66.748 50.75 66.4434 51.418C66.1387 52.0859 65.9863 52.8887 65.9863 53.8262C65.9863 54.7402 66.1328 55.5312 66.4258 56.1992C66.7188 56.8555 67.0996 57.4004 67.5684 57.834C68.0488 58.2559 68.6113 58.5781 69.2559 58.8008C69.9121 59.0117 70.5859 59.1172 71.2773 59.1172C72.4609 59.1172 73.4863 58.9355 74.3535 58.5723C75.2324 58.1973 75.9883 57.7051 76.6211 57.0957L78.4844 59.6621ZM85.709 55.1973C85.8848 56.3223 86.418 57.2598 87.3086 58.0098C88.2109 58.748 89.418 59.1172 90.9297 59.1172C92.1133 59.1172 93.1387 58.9355 94.0059 58.5723C94.8848 58.1973 95.6406 57.7051 96.2734 57.0957L98.1367 59.6621C97.082 60.7168 95.9629 61.4375 94.7793 61.8242C93.6074 62.2109 92.3242 62.4043 90.9297 62.4043C89.6641 62.4043 88.4863 62.1934 87.3965 61.7715C86.3066 61.3496 85.3633 60.7637 84.5664 60.0137C83.7695 59.252 83.1426 58.3496 82.6855 57.3066C82.2402 56.2637 82.0176 55.1035 82.0176 53.8262C82.0176 52.584 82.2227 51.4414 82.6328 50.3984C83.0547 49.3438 83.6406 48.4355 84.3906 47.6738C85.1523 46.9004 86.0605 46.3027 87.1152 45.8809C88.1699 45.4473 89.3359 45.2305 90.6133 45.2305C91.9375 45.2305 93.1387 45.459 94.2168 45.916C95.2949 46.3613 96.2148 47.0117 96.9766 47.8672C97.75 48.7227 98.3535 49.7715 98.7871 51.0137C99.2207 52.2441 99.4375 53.6387 99.4375 55.1973H85.709ZM95.3242 51.998C95.1367 50.9434 94.5918 50.0996 93.6895 49.4668C92.7871 48.8223 91.7617 48.5 90.6133 48.5C89.4648 48.5 88.4336 48.8223 87.5195 49.4668C86.6055 50.0996 86.0547 50.9434 85.8672 51.998H95.3242ZM117.965 57.0957C117.965 58.1621 117.725 59.0293 117.244 59.6973C116.764 60.3652 116.143 60.9043 115.381 61.3145C114.631 61.7246 113.787 62.0059 112.85 62.1582C111.924 62.3223 111.016 62.4043 110.125 62.4043C108.637 62.4043 107.154 62.1875 105.678 61.7539C104.201 61.3203 102.924 60.752 101.846 60.0488L103.357 57.0605C104.646 57.8105 105.824 58.3438 106.891 58.6602C107.969 58.9648 109.047 59.1172 110.125 59.1172C111.59 59.1172 112.656 58.9648 113.324 58.6602C113.992 58.3438 114.326 57.9102 114.326 57.3594C114.326 57.0898 114.232 56.8672 114.045 56.6914C113.857 56.5156 113.547 56.3574 113.113 56.2168C112.68 56.0645 112.105 55.918 111.391 55.7773C110.688 55.625 109.809 55.4668 108.754 55.3027C107.91 55.1621 107.107 54.9922 106.346 54.793C105.596 54.582 104.934 54.2891 104.359 53.9141C103.785 53.5391 103.322 53.0645 102.971 52.4902C102.631 51.916 102.461 51.1953 102.461 50.3281C102.461 49.4492 102.684 48.6875 103.129 48.043C103.586 47.3867 104.178 46.8477 104.904 46.4258C105.643 46.0039 106.469 45.6992 107.383 45.5117C108.297 45.3242 109.211 45.2305 110.125 45.2305C111.414 45.2305 112.662 45.4004 113.869 45.7402C115.088 46.0684 116.154 46.543 117.068 47.1641L115.627 49.9766C114.713 49.4023 113.822 49.0156 112.955 48.8164C112.1 48.6055 111.156 48.5 110.125 48.5C109.691 48.5 109.24 48.5234 108.771 48.5703C108.303 48.6172 107.869 48.7109 107.471 48.8516C107.072 48.9805 106.738 49.1621 106.469 49.3965C106.211 49.6191 106.082 49.8945 106.082 50.2227C106.082 50.6562 106.463 51.0137 107.225 51.2949C107.998 51.5645 109.311 51.834 111.162 52.1035C112.17 52.2441 113.09 52.4258 113.922 52.6484C114.754 52.8594 115.469 53.1523 116.066 53.5273C116.664 53.8906 117.127 54.3652 117.455 54.9512C117.795 55.5254 117.965 56.2402 117.965 57.0957ZM137.617 57.0957C137.617 58.1621 137.377 59.0293 136.896 59.6973C136.416 60.3652 135.795 60.9043 135.033 61.3145C134.283 61.7246 133.439 62.0059 132.502 62.1582C131.576 62.3223 130.668 62.4043 129.777 62.4043C128.289 62.4043 126.807 62.1875 125.33 61.7539C123.854 61.3203 122.576 60.752 121.498 60.0488L123.01 57.0605C124.299 57.8105 125.477 58.3438 126.543 58.6602C127.621 58.9648 128.699 59.1172 129.777 59.1172C131.242 59.1172 132.309 58.9648 132.977 58.6602C133.645 58.3438 133.979 57.9102 133.979 57.3594C133.979 57.0898 133.885 56.8672 133.697 56.6914C133.51 56.5156 133.199 56.3574 132.766 56.2168C132.332 56.0645 131.758 55.918 131.043 55.7773C130.34 55.625 129.461 55.4668 128.406 55.3027C127.562 55.1621 126.76 54.9922 125.998 54.793C125.248 54.582 124.586 54.2891 124.012 53.9141C123.438 53.5391 122.975 53.0645 122.623 52.4902C122.283 51.916 122.113 51.1953 122.113 50.3281C122.113 49.4492 122.336 48.6875 122.781 48.043C123.238 47.3867 123.83 46.8477 124.557 46.4258C125.295 46.0039 126.121 45.6992 127.035 45.5117C127.949 45.3242 128.863 45.2305 129.777 45.2305C131.066 45.2305 132.314 45.4004 133.521 45.7402C134.74 46.0684 135.807 46.543 136.721 47.1641L135.279 49.9766C134.365 49.4023 133.475 49.0156 132.607 48.8164C131.752 48.6055 130.809 48.5 129.777 48.5C129.344 48.5 128.893 48.5234 128.424 48.5703C127.955 48.6172 127.521 48.7109 127.123 48.8516C126.725 48.9805 126.391 49.1621 126.121 49.3965C125.863 49.6191 125.734 49.8945 125.734 50.2227C125.734 50.6562 126.115 51.0137 126.877 51.2949C127.65 51.5645 128.963 51.834 130.814 52.1035C131.822 52.2441 132.742 52.4258 133.574 52.6484C134.406 52.8594 135.121 53.1523 135.719 53.5273C136.316 53.8906 136.779 54.3652 137.107 54.9512C137.447 55.5254 137.617 56.2402 137.617 57.0957ZM158.131 53.8262C158.131 55.1035 157.926 56.2637 157.516 57.3066C157.117 58.3496 156.537 59.252 155.775 60.0137C155.025 60.7637 154.123 61.3496 153.068 61.7715C152.014 62.1934 150.836 62.4043 149.535 62.4043C148.258 62.4043 147.092 62.1934 146.037 61.7715C144.982 61.3496 144.074 60.7637 143.312 60.0137C142.562 59.252 141.982 58.3496 141.572 57.3066C141.174 56.2637 140.975 55.1035 140.975 53.8262C140.975 52.584 141.174 51.4355 141.572 50.3809C141.982 49.3145 142.562 48.4004 143.312 47.6387C144.074 46.8652 144.982 46.2734 146.037 45.8633C147.092 45.4414 148.258 45.2305 149.535 45.2305C150.836 45.2305 152.014 45.4414 153.068 45.8633C154.123 46.2734 155.025 46.8652 155.775 47.6387C156.537 48.4004 157.117 49.3145 157.516 50.3809C157.926 51.4355 158.131 52.584 158.131 53.8262ZM154.51 53.8262C154.51 53.0879 154.393 52.3906 154.158 51.7344C153.936 51.0664 153.607 50.498 153.174 50.0293C152.74 49.5605 152.213 49.1914 151.592 48.9219C150.982 48.6406 150.297 48.5 149.535 48.5C148.762 48.5 148.07 48.6406 147.461 48.9219C146.852 49.1914 146.336 49.5605 145.914 50.0293C145.492 50.498 145.164 51.0664 144.93 51.7344C144.707 52.3906 144.596 53.0879 144.596 53.8262C144.596 54.5996 144.707 55.3027 144.93 55.9355C145.164 56.5684 145.492 57.125 145.914 57.6055C146.336 58.0859 146.852 58.4609 147.461 58.7305C148.07 58.9883 148.762 59.1172 149.535 59.1172C150.297 59.1172 150.982 58.9883 151.592 58.7305C152.213 58.4609 152.74 58.0859 153.174 57.6055C153.607 57.125 153.936 56.5684 154.158 55.9355C154.393 55.3027 154.51 54.5996 154.51 53.8262ZM176.957 49.502C176.523 49.291 176.078 49.1328 175.621 49.0273C175.176 48.9102 174.66 48.8516 174.074 48.8516C173.266 48.8516 172.504 48.9746 171.789 49.2207C171.086 49.4551 170.477 49.8125 169.961 50.293C169.445 50.7734 169.041 51.377 168.748 52.1035C168.467 52.8184 168.326 53.668 168.326 54.6523V58.7305H172V62H160.979V58.7305H164.688V48.9043H160.979V45.6172H168.326V49.7305C168.924 48.0898 169.803 46.9297 170.963 46.25C172.135 45.5703 173.523 45.2305 175.129 45.2305C175.633 45.2305 176.16 45.2832 176.711 45.3887C177.262 45.4941 177.801 45.6816 178.328 45.9512L176.957 49.502ZM191.037 43.4902H186.607V39.0605H191.037V43.4902ZM194.377 62H183.373V58.7305H186.994V48.9043H183.373V45.6172H190.633V58.7305H194.377V62ZM203.623 55.1973C203.799 56.3223 204.332 57.2598 205.223 58.0098C206.125 58.748 207.332 59.1172 208.844 59.1172C210.027 59.1172 211.053 58.9355 211.92 58.5723C212.799 58.1973 213.555 57.7051 214.188 57.0957L216.051 59.6621C214.996 60.7168 213.877 61.4375 212.693 61.8242C211.521 62.2109 210.238 62.4043 208.844 62.4043C207.578 62.4043 206.4 62.1934 205.311 61.7715C204.221 61.3496 203.277 60.7637 202.48 60.0137C201.684 59.252 201.057 58.3496 200.6 57.3066C200.154 56.2637 199.932 55.1035 199.932 53.8262C199.932 52.584 200.137 51.4414 200.547 50.3984C200.969 49.3438 201.555 48.4355 202.305 47.6738C203.066 46.9004 203.975 46.3027 205.029 45.8809C206.084 45.4473 207.25 45.2305 208.527 45.2305C209.852 45.2305 211.053 45.459 212.131 45.916C213.209 46.3613 214.129 47.0117 214.891 47.8672C215.664 48.7227 216.268 49.7715 216.701 51.0137C217.135 52.2441 217.352 53.6387 217.352 55.1973H203.623ZM213.238 51.998C213.051 50.9434 212.506 50.0996 211.604 49.4668C210.701 48.8223 209.676 48.5 208.527 48.5C207.379 48.5 206.348 48.8223 205.434 49.4668C204.52 50.0996 203.969 50.9434 203.781 51.998H213.238ZM235.879 57.0957C235.879 58.1621 235.639 59.0293 235.158 59.6973C234.678 60.3652 234.057 60.9043 233.295 61.3145C232.545 61.7246 231.701 62.0059 230.764 62.1582C229.838 62.3223 228.93 62.4043 228.039 62.4043C226.551 62.4043 225.068 62.1875 223.592 61.7539C222.115 61.3203 220.838 60.752 219.76 60.0488L221.271 57.0605C222.561 57.8105 223.738 58.3438 224.805 58.6602C225.883 58.9648 226.961 59.1172 228.039 59.1172C229.504 59.1172 230.57 58.9648 231.238 58.6602C231.906 58.3438 232.24 57.9102 232.24 57.3594C232.24 57.0898 232.146 56.8672 231.959 56.6914C231.771 56.5156 231.461 56.3574 231.027 56.2168C230.594 56.0645 230.02 55.918 229.305 55.7773C228.602 55.625 227.723 55.4668 226.668 55.3027C225.824 55.1621 225.021 54.9922 224.26 54.793C223.51 54.582 222.848 54.2891 222.273 53.9141C221.699 53.5391 221.236 53.0645 220.885 52.4902C220.545 51.916 220.375 51.1953 220.375 50.3281C220.375 49.4492 220.598 48.6875 221.043 48.043C221.5 47.3867 222.092 46.8477 222.818 46.4258C223.557 46.0039 224.383 45.6992 225.297 45.5117C226.211 45.3242 227.125 45.2305 228.039 45.2305C229.328 45.2305 230.576 45.4004 231.783 45.7402C233.002 46.0684 234.068 46.543 234.982 47.1641L233.541 49.9766C232.627 49.4023 231.736 49.0156 230.869 48.8164C230.014 48.6055 229.07 48.5 228.039 48.5C227.605 48.5 227.154 48.5234 226.686 48.5703C226.217 48.6172 225.783 48.7109 225.385 48.8516C224.986 48.9805 224.652 49.1621 224.383 49.3965C224.125 49.6191 223.996 49.8945 223.996 50.2227C223.996 50.6562 224.377 51.0137 225.139 51.2949C225.912 51.5645 227.225 51.834 229.076 52.1035C230.084 52.2441 231.004 52.4258 231.836 52.6484C232.668 52.8594 233.383 53.1523 233.98 53.5273C234.578 53.8906 235.041 54.3652 235.369 54.9512C235.709 55.5254 235.879 56.2402 235.879 57.0957Z" fill="#F5F5F5"/>
</svg>
