<svg width="60" height="52" viewBox="0 0 60 52" fill="none" xmlns="http://www.w3.org/2000/svg">
<path d="M0 5.20294C0 2.36353 2.36166 0.0939842 5.19882 0.206892L37.3333 1.48571L54.673 0.349166C57.5569 0.160136 60 2.44835 60 5.33846V6.01561C60 8.82623 57.6841 11.0847 54.8744 11.014L15.6667 10.0286L5.35473 10.762C2.46093 10.9678 0 8.67572 0 5.7746V5.20294Z" fill="#EE5656"/>
<path d="M0 24.3746C0 21.7377 2.04778 19.5541 4.67923 19.3849L17.3333 18.5714L45.1705 19.521C47.864 19.6129 50 21.823 50 24.5181V25.1193C50 28.1427 47.3375 30.4743 44.3406 30.0756L28.2624 27.9364C27.8667 27.8838 27.466 27.8787 27.0691 27.9213L5.53393 30.2342C2.5782 30.5517 0 28.2355 0 25.2628V24.3746Z" fill="#EE5656"/>
<path d="M0 45.1816C0 42.5557 2.03124 40.3772 4.65069 40.1938L26.4634 38.6662C26.8201 38.6412 27.1785 38.6545 27.5324 38.706L35.7197 39.8969C38.1773 40.2544 40 42.3614 40 44.8448V45.7896C40 48.9811 37.0506 51.3556 33.9327 50.6744L23.9273 48.4883C23.3146 48.3545 22.6821 48.3371 22.0629 48.437L5.79713 51.0638C2.75701 51.5548 0 49.2073 0 46.1278V45.1816Z" fill="#EE5656"/>
</svg>
