<svg width="488" height="162" viewBox="0 0 488 162" fill="none" xmlns="http://www.w3.org/2000/svg">
<path d="M30.3758 51.8676C23.8146 37.8988 35.289 22.1986 50.5906 24.2082L132.966 35.0267C143.408 36.398 154.026 35.2106 163.907 31.5667L213.409 13.3113C236.522 4.78736 262.074 5.78239 284.454 16.078L336.256 39.9078C350.69 46.5478 366.93 48.17 382.392 44.5161L425.79 34.2611C455.175 27.317 482.052 52.7604 476.727 82.4823C475.862 87.3081 475.85 92.2482 476.692 97.0781L476.823 97.8339C482.29 129.216 455.162 156.613 423.727 151.457L414.617 149.963L357.312 137.501C341.951 134.161 325.995 134.768 310.933 139.267L255.638 155.784C241.948 159.873 227.5 160.753 213.416 158.356L134.261 144.883C128.632 143.925 123.104 142.451 117.746 140.479L72.8176 123.944C63.5979 120.551 53.2448 122.901 46.3937 129.942C32.7897 143.924 9.12002 137.522 4.41684 118.591L3.61611 115.367C1.37012 106.326 3.9937 96.7683 10.5405 90.1409L26.5938 73.8898C32.3455 68.0673 33.8554 59.2755 30.3758 51.8676Z" fill="#EE5656"/>
<mask id="path-2-outside-1_1_675" maskUnits="userSpaceOnUse" x="93.5918" y="63.1951" width="284" height="41" fill="black">
<rect fill="white" x="93.5918" y="63.1951" width="284" height="41"/>
<path d="M116.326 85.1814C116.045 86.3064 115.67 87.3259 115.201 88.24C114.732 89.1541 114.158 89.9333 113.479 90.5779C112.811 91.2224 112.025 91.7205 111.123 92.072C110.232 92.4236 109.207 92.5994 108.047 92.5994C106.441 92.5994 105.082 92.2712 103.969 91.615C102.855 90.947 101.941 90.0623 101.227 88.9607C100.523 87.8474 100.014 86.5818 99.6973 85.1638C99.3926 83.7341 99.2402 82.2517 99.2402 80.7166C99.2402 79.1814 99.3926 77.699 99.6973 76.2693C100.014 74.8396 100.518 73.5798 101.209 72.49C101.912 71.4001 102.803 70.5271 103.881 69.8708C104.959 69.2029 106.277 68.8689 107.836 68.8689C108.34 68.8689 108.85 68.9333 109.365 69.0623C109.881 69.1912 110.361 69.3904 110.807 69.6599C111.252 69.9177 111.639 70.24 111.967 70.6267C112.307 71.0134 112.547 71.4587 112.688 71.9626V69.2556H115.975V77.9392H112.688C112.688 77.2244 112.6 76.5212 112.424 75.8298C112.248 75.1267 111.967 74.5056 111.58 73.9666C111.193 73.4275 110.707 72.988 110.121 72.6482C109.535 72.3083 108.844 72.1384 108.047 72.1384C107.016 72.1384 106.172 72.3904 105.516 72.8943C104.859 73.3982 104.332 74.0603 103.934 74.8806C103.535 75.7009 103.254 76.6208 103.09 77.6404C102.938 78.6599 102.861 79.6853 102.861 80.7166C102.861 81.7478 102.938 82.7791 103.09 83.8103C103.254 84.8416 103.529 85.7673 103.916 86.5876C104.303 87.3962 104.83 88.0525 105.498 88.5564C106.166 89.0603 107.016 89.3123 108.047 89.3123C109.535 89.3123 110.678 88.8376 111.475 87.8884C112.283 86.9392 112.928 85.6619 113.408 84.0564L116.326 85.1814ZM135.223 79.697C134.789 79.4861 134.344 79.3279 133.887 79.2224C133.441 79.1052 132.926 79.0466 132.34 79.0466C131.531 79.0466 130.77 79.1697 130.055 79.4158C129.352 79.6501 128.742 80.0076 128.227 80.488C127.711 80.9685 127.307 81.572 127.014 82.2986C126.732 83.0134 126.592 83.863 126.592 84.8474V88.9255H130.266V92.1951H119.244V88.9255H122.953V79.0994H119.244V75.8123H126.592V79.9255C127.189 78.2849 128.068 77.1248 129.229 76.4451C130.4 75.7654 131.789 75.4255 133.395 75.4255C133.898 75.4255 134.426 75.4783 134.977 75.5837C135.527 75.6892 136.066 75.8767 136.594 76.1462L135.223 79.697ZM138.826 87.4841C138.826 86.5232 139.084 85.6853 139.6 84.9705C140.115 84.2439 140.789 83.6404 141.621 83.1599C142.465 82.6794 143.426 82.322 144.504 82.0876C145.594 81.8416 146.701 81.7185 147.826 81.7185C148.447 81.7185 148.98 81.7302 149.426 81.7537C149.871 81.7771 150.322 81.8123 150.779 81.8591V81.2087C150.779 80.3533 150.445 79.7146 149.777 79.2927C149.121 78.8708 148.254 78.6599 147.176 78.6599C146.191 78.6599 145.189 78.8005 144.17 79.0818C143.15 79.3513 142.184 79.7498 141.27 80.2771L139.793 77.4294C140.871 76.8083 142.025 76.322 143.256 75.9705C144.498 75.6072 145.805 75.4255 147.176 75.4255C148.066 75.4255 148.939 75.5251 149.795 75.7244C150.662 75.9236 151.436 76.2517 152.115 76.7087C152.807 77.1658 153.357 77.7634 153.768 78.5017C154.178 79.2283 154.383 80.1306 154.383 81.2087V92.1951H150.779V89.7869C150.205 90.6775 149.355 91.3689 148.23 91.8611C147.117 92.3533 145.916 92.5994 144.627 92.5994C143.83 92.5994 143.074 92.488 142.359 92.2654C141.656 92.0544 141.047 91.7322 140.531 91.2986C140.016 90.865 139.6 90.3318 139.283 89.699C138.979 89.0544 138.826 88.3162 138.826 87.4841ZM145.559 89.3474C146.273 89.3474 146.941 89.2595 147.562 89.0837C148.195 88.8962 148.752 88.6443 149.232 88.3279C149.713 87.9998 150.088 87.6072 150.357 87.1501C150.639 86.6931 150.779 86.1892 150.779 85.6384V85.0232C150.205 84.9294 149.666 84.8767 149.162 84.865C148.658 84.8533 148.213 84.8474 147.826 84.8474C146.045 84.8474 144.697 85.0818 143.783 85.5505C142.881 86.0193 142.43 86.5994 142.43 87.2908C142.43 88.6619 143.473 89.3474 145.559 89.3474ZM174.932 79.0994H168.551V88.9255H172.295V92.1951H161.291V88.9255H164.912V79.0994H161.291V75.8123H164.912C164.912 73.5623 165.604 71.8455 166.986 70.6619C168.369 69.4666 170.238 68.8689 172.594 68.8689C172.945 68.8689 173.32 68.8865 173.719 68.9216C174.117 68.9568 174.521 68.9978 174.932 69.0447V72.2439C174.229 72.1736 173.59 72.1384 173.016 72.1384C172.078 72.1384 171.322 72.2087 170.748 72.3494C170.174 72.4783 169.723 72.6951 169.395 72.9998C169.078 73.2927 168.855 73.6736 168.727 74.1423C168.609 74.6111 168.551 75.1677 168.551 75.8123H174.932V79.0994ZM194.76 86.9744C194.572 88.697 193.893 90.0681 192.721 91.0876C191.561 92.0955 190.107 92.5994 188.361 92.5994C187.4 92.5994 186.521 92.4412 185.725 92.1248C184.928 91.8083 184.248 91.3689 183.686 90.8064C183.123 90.2439 182.684 89.5701 182.367 88.7849C182.062 87.988 181.91 87.1208 181.91 86.1833V79.0994H178.201V75.8123H181.91V69.2556H185.549V75.8123H192.422V79.0994H185.549V86.1833C185.549 87.238 185.807 88.0232 186.322 88.5388C186.838 89.0544 187.518 89.3123 188.361 89.3123C189.393 89.3123 190.16 89.0134 190.664 88.4158C191.168 87.8181 191.467 87.0974 191.561 86.2537L194.76 86.9744ZM214.096 75.8123L207.029 95.3943C206.502 96.8123 205.734 97.7849 204.727 98.3123C203.719 98.8396 202.518 99.1033 201.123 99.1033C200.643 99.1033 200.127 99.0564 199.576 98.9626C199.025 98.8689 198.451 98.7107 197.854 98.488L198.609 95.1482C199.113 95.3357 199.576 95.4646 199.998 95.5349C200.42 95.6169 200.795 95.658 201.123 95.658C202.213 95.658 202.957 95.1775 203.355 94.2166L204.006 92.6345L197.748 75.8123H201.527L206.027 88.2048L210.193 75.8123H214.096ZM253.893 85.1814C253.611 86.3064 253.236 87.3259 252.768 88.24C252.299 89.1541 251.725 89.9333 251.045 90.5779C250.377 91.2224 249.592 91.7205 248.689 92.072C247.799 92.4236 246.773 92.5994 245.613 92.5994C244.008 92.5994 242.648 92.2712 241.535 91.615C240.422 90.947 239.508 90.0623 238.793 88.9607C238.09 87.8474 237.58 86.5818 237.264 85.1638C236.959 83.7341 236.807 82.2517 236.807 80.7166C236.807 79.1814 236.959 77.699 237.264 76.2693C237.58 74.8396 238.084 73.5798 238.775 72.49C239.479 71.4001 240.369 70.5271 241.447 69.8708C242.525 69.2029 243.844 68.8689 245.402 68.8689C245.906 68.8689 246.416 68.9333 246.932 69.0623C247.447 69.1912 247.928 69.3904 248.373 69.6599C248.818 69.9177 249.205 70.24 249.533 70.6267C249.873 71.0134 250.113 71.4587 250.254 71.9626V69.2556H253.541V77.9392H250.254C250.254 77.2244 250.166 76.5212 249.99 75.8298C249.814 75.1267 249.533 74.5056 249.146 73.9666C248.76 73.4275 248.273 72.988 247.688 72.6482C247.102 72.3083 246.41 72.1384 245.613 72.1384C244.582 72.1384 243.738 72.3904 243.082 72.8943C242.426 73.3982 241.898 74.0603 241.5 74.8806C241.102 75.7009 240.82 76.6208 240.656 77.6404C240.504 78.6599 240.428 79.6853 240.428 80.7166C240.428 81.7478 240.504 82.7791 240.656 83.8103C240.82 84.8416 241.096 85.7673 241.482 86.5876C241.869 87.3962 242.396 88.0525 243.064 88.5564C243.732 89.0603 244.582 89.3123 245.613 89.3123C247.102 89.3123 248.244 88.8376 249.041 87.8884C249.85 86.9392 250.494 85.6619 250.975 84.0564L253.893 85.1814ZM272.789 79.697C272.355 79.4861 271.91 79.3279 271.453 79.2224C271.008 79.1052 270.492 79.0466 269.906 79.0466C269.098 79.0466 268.336 79.1697 267.621 79.4158C266.918 79.6501 266.309 80.0076 265.793 80.488C265.277 80.9685 264.873 81.572 264.58 82.2986C264.299 83.0134 264.158 83.863 264.158 84.8474V88.9255H267.832V92.1951H256.811V88.9255H260.52V79.0994H256.811V75.8123H264.158V79.9255C264.756 78.2849 265.635 77.1248 266.795 76.4451C267.967 75.7654 269.355 75.4255 270.961 75.4255C271.465 75.4255 271.992 75.4783 272.543 75.5837C273.094 75.6892 273.633 75.8767 274.16 76.1462L272.789 79.697ZM293.268 84.0212C293.268 85.2986 293.062 86.4587 292.652 87.5017C292.254 88.5447 291.674 89.447 290.912 90.2087C290.162 90.9587 289.26 91.5447 288.205 91.9666C287.15 92.3884 285.973 92.5994 284.672 92.5994C283.395 92.5994 282.229 92.3884 281.174 91.9666C280.119 91.5447 279.211 90.9587 278.449 90.2087C277.699 89.447 277.119 88.5447 276.709 87.5017C276.311 86.4587 276.111 85.2986 276.111 84.0212C276.111 82.7791 276.311 81.6306 276.709 80.5759C277.119 79.5095 277.699 78.5955 278.449 77.8337C279.211 77.0603 280.119 76.4685 281.174 76.0583C282.229 75.6365 283.395 75.4255 284.672 75.4255C285.973 75.4255 287.15 75.6365 288.205 76.0583C289.26 76.4685 290.162 77.0603 290.912 77.8337C291.674 78.5955 292.254 79.5095 292.652 80.5759C293.062 81.6306 293.268 82.7791 293.268 84.0212ZM289.646 84.0212C289.646 83.283 289.529 82.5857 289.295 81.9294C289.072 81.2615 288.744 80.6931 288.311 80.2244C287.877 79.7556 287.35 79.3865 286.729 79.1169C286.119 78.8357 285.434 78.6951 284.672 78.6951C283.898 78.6951 283.207 78.8357 282.598 79.1169C281.988 79.3865 281.473 79.7556 281.051 80.2244C280.629 80.6931 280.301 81.2615 280.066 81.9294C279.844 82.5857 279.732 83.283 279.732 84.0212C279.732 84.7947 279.844 85.4978 280.066 86.1306C280.301 86.7634 280.629 87.3201 281.051 87.8005C281.473 88.281 281.988 88.656 282.598 88.9255C283.207 89.1833 283.898 89.3123 284.672 89.3123C285.434 89.3123 286.119 89.1833 286.729 88.9255C287.35 88.656 287.877 88.281 288.311 87.8005C288.744 87.3201 289.072 86.7634 289.295 86.1306C289.529 85.4978 289.646 84.7947 289.646 84.0212ZM311.883 89.8572C310.828 90.9119 309.715 91.6326 308.543 92.0193C307.383 92.406 306.123 92.5994 304.764 92.5994C303.393 92.5994 302.145 92.3943 301.02 91.9841C299.906 91.574 298.957 90.9998 298.172 90.2615C297.398 89.5115 296.801 88.6091 296.379 87.5544C295.969 86.4998 295.764 85.322 295.764 84.0212C295.764 82.7791 295.969 81.6306 296.379 80.5759C296.801 79.5095 297.363 78.6013 298.066 77.8513C298.781 77.0896 299.619 76.4978 300.58 76.0759C301.541 75.6423 302.561 75.4255 303.639 75.4255C304.764 75.4255 305.742 75.6599 306.574 76.1287C307.406 76.5974 308.01 77.283 308.385 78.1853V75.8123H311.637V83.4412H308.385C308.385 81.9998 307.986 80.8513 307.189 79.9958C306.404 79.1287 305.379 78.6951 304.113 78.6951C303.609 78.6951 303.076 78.8005 302.514 79.0115C301.963 79.2107 301.453 79.5271 300.984 79.9607C300.527 80.3943 300.146 80.9451 299.842 81.613C299.537 82.281 299.385 83.0837 299.385 84.0212C299.385 84.9353 299.531 85.7263 299.824 86.3943C300.117 87.0505 300.498 87.5955 300.967 88.0291C301.447 88.4509 302.01 88.7732 302.654 88.9958C303.311 89.2068 303.984 89.3123 304.676 89.3123C305.859 89.3123 306.885 89.1306 307.752 88.7673C308.631 88.3923 309.387 87.9001 310.02 87.2908L311.883 89.8572ZM331.289 92.1951H327.65V82.0876C327.65 80.8103 327.41 79.9255 326.93 79.4333C326.449 78.9412 325.752 78.6951 324.838 78.6951C323.49 78.6951 322.389 79.24 321.533 80.3298C320.689 81.4197 320.268 82.9255 320.268 84.8474V92.1951H316.629V69.2556H320.268V79.9255C320.631 78.5076 321.305 77.406 322.289 76.6208C323.273 75.824 324.486 75.4255 325.928 75.4255C327.604 75.4255 328.916 75.9705 329.865 77.0603C330.814 78.1501 331.289 79.8259 331.289 82.0876V92.1951ZM338.76 85.3923C338.936 86.5173 339.469 87.4548 340.359 88.2048C341.262 88.9431 342.469 89.3123 343.98 89.3123C345.164 89.3123 346.189 89.1306 347.057 88.7673C347.936 88.3923 348.691 87.9001 349.324 87.2908L351.188 89.8572C350.133 90.9119 349.014 91.6326 347.83 92.0193C346.658 92.406 345.375 92.5994 343.98 92.5994C342.715 92.5994 341.537 92.3884 340.447 91.9666C339.357 91.5447 338.414 90.9587 337.617 90.2087C336.82 89.447 336.193 88.5447 335.736 87.5017C335.291 86.4587 335.068 85.2986 335.068 84.0212C335.068 82.7791 335.273 81.6365 335.684 80.5935C336.105 79.5388 336.691 78.6306 337.441 77.8689C338.203 77.0955 339.111 76.4978 340.166 76.0759C341.221 75.6423 342.387 75.4255 343.664 75.4255C344.988 75.4255 346.189 75.6541 347.268 76.1111C348.346 76.5564 349.266 77.2068 350.027 78.0623C350.801 78.9177 351.404 79.9666 351.838 81.2087C352.271 82.4392 352.488 83.8337 352.488 85.3923H338.76ZM348.375 82.1931C348.188 81.1384 347.643 80.2947 346.74 79.6619C345.838 79.0173 344.812 78.6951 343.664 78.6951C342.516 78.6951 341.484 79.0173 340.57 79.6619C339.656 80.2947 339.105 81.1384 338.918 82.1931H348.375ZM371.631 86.9744C371.443 88.697 370.764 90.0681 369.592 91.0876C368.432 92.0955 366.979 92.5994 365.232 92.5994C364.271 92.5994 363.393 92.4412 362.596 92.1248C361.799 91.8083 361.119 91.3689 360.557 90.8064C359.994 90.2439 359.555 89.5701 359.238 88.7849C358.934 87.988 358.781 87.1208 358.781 86.1833V79.0994H355.072V75.8123H358.781V69.2556H362.42V75.8123H369.293V79.0994H362.42V86.1833C362.42 87.238 362.678 88.0232 363.193 88.5388C363.709 89.0544 364.389 89.3123 365.232 89.3123C366.264 89.3123 367.031 89.0134 367.535 88.4158C368.039 87.8181 368.338 87.0974 368.432 86.2537L371.631 86.9744Z"/>
</mask>
<path d="M116.326 85.1814C116.045 86.3064 115.67 87.3259 115.201 88.24C114.732 89.1541 114.158 89.9333 113.479 90.5779C112.811 91.2224 112.025 91.7205 111.123 92.072C110.232 92.4236 109.207 92.5994 108.047 92.5994C106.441 92.5994 105.082 92.2712 103.969 91.615C102.855 90.947 101.941 90.0623 101.227 88.9607C100.523 87.8474 100.014 86.5818 99.6973 85.1638C99.3926 83.7341 99.2402 82.2517 99.2402 80.7166C99.2402 79.1814 99.3926 77.699 99.6973 76.2693C100.014 74.8396 100.518 73.5798 101.209 72.49C101.912 71.4001 102.803 70.5271 103.881 69.8708C104.959 69.2029 106.277 68.8689 107.836 68.8689C108.34 68.8689 108.85 68.9333 109.365 69.0623C109.881 69.1912 110.361 69.3904 110.807 69.6599C111.252 69.9177 111.639 70.24 111.967 70.6267C112.307 71.0134 112.547 71.4587 112.688 71.9626V69.2556H115.975V77.9392H112.688C112.688 77.2244 112.6 76.5212 112.424 75.8298C112.248 75.1267 111.967 74.5056 111.58 73.9666C111.193 73.4275 110.707 72.988 110.121 72.6482C109.535 72.3083 108.844 72.1384 108.047 72.1384C107.016 72.1384 106.172 72.3904 105.516 72.8943C104.859 73.3982 104.332 74.0603 103.934 74.8806C103.535 75.7009 103.254 76.6208 103.09 77.6404C102.938 78.6599 102.861 79.6853 102.861 80.7166C102.861 81.7478 102.938 82.7791 103.09 83.8103C103.254 84.8416 103.529 85.7673 103.916 86.5876C104.303 87.3962 104.83 88.0525 105.498 88.5564C106.166 89.0603 107.016 89.3123 108.047 89.3123C109.535 89.3123 110.678 88.8376 111.475 87.8884C112.283 86.9392 112.928 85.6619 113.408 84.0564L116.326 85.1814ZM135.223 79.697C134.789 79.4861 134.344 79.3279 133.887 79.2224C133.441 79.1052 132.926 79.0466 132.34 79.0466C131.531 79.0466 130.77 79.1697 130.055 79.4158C129.352 79.6501 128.742 80.0076 128.227 80.488C127.711 80.9685 127.307 81.572 127.014 82.2986C126.732 83.0134 126.592 83.863 126.592 84.8474V88.9255H130.266V92.1951H119.244V88.9255H122.953V79.0994H119.244V75.8123H126.592V79.9255C127.189 78.2849 128.068 77.1248 129.229 76.4451C130.4 75.7654 131.789 75.4255 133.395 75.4255C133.898 75.4255 134.426 75.4783 134.977 75.5837C135.527 75.6892 136.066 75.8767 136.594 76.1462L135.223 79.697ZM138.826 87.4841C138.826 86.5232 139.084 85.6853 139.6 84.9705C140.115 84.2439 140.789 83.6404 141.621 83.1599C142.465 82.6794 143.426 82.322 144.504 82.0876C145.594 81.8416 146.701 81.7185 147.826 81.7185C148.447 81.7185 148.98 81.7302 149.426 81.7537C149.871 81.7771 150.322 81.8123 150.779 81.8591V81.2087C150.779 80.3533 150.445 79.7146 149.777 79.2927C149.121 78.8708 148.254 78.6599 147.176 78.6599C146.191 78.6599 145.189 78.8005 144.17 79.0818C143.15 79.3513 142.184 79.7498 141.27 80.2771L139.793 77.4294C140.871 76.8083 142.025 76.322 143.256 75.9705C144.498 75.6072 145.805 75.4255 147.176 75.4255C148.066 75.4255 148.939 75.5251 149.795 75.7244C150.662 75.9236 151.436 76.2517 152.115 76.7087C152.807 77.1658 153.357 77.7634 153.768 78.5017C154.178 79.2283 154.383 80.1306 154.383 81.2087V92.1951H150.779V89.7869C150.205 90.6775 149.355 91.3689 148.23 91.8611C147.117 92.3533 145.916 92.5994 144.627 92.5994C143.83 92.5994 143.074 92.488 142.359 92.2654C141.656 92.0544 141.047 91.7322 140.531 91.2986C140.016 90.865 139.6 90.3318 139.283 89.699C138.979 89.0544 138.826 88.3162 138.826 87.4841ZM145.559 89.3474C146.273 89.3474 146.941 89.2595 147.562 89.0837C148.195 88.8962 148.752 88.6443 149.232 88.3279C149.713 87.9998 150.088 87.6072 150.357 87.1501C150.639 86.6931 150.779 86.1892 150.779 85.6384V85.0232C150.205 84.9294 149.666 84.8767 149.162 84.865C148.658 84.8533 148.213 84.8474 147.826 84.8474C146.045 84.8474 144.697 85.0818 143.783 85.5505C142.881 86.0193 142.43 86.5994 142.43 87.2908C142.43 88.6619 143.473 89.3474 145.559 89.3474ZM174.932 79.0994H168.551V88.9255H172.295V92.1951H161.291V88.9255H164.912V79.0994H161.291V75.8123H164.912C164.912 73.5623 165.604 71.8455 166.986 70.6619C168.369 69.4666 170.238 68.8689 172.594 68.8689C172.945 68.8689 173.32 68.8865 173.719 68.9216C174.117 68.9568 174.521 68.9978 174.932 69.0447V72.2439C174.229 72.1736 173.59 72.1384 173.016 72.1384C172.078 72.1384 171.322 72.2087 170.748 72.3494C170.174 72.4783 169.723 72.6951 169.395 72.9998C169.078 73.2927 168.855 73.6736 168.727 74.1423C168.609 74.6111 168.551 75.1677 168.551 75.8123H174.932V79.0994ZM194.76 86.9744C194.572 88.697 193.893 90.0681 192.721 91.0876C191.561 92.0955 190.107 92.5994 188.361 92.5994C187.4 92.5994 186.521 92.4412 185.725 92.1248C184.928 91.8083 184.248 91.3689 183.686 90.8064C183.123 90.2439 182.684 89.5701 182.367 88.7849C182.062 87.988 181.91 87.1208 181.91 86.1833V79.0994H178.201V75.8123H181.91V69.2556H185.549V75.8123H192.422V79.0994H185.549V86.1833C185.549 87.238 185.807 88.0232 186.322 88.5388C186.838 89.0544 187.518 89.3123 188.361 89.3123C189.393 89.3123 190.16 89.0134 190.664 88.4158C191.168 87.8181 191.467 87.0974 191.561 86.2537L194.76 86.9744ZM214.096 75.8123L207.029 95.3943C206.502 96.8123 205.734 97.7849 204.727 98.3123C203.719 98.8396 202.518 99.1033 201.123 99.1033C200.643 99.1033 200.127 99.0564 199.576 98.9626C199.025 98.8689 198.451 98.7107 197.854 98.488L198.609 95.1482C199.113 95.3357 199.576 95.4646 199.998 95.5349C200.42 95.6169 200.795 95.658 201.123 95.658C202.213 95.658 202.957 95.1775 203.355 94.2166L204.006 92.6345L197.748 75.8123H201.527L206.027 88.2048L210.193 75.8123H214.096ZM253.893 85.1814C253.611 86.3064 253.236 87.3259 252.768 88.24C252.299 89.1541 251.725 89.9333 251.045 90.5779C250.377 91.2224 249.592 91.7205 248.689 92.072C247.799 92.4236 246.773 92.5994 245.613 92.5994C244.008 92.5994 242.648 92.2712 241.535 91.615C240.422 90.947 239.508 90.0623 238.793 88.9607C238.09 87.8474 237.58 86.5818 237.264 85.1638C236.959 83.7341 236.807 82.2517 236.807 80.7166C236.807 79.1814 236.959 77.699 237.264 76.2693C237.58 74.8396 238.084 73.5798 238.775 72.49C239.479 71.4001 240.369 70.5271 241.447 69.8708C242.525 69.2029 243.844 68.8689 245.402 68.8689C245.906 68.8689 246.416 68.9333 246.932 69.0623C247.447 69.1912 247.928 69.3904 248.373 69.6599C248.818 69.9177 249.205 70.24 249.533 70.6267C249.873 71.0134 250.113 71.4587 250.254 71.9626V69.2556H253.541V77.9392H250.254C250.254 77.2244 250.166 76.5212 249.99 75.8298C249.814 75.1267 249.533 74.5056 249.146 73.9666C248.76 73.4275 248.273 72.988 247.688 72.6482C247.102 72.3083 246.41 72.1384 245.613 72.1384C244.582 72.1384 243.738 72.3904 243.082 72.8943C242.426 73.3982 241.898 74.0603 241.5 74.8806C241.102 75.7009 240.82 76.6208 240.656 77.6404C240.504 78.6599 240.428 79.6853 240.428 80.7166C240.428 81.7478 240.504 82.7791 240.656 83.8103C240.82 84.8416 241.096 85.7673 241.482 86.5876C241.869 87.3962 242.396 88.0525 243.064 88.5564C243.732 89.0603 244.582 89.3123 245.613 89.3123C247.102 89.3123 248.244 88.8376 249.041 87.8884C249.85 86.9392 250.494 85.6619 250.975 84.0564L253.893 85.1814ZM272.789 79.697C272.355 79.4861 271.91 79.3279 271.453 79.2224C271.008 79.1052 270.492 79.0466 269.906 79.0466C269.098 79.0466 268.336 79.1697 267.621 79.4158C266.918 79.6501 266.309 80.0076 265.793 80.488C265.277 80.9685 264.873 81.572 264.58 82.2986C264.299 83.0134 264.158 83.863 264.158 84.8474V88.9255H267.832V92.1951H256.811V88.9255H260.52V79.0994H256.811V75.8123H264.158V79.9255C264.756 78.2849 265.635 77.1248 266.795 76.4451C267.967 75.7654 269.355 75.4255 270.961 75.4255C271.465 75.4255 271.992 75.4783 272.543 75.5837C273.094 75.6892 273.633 75.8767 274.16 76.1462L272.789 79.697ZM293.268 84.0212C293.268 85.2986 293.062 86.4587 292.652 87.5017C292.254 88.5447 291.674 89.447 290.912 90.2087C290.162 90.9587 289.26 91.5447 288.205 91.9666C287.15 92.3884 285.973 92.5994 284.672 92.5994C283.395 92.5994 282.229 92.3884 281.174 91.9666C280.119 91.5447 279.211 90.9587 278.449 90.2087C277.699 89.447 277.119 88.5447 276.709 87.5017C276.311 86.4587 276.111 85.2986 276.111 84.0212C276.111 82.7791 276.311 81.6306 276.709 80.5759C277.119 79.5095 277.699 78.5955 278.449 77.8337C279.211 77.0603 280.119 76.4685 281.174 76.0583C282.229 75.6365 283.395 75.4255 284.672 75.4255C285.973 75.4255 287.15 75.6365 288.205 76.0583C289.26 76.4685 290.162 77.0603 290.912 77.8337C291.674 78.5955 292.254 79.5095 292.652 80.5759C293.062 81.6306 293.268 82.7791 293.268 84.0212ZM289.646 84.0212C289.646 83.283 289.529 82.5857 289.295 81.9294C289.072 81.2615 288.744 80.6931 288.311 80.2244C287.877 79.7556 287.35 79.3865 286.729 79.1169C286.119 78.8357 285.434 78.6951 284.672 78.6951C283.898 78.6951 283.207 78.8357 282.598 79.1169C281.988 79.3865 281.473 79.7556 281.051 80.2244C280.629 80.6931 280.301 81.2615 280.066 81.9294C279.844 82.5857 279.732 83.283 279.732 84.0212C279.732 84.7947 279.844 85.4978 280.066 86.1306C280.301 86.7634 280.629 87.3201 281.051 87.8005C281.473 88.281 281.988 88.656 282.598 88.9255C283.207 89.1833 283.898 89.3123 284.672 89.3123C285.434 89.3123 286.119 89.1833 286.729 88.9255C287.35 88.656 287.877 88.281 288.311 87.8005C288.744 87.3201 289.072 86.7634 289.295 86.1306C289.529 85.4978 289.646 84.7947 289.646 84.0212ZM311.883 89.8572C310.828 90.9119 309.715 91.6326 308.543 92.0193C307.383 92.406 306.123 92.5994 304.764 92.5994C303.393 92.5994 302.145 92.3943 301.02 91.9841C299.906 91.574 298.957 90.9998 298.172 90.2615C297.398 89.5115 296.801 88.6091 296.379 87.5544C295.969 86.4998 295.764 85.322 295.764 84.0212C295.764 82.7791 295.969 81.6306 296.379 80.5759C296.801 79.5095 297.363 78.6013 298.066 77.8513C298.781 77.0896 299.619 76.4978 300.58 76.0759C301.541 75.6423 302.561 75.4255 303.639 75.4255C304.764 75.4255 305.742 75.6599 306.574 76.1287C307.406 76.5974 308.01 77.283 308.385 78.1853V75.8123H311.637V83.4412H308.385C308.385 81.9998 307.986 80.8513 307.189 79.9958C306.404 79.1287 305.379 78.6951 304.113 78.6951C303.609 78.6951 303.076 78.8005 302.514 79.0115C301.963 79.2107 301.453 79.5271 300.984 79.9607C300.527 80.3943 300.146 80.9451 299.842 81.613C299.537 82.281 299.385 83.0837 299.385 84.0212C299.385 84.9353 299.531 85.7263 299.824 86.3943C300.117 87.0505 300.498 87.5955 300.967 88.0291C301.447 88.4509 302.01 88.7732 302.654 88.9958C303.311 89.2068 303.984 89.3123 304.676 89.3123C305.859 89.3123 306.885 89.1306 307.752 88.7673C308.631 88.3923 309.387 87.9001 310.02 87.2908L311.883 89.8572ZM331.289 92.1951H327.65V82.0876C327.65 80.8103 327.41 79.9255 326.93 79.4333C326.449 78.9412 325.752 78.6951 324.838 78.6951C323.49 78.6951 322.389 79.24 321.533 80.3298C320.689 81.4197 320.268 82.9255 320.268 84.8474V92.1951H316.629V69.2556H320.268V79.9255C320.631 78.5076 321.305 77.406 322.289 76.6208C323.273 75.824 324.486 75.4255 325.928 75.4255C327.604 75.4255 328.916 75.9705 329.865 77.0603C330.814 78.1501 331.289 79.8259 331.289 82.0876V92.1951ZM338.76 85.3923C338.936 86.5173 339.469 87.4548 340.359 88.2048C341.262 88.9431 342.469 89.3123 343.98 89.3123C345.164 89.3123 346.189 89.1306 347.057 88.7673C347.936 88.3923 348.691 87.9001 349.324 87.2908L351.188 89.8572C350.133 90.9119 349.014 91.6326 347.83 92.0193C346.658 92.406 345.375 92.5994 343.98 92.5994C342.715 92.5994 341.537 92.3884 340.447 91.9666C339.357 91.5447 338.414 90.9587 337.617 90.2087C336.82 89.447 336.193 88.5447 335.736 87.5017C335.291 86.4587 335.068 85.2986 335.068 84.0212C335.068 82.7791 335.273 81.6365 335.684 80.5935C336.105 79.5388 336.691 78.6306 337.441 77.8689C338.203 77.0955 339.111 76.4978 340.166 76.0759C341.221 75.6423 342.387 75.4255 343.664 75.4255C344.988 75.4255 346.189 75.6541 347.268 76.1111C348.346 76.5564 349.266 77.2068 350.027 78.0623C350.801 78.9177 351.404 79.9666 351.838 81.2087C352.271 82.4392 352.488 83.8337 352.488 85.3923H338.76ZM348.375 82.1931C348.188 81.1384 347.643 80.2947 346.74 79.6619C345.838 79.0173 344.812 78.6951 343.664 78.6951C342.516 78.6951 341.484 79.0173 340.57 79.6619C339.656 80.2947 339.105 81.1384 338.918 82.1931H348.375ZM371.631 86.9744C371.443 88.697 370.764 90.0681 369.592 91.0876C368.432 92.0955 366.979 92.5994 365.232 92.5994C364.271 92.5994 363.393 92.4412 362.596 92.1248C361.799 91.8083 361.119 91.3689 360.557 90.8064C359.994 90.2439 359.555 89.5701 359.238 88.7849C358.934 87.988 358.781 87.1208 358.781 86.1833V79.0994H355.072V75.8123H358.781V69.2556H362.42V75.8123H369.293V79.0994H362.42V86.1833C362.42 87.238 362.678 88.0232 363.193 88.5388C363.709 89.0544 364.389 89.3123 365.232 89.3123C366.264 89.3123 367.031 89.0134 367.535 88.4158C368.039 87.8181 368.338 87.0974 368.432 86.2537L371.631 86.9744Z" fill="#FFA352"/>
<path d="M116.326 85.1814L121.177 86.3941L122.249 82.1061L118.125 80.5161L116.326 85.1814ZM113.479 90.5779L110.038 86.9498L110.022 86.9647L110.007 86.9798L113.479 90.5779ZM111.123 92.072L109.308 87.4131L109.298 87.4172L109.287 87.4212L111.123 92.072ZM103.969 91.615L101.396 95.9025L101.413 95.9125L101.43 95.9223L103.969 91.615ZM101.227 88.9607L96.9991 91.6307L97.0156 91.6567L97.0323 91.6825L101.227 88.9607ZM99.6973 85.1638L94.8071 86.206L94.8121 86.2294L94.8173 86.2527L99.6973 85.1638ZM99.6973 76.2693L94.8154 75.1889L94.8112 75.208L94.8071 75.2271L99.6973 76.2693ZM101.209 72.49L97.0075 69.7794L96.9972 69.7954L96.9869 69.8115L101.209 72.49ZM103.881 69.8708L106.481 74.1418L106.497 74.1316L106.514 74.1212L103.881 69.8708ZM110.807 69.6599L108.218 73.9374L108.259 73.9626L108.301 73.987L110.807 69.6599ZM111.967 70.6267L108.154 73.8616L108.182 73.8947L108.211 73.9273L111.967 70.6267ZM112.688 71.9626L107.872 73.3066L117.688 71.9626H112.688ZM112.688 69.2556V64.2556H107.688V69.2556H112.688ZM115.975 69.2556H120.975V64.2556H115.975V69.2556ZM115.975 77.9392V82.9392H120.975V77.9392H115.975ZM112.688 77.9392H107.688V82.9392H112.688V77.9392ZM112.424 75.8298L107.573 77.0425L107.576 77.0522L107.578 77.0618L112.424 75.8298ZM103.09 77.6404L98.1534 76.846L98.1489 76.8737L98.1447 76.9015L103.09 77.6404ZM103.09 83.8103L98.1435 84.541L98.1476 84.5685L98.1519 84.5959L103.09 83.8103ZM103.916 86.5876L99.3934 88.7197L99.3993 88.7323L99.4053 88.7449L103.916 86.5876ZM111.475 87.8884L107.668 84.6461L107.657 84.6598L107.645 84.6736L111.475 87.8884ZM113.408 84.0564L115.207 79.3911L110.167 77.448L108.618 82.6229L113.408 84.0564ZM116.326 85.1814L111.475 83.9687C111.275 84.7699 111.026 85.4244 110.752 85.9584L115.201 88.24L119.65 90.5216C120.314 89.2274 120.815 87.8429 121.177 86.3941L116.326 85.1814ZM115.201 88.24L110.752 85.9584C110.516 86.4183 110.27 86.7297 110.038 86.9498L113.479 90.5779L116.919 94.206C118.046 93.137 118.949 91.8898 119.65 90.5216L115.201 88.24ZM113.479 90.5779L110.007 86.9798C109.836 87.1446 109.62 87.2914 109.308 87.4131L111.123 92.072L112.938 96.7309C114.43 96.1495 115.785 95.3002 116.95 94.176L113.479 90.5779ZM111.123 92.072L109.287 87.4212C109.091 87.4989 108.708 87.5994 108.047 87.5994V92.5994V97.5994C109.706 97.5994 111.374 97.3483 112.959 96.7228L111.123 92.072ZM108.047 92.5994V87.5994C107.12 87.5994 106.686 87.4126 106.508 87.3077L103.969 91.615L101.43 95.9223C103.478 97.1299 105.763 97.5994 108.047 97.5994V92.5994ZM103.969 91.615L106.541 87.3275C106.088 87.0558 105.726 86.7095 105.421 86.2389L101.227 88.9607L97.0323 91.6825C98.1566 93.415 99.6226 94.8382 101.396 95.9025L103.969 91.615ZM101.227 88.9607L105.454 86.2907C105.088 85.7107 104.781 84.99 104.577 84.0749L99.6973 85.1638L94.8173 86.2527C95.2459 88.1736 95.9592 89.9841 96.9991 91.6307L101.227 88.9607ZM99.6973 85.1638L104.587 84.1216C104.359 83.0512 104.24 81.9189 104.24 80.7166H99.2402H94.2402C94.2402 82.5845 94.4258 84.417 94.8071 86.206L99.6973 85.1638ZM99.2402 80.7166H104.24C104.24 79.5142 104.359 78.3819 104.587 77.3115L99.6973 76.2693L94.8071 75.2271C94.4258 77.0161 94.2402 78.8486 94.2402 80.7166H99.2402ZM99.6973 76.2693L104.579 77.3497C104.787 76.4116 105.09 75.7068 105.431 75.1685L101.209 72.49L96.9869 69.8115C95.9456 71.4529 95.2406 73.2676 94.8154 75.1889L99.6973 76.2693ZM101.209 72.49L105.41 75.2006C105.716 74.7271 106.065 74.3945 106.481 74.1418L103.881 69.8708L101.281 65.5999C99.54 66.6597 98.1082 68.0732 97.0075 69.7794L101.209 72.49ZM103.881 69.8708L106.514 74.1212C106.638 74.0445 106.995 73.8689 107.836 73.8689V68.8689V63.8689C105.56 63.8689 103.28 64.3613 101.247 65.6205L103.881 69.8708ZM107.836 68.8689V73.8689C107.909 73.8689 108.012 73.8778 108.153 73.913L109.365 69.0623L110.578 64.2115C109.687 63.9889 108.77 63.8689 107.836 63.8689V68.8689ZM109.365 69.0623L108.153 73.913C108.194 73.9232 108.209 73.9321 108.218 73.9374L110.807 69.6599L113.396 65.3824C112.514 64.8486 111.568 64.4591 110.578 64.2115L109.365 69.0623ZM110.807 69.6599L108.301 73.987C108.284 73.9771 108.259 73.9604 108.23 73.9361C108.201 73.9117 108.175 73.8859 108.154 73.8616L111.967 70.6267L115.779 67.3918C115.076 66.5625 114.245 65.873 113.312 65.3328L110.807 69.6599ZM111.967 70.6267L108.211 73.9273C108.136 73.8421 108.064 73.74 108.001 73.6247C107.939 73.5096 107.898 73.4002 107.872 73.3066L112.688 71.9626L117.503 70.6187C117.164 69.4033 116.567 68.2865 115.723 67.3261L111.967 70.6267ZM112.688 71.9626H117.688V69.2556H112.688H107.688V71.9626H112.688ZM112.688 69.2556V74.2556H115.975V69.2556V64.2556H112.688V69.2556ZM115.975 69.2556H110.975V77.9392H115.975H120.975V69.2556H115.975ZM115.975 77.9392V72.9392H112.688V77.9392V82.9392H115.975V77.9392ZM112.688 77.9392H117.688C117.688 76.8097 117.548 75.6927 117.27 74.5978L112.424 75.8298L107.578 77.0618C107.651 77.3497 107.688 77.639 107.688 77.9392H112.688ZM112.424 75.8298L117.275 74.6172C116.96 73.3589 116.43 72.1491 115.643 71.052L111.58 73.9666L107.517 76.8811C107.514 76.8762 107.518 76.8799 107.526 76.8992C107.535 76.9194 107.554 76.9644 107.573 77.0425L112.424 75.8298ZM111.58 73.9666L115.643 71.052C114.835 69.9258 113.814 69.0102 112.63 68.323L110.121 72.6482L107.613 76.9733C107.614 76.974 107.597 76.9644 107.573 76.9425C107.549 76.9203 107.529 76.8977 107.517 76.8811L111.58 73.9666ZM110.121 72.6482L112.63 68.323C111.157 67.4687 109.568 67.1384 108.047 67.1384V72.1384V77.1384C108.09 77.1384 108.058 77.143 107.97 77.1214C107.878 77.0988 107.751 77.0537 107.613 76.9733L110.121 72.6482ZM108.047 72.1384V67.1384C106.191 67.1384 104.197 67.6031 102.47 68.9285L105.516 72.8943L108.561 76.86C108.375 77.0026 108.195 77.0813 108.071 77.1184C107.957 77.1523 107.935 77.1384 108.047 77.1384V72.1384ZM105.516 72.8943L102.47 68.9285C101.138 69.9521 100.139 71.2498 99.4361 72.6961L103.934 74.8806L108.431 77.0651C108.482 76.9604 108.521 76.906 108.539 76.8838C108.548 76.8722 108.554 76.8661 108.557 76.8638C108.559 76.8614 108.56 76.8605 108.561 76.86L105.516 72.8943ZM103.934 74.8806L99.4361 72.6961C98.7981 74.0096 98.3849 75.4069 98.1534 76.846L103.09 77.6404L108.026 78.4348C108.123 77.8348 108.272 77.3923 108.431 77.0651L103.934 74.8806ZM103.09 77.6404L98.1447 76.9015C97.9558 78.1657 97.8613 79.4381 97.8613 80.7166H102.861H107.861C107.861 79.9325 107.919 79.1541 108.035 78.3793L103.09 77.6404ZM102.861 80.7166H97.8613C97.8613 81.995 97.9558 83.2705 98.1435 84.541L103.09 83.8103L108.036 83.0796C107.919 82.2876 107.861 81.5006 107.861 80.7166H102.861ZM103.09 83.8103L98.1519 84.5959C98.3792 86.0244 98.7776 87.4136 99.3934 88.7197L103.916 86.5876L108.439 84.4556C108.281 84.1211 108.129 83.6587 108.028 83.0247L103.09 83.8103ZM103.916 86.5876L99.4053 88.7449C100.112 90.2235 101.134 91.5275 102.487 92.548L105.498 88.5564L108.509 84.5648C108.507 84.5632 108.506 84.5624 108.499 84.5543C108.492 84.5451 108.465 84.5096 108.427 84.4304L103.916 86.5876ZM105.498 88.5564L102.487 92.548C104.208 93.8462 106.187 94.3123 108.047 94.3123V89.3123V84.3123C107.936 84.3123 107.953 84.2985 108.058 84.3296C108.172 84.3636 108.338 84.4356 108.509 84.5648L105.498 88.5564ZM108.047 89.3123V94.3123C110.686 94.3123 113.365 93.4127 115.304 91.1033L111.475 87.8884L107.645 84.6736C107.695 84.6145 107.764 84.5461 107.853 84.4809C107.942 84.4156 108.029 84.3691 108.102 84.3388C108.249 84.2779 108.263 84.3123 108.047 84.3123V89.3123ZM111.475 87.8884L115.281 91.1308C116.666 89.5051 117.584 87.5439 118.198 85.4899L113.408 84.0564L108.618 82.6229C108.272 83.7799 107.901 84.3733 107.668 84.6461L111.475 87.8884ZM113.408 84.0564L111.61 88.7217L114.528 89.8467L116.326 85.1814L118.125 80.5161L115.207 79.3911L113.408 84.0564ZM135.223 79.697L133.035 84.1932L137.927 86.5731L139.887 81.4981L135.223 79.697ZM133.887 79.2224L132.614 84.0578L132.688 84.0772L132.762 84.0944L133.887 79.2224ZM130.055 79.4158L131.636 84.1592L131.659 84.1514L131.682 84.1435L130.055 79.4158ZM127.014 82.2986L122.376 80.4287L122.369 80.4483L122.361 80.468L127.014 82.2986ZM126.592 88.9255H121.592V93.9255H126.592V88.9255ZM130.266 88.9255H135.266V83.9255H130.266V88.9255ZM130.266 92.1951V97.1951H135.266V92.1951H130.266ZM119.244 92.1951H114.244V97.1951H119.244V92.1951ZM119.244 88.9255V83.9255H114.244V88.9255H119.244ZM122.953 88.9255V93.9255H127.953V88.9255H122.953ZM122.953 79.0994H127.953V74.0994H122.953V79.0994ZM119.244 79.0994H114.244V84.0994H119.244V79.0994ZM119.244 75.8123V70.8123H114.244V75.8123H119.244ZM126.592 75.8123H131.592V70.8123H126.592V75.8123ZM126.592 79.9255H121.592L131.29 81.6369L126.592 79.9255ZM129.229 76.4451L126.72 72.1199L126.71 72.1254L126.701 72.1309L129.229 76.4451ZM136.594 76.1462L141.258 77.9473L142.881 73.7445L138.869 71.6941L136.594 76.1462ZM135.223 79.697L137.41 75.2008C136.647 74.8296 135.846 74.5431 135.011 74.3505L133.887 79.2224L132.762 84.0944C132.842 84.1127 132.931 84.1426 133.035 84.1932L135.223 79.697ZM133.887 79.2224L135.159 74.387C134.204 74.1356 133.245 74.0466 132.34 74.0466V79.0466V84.0466C132.468 84.0466 132.553 84.0531 132.601 84.0586C132.65 84.0641 132.651 84.0675 132.614 84.0578L133.887 79.2224ZM132.34 79.0466V74.0466C131.016 74.0466 129.701 74.2495 128.427 74.6881L130.055 79.4158L131.682 84.1435C131.838 84.0898 132.046 84.0466 132.34 84.0466V79.0466ZM130.055 79.4158L128.474 74.6724C127.126 75.1214 125.885 75.8358 124.818 76.83L128.227 80.488L131.635 84.1461C131.631 84.1503 131.625 84.1555 131.617 84.1608C131.61 84.166 131.604 84.17 131.6 84.1725C131.596 84.175 131.595 84.1748 131.6 84.1727C131.605 84.1705 131.616 84.1657 131.636 84.1592L130.055 79.4158ZM128.227 80.488L124.818 76.83C123.71 77.8626 122.912 79.0997 122.376 80.4287L127.014 82.2986L131.651 84.1684C131.665 84.1341 131.676 84.1113 131.683 84.0982C131.689 84.0852 131.693 84.0811 131.691 84.0838C131.689 84.0867 131.683 84.0949 131.673 84.1067C131.663 84.1186 131.65 84.1321 131.635 84.1461L128.227 80.488ZM127.014 82.2986L122.361 80.468C121.796 81.9044 121.592 83.405 121.592 84.8474H126.592H131.592C131.592 84.3211 131.669 84.1224 131.667 84.1292L127.014 82.2986ZM126.592 84.8474H121.592V88.9255H126.592H131.592V84.8474H126.592ZM126.592 88.9255V93.9255H130.266V88.9255V83.9255H126.592V88.9255ZM130.266 88.9255H125.266V92.1951H130.266H135.266V88.9255H130.266ZM130.266 92.1951V87.1951H119.244V92.1951V97.1951H130.266V92.1951ZM119.244 92.1951H124.244V88.9255H119.244H114.244V92.1951H119.244ZM119.244 88.9255V93.9255H122.953V88.9255V83.9255H119.244V88.9255ZM122.953 88.9255H127.953V79.0994H122.953H117.953V88.9255H122.953ZM122.953 79.0994V74.0994H119.244V79.0994V84.0994H122.953V79.0994ZM119.244 79.0994H124.244V75.8123H119.244H114.244V79.0994H119.244ZM119.244 75.8123V80.8123H126.592V75.8123V70.8123H119.244V75.8123ZM126.592 75.8123H121.592V79.9255H126.592H131.592V75.8123H126.592ZM126.592 79.9255L131.29 81.6369C131.451 81.1952 131.6 80.9562 131.685 80.8442C131.761 80.7438 131.787 80.7408 131.756 80.7592L129.229 76.4451L126.701 72.1309C124.269 73.5556 122.769 75.8111 121.894 78.2141L126.592 79.9255ZM129.229 76.4451L131.737 80.7702C132.017 80.6081 132.506 80.4255 133.395 80.4255V75.4255V70.4255C131.072 70.4255 128.784 70.9226 126.72 72.1199L129.229 76.4451ZM133.395 75.4255V80.4255C133.55 80.4255 133.761 80.4418 134.036 80.4945L134.977 75.5837L135.917 70.673C135.09 70.5147 134.247 70.4255 133.395 70.4255V75.4255ZM134.977 75.5837L134.036 80.4945C134.097 80.5062 134.188 80.532 134.318 80.5984L136.594 76.1462L138.869 71.6941C137.944 71.2214 136.958 70.8722 135.917 70.673L134.977 75.5837ZM136.594 76.1462L131.929 74.3452L130.558 77.8959L135.223 79.697L139.887 81.4981L141.258 77.9473L136.594 76.1462ZM139.6 84.9705L143.655 87.8955L143.666 87.8799L143.677 87.8642L139.6 84.9705ZM141.621 83.1599L139.147 78.815L139.134 78.8225L139.121 78.83L141.621 83.1599ZM144.504 82.0876L145.566 86.9735L145.586 86.9693L145.605 86.9649L144.504 82.0876ZM150.779 81.8591L150.269 86.833L155.779 87.3982V81.8591H150.779ZM149.777 79.2927L147.074 83.4986L147.09 83.5095L147.107 83.5202L149.777 79.2927ZM144.17 79.0818L145.448 83.9157L145.474 83.9089L145.5 83.9018L144.17 79.0818ZM141.27 80.2771L136.831 82.5787L139.238 87.2215L143.768 84.608L141.27 80.2771ZM139.793 77.4294L137.297 73.0969L133.152 75.4847L135.354 79.731L139.793 77.4294ZM143.256 75.9705L144.629 80.7781L144.644 80.7738L144.659 80.7694L143.256 75.9705ZM149.795 75.7244L148.661 80.5941L148.668 80.5958L148.675 80.5974L149.795 75.7244ZM152.115 76.7087L149.325 80.858L149.342 80.869L149.358 80.8798L152.115 76.7087ZM153.768 78.5017L149.397 80.9299L149.405 80.9448L149.413 80.9597L153.768 78.5017ZM154.383 92.1951V97.1951H159.383V92.1951H154.383ZM150.779 92.1951H145.779V97.1951H150.779V92.1951ZM150.779 89.7869H155.779V72.8045L146.577 87.0775L150.779 89.7869ZM148.23 91.8611L146.226 87.2803L146.218 87.2842L146.209 87.2881L148.23 91.8611ZM142.359 92.2654L143.846 87.4916L143.821 87.4838L143.796 87.4762L142.359 92.2654ZM139.283 89.699L134.763 91.8359L134.786 91.8857L134.811 91.935L139.283 89.699ZM147.562 89.0837L148.924 93.8948L148.954 93.8864L148.983 93.8777L147.562 89.0837ZM149.232 88.3279L151.982 92.5037L152.017 92.4806L152.052 92.4569L149.232 88.3279ZM150.357 87.1501L146.099 84.5297L146.074 84.5697L146.051 84.6102L150.357 87.1501ZM150.779 85.0232H155.779V80.7733L151.585 80.0885L150.779 85.0232ZM143.783 85.5505L141.502 81.1014L141.49 81.1074L141.478 81.1135L143.783 85.5505ZM138.826 87.4841H143.826C143.826 87.4545 143.829 87.5046 143.798 87.6054C143.766 87.7104 143.714 87.8132 143.655 87.8955L139.6 84.9705L135.544 82.0454C134.359 83.6894 133.826 85.573 133.826 87.4841H138.826ZM139.6 84.9705L143.677 87.8642C143.745 87.7692 143.863 87.6392 144.121 87.4898L141.621 83.1599L139.121 78.83C137.715 79.6415 136.486 80.7186 135.522 82.0767L139.6 84.9705ZM141.621 83.1599L144.095 87.5048C144.443 87.3068 144.917 87.1146 145.566 86.9735L144.504 82.0876L143.442 77.2018C141.935 77.5294 140.487 78.0521 139.147 78.815L141.621 83.1599ZM144.504 82.0876L145.605 86.9649C146.331 86.8009 147.069 86.7185 147.826 86.7185V81.7185V76.7185C146.333 76.7185 144.856 76.8822 143.403 77.2104L144.504 82.0876ZM147.826 81.7185V86.7185C148.391 86.7185 148.832 86.7293 149.163 86.7468L149.426 81.7537L149.689 76.7606C149.129 76.7311 148.504 76.7185 147.826 76.7185V81.7185ZM149.426 81.7537L149.163 86.7468C149.523 86.7657 149.892 86.7943 150.269 86.833L150.779 81.8591L151.289 76.8852C150.753 76.8302 150.219 76.7885 149.689 76.7606L149.426 81.7537ZM150.779 81.8591H155.779V81.2087H150.779H145.779V81.8591H150.779ZM150.779 81.2087H155.779C155.779 78.8078 154.704 76.4905 152.447 75.0653L149.777 79.2927L147.107 83.5202C146.77 83.3071 146.378 82.9404 146.098 82.4051C145.827 81.8871 145.779 81.4376 145.779 81.2087H150.779ZM149.777 79.2927L152.481 75.0868C150.765 73.9839 148.86 73.6599 147.176 73.6599V78.6599V83.6599C147.396 83.6599 147.476 83.6822 147.453 83.6765C147.423 83.6692 147.275 83.6281 147.074 83.4986L149.777 79.2927ZM147.176 78.6599V73.6599C145.71 73.6599 144.261 73.8699 142.84 74.2618L144.17 79.0818L145.5 83.9018C146.118 83.7311 146.673 83.6599 147.176 83.6599V78.6599ZM144.17 79.0818L142.892 74.2479C141.445 74.6304 140.068 75.1981 138.771 75.9462L141.27 80.2771L143.768 84.608C144.3 84.3014 144.856 84.0722 145.448 83.9157L144.17 79.0818ZM141.27 80.2771L145.708 77.9755L144.232 75.1279L139.793 77.4294L135.354 79.731L136.831 82.5787L141.27 80.2771ZM139.793 77.4294L142.289 81.7619C143.004 81.3501 143.78 81.0208 144.629 80.7781L143.256 75.9705L141.882 71.1628C140.271 71.6232 138.738 72.2666 137.297 73.0969L139.793 77.4294ZM143.256 75.9705L144.659 80.7694C145.419 80.5472 146.251 80.4255 147.176 80.4255V75.4255V70.4255C145.358 70.4255 143.577 70.6672 141.852 71.1715L143.256 75.9705ZM147.176 75.4255V80.4255C147.69 80.4255 148.182 80.4826 148.661 80.5941L149.795 75.7244L150.929 70.8547C149.697 70.5677 148.443 70.4255 147.176 70.4255V75.4255ZM149.795 75.7244L148.675 80.5974C148.998 80.6715 149.196 80.7708 149.325 80.858L152.115 76.7087L154.905 72.5595C153.675 71.7326 152.326 71.1757 150.914 70.8513L149.795 75.7244ZM152.115 76.7087L149.358 80.8798C149.367 80.8858 149.371 80.8891 149.371 80.8894C149.372 80.8896 149.371 80.889 149.37 80.8882C149.369 80.8874 149.371 80.8888 149.375 80.894C149.378 80.8993 149.386 80.9106 149.397 80.9299L153.768 78.5017L158.138 76.0735C157.346 74.647 156.247 73.4463 154.872 72.5376L152.115 76.7087ZM153.768 78.5017L149.413 80.9597C149.294 80.7481 149.383 80.7464 149.383 81.2087H154.383H159.383C159.383 79.5148 159.061 77.7085 158.122 76.0437L153.768 78.5017ZM154.383 81.2087H149.383V92.1951H154.383H159.383V81.2087H154.383ZM154.383 92.1951V87.1951H150.779V92.1951V97.1951H154.383V92.1951ZM150.779 92.1951H155.779V89.7869H150.779H145.779V92.1951H150.779ZM150.779 89.7869L146.577 87.0775C146.585 87.0658 146.586 87.0704 146.555 87.0953C146.52 87.1237 146.424 87.1938 146.226 87.2803L148.23 91.8611L150.235 96.4419C152.114 95.6197 153.794 94.3382 154.982 92.4962L150.779 89.7869ZM148.23 91.8611L146.209 87.2881C145.769 87.4823 145.262 87.5994 144.627 87.5994V92.5994V97.5994C146.57 97.5994 148.465 97.2243 150.252 96.4341L148.23 91.8611ZM144.627 92.5994V87.5994C144.302 87.5994 144.05 87.5549 143.846 87.4916L142.359 92.2654L140.872 97.0392C142.099 97.4211 143.358 97.5994 144.627 97.5994V92.5994ZM142.359 92.2654L143.796 87.4762C143.766 87.4671 143.745 87.4593 143.731 87.454C143.719 87.4487 143.713 87.4456 143.712 87.4455C143.712 87.4455 143.717 87.4477 143.724 87.4527C143.731 87.4576 143.74 87.4641 143.749 87.4718L140.531 91.2986L137.313 95.1254C138.396 96.0359 139.625 96.6653 140.923 97.0545L142.359 92.2654ZM140.531 91.2986L143.749 87.4718C143.753 87.4753 143.758 87.4799 143.764 87.4852C143.769 87.4905 143.772 87.495 143.775 87.4978C143.777 87.5005 143.776 87.5001 143.773 87.4954C143.77 87.4905 143.764 87.4802 143.755 87.4629L139.283 89.699L134.811 91.935C135.417 93.1469 136.249 94.2308 137.313 95.1254L140.531 91.2986ZM139.283 89.699L143.804 87.5621C143.816 87.5893 143.825 87.6122 143.831 87.6289C143.836 87.6455 143.838 87.6537 143.837 87.6514C143.836 87.6469 143.826 87.5953 143.826 87.4841H138.826H133.826C133.826 88.9324 134.094 90.4205 134.763 91.8359L139.283 89.699ZM145.559 89.3474V94.3474C146.685 94.3474 147.815 94.2086 148.924 93.8948L147.562 89.0837L146.201 84.2727C146.067 84.3105 145.862 84.3474 145.559 84.3474V89.3474ZM147.562 89.0837L148.983 93.8777C150.019 93.5708 151.036 93.1268 151.982 92.5037L149.232 88.3279L146.482 84.152C146.468 84.1618 146.372 84.2217 146.142 84.2897L147.562 89.0837ZM149.232 88.3279L152.052 92.4569C153.08 91.7551 153.987 90.8386 154.664 89.6901L150.357 87.1501L146.051 84.6102C146.115 84.5011 146.187 84.408 146.258 84.3337C146.328 84.2604 146.385 84.2176 146.413 84.1989L149.232 88.3279ZM150.357 87.1501L154.616 89.7706C155.395 88.504 155.779 87.0888 155.779 85.6384H150.779H145.779C145.779 85.4835 145.8 85.2936 145.858 85.0854C145.916 84.8764 146.002 84.6882 146.099 84.5297L150.357 87.1501ZM150.779 85.6384H155.779V85.0232H150.779H145.779V85.6384H150.779ZM150.779 85.0232L151.585 80.0885C150.817 79.9631 150.045 79.8842 149.278 79.8663L149.162 84.865L149.046 89.8636C149.287 89.8692 149.594 89.8958 149.974 89.9579L150.779 85.0232ZM149.162 84.865L149.278 79.8663C148.747 79.854 148.261 79.8474 147.826 79.8474V84.8474V89.8474C148.165 89.8474 148.57 89.8526 149.046 89.8636L149.162 84.865ZM147.826 84.8474V79.8474C145.755 79.8474 143.464 80.0953 141.502 81.1014L143.783 85.5505L146.065 89.9996C145.953 90.0569 146.005 90.0069 146.336 89.9493C146.657 89.8934 147.142 89.8474 147.826 89.8474V84.8474ZM143.783 85.5505L141.478 81.1135C139.791 81.9899 137.43 83.9219 137.43 87.2908H142.43H147.43C147.43 88.1295 147.126 88.8783 146.715 89.4069C146.363 89.8598 146.046 90.0094 146.088 89.9876L143.783 85.5505ZM142.43 87.2908H137.43C137.43 89.4633 138.381 91.6412 140.466 93.0115C142.184 94.141 144.127 94.3474 145.559 94.3474V89.3474V84.3474C145.295 84.3474 145.212 84.3243 145.26 84.3347C145.305 84.3445 145.586 84.4105 145.958 84.655C146.364 84.9216 146.789 85.3453 147.085 85.9291C147.371 86.4937 147.43 86.9954 147.43 87.2908H142.43ZM174.932 79.0994V84.0994H179.932V79.0994H174.932ZM168.551 79.0994V74.0994H163.551V79.0994H168.551ZM168.551 88.9255H163.551V93.9255H168.551V88.9255ZM172.295 88.9255H177.295V83.9255H172.295V88.9255ZM172.295 92.1951V97.1951H177.295V92.1951H172.295ZM161.291 92.1951H156.291V97.1951H161.291V92.1951ZM161.291 88.9255V83.9255H156.291V88.9255H161.291ZM164.912 88.9255V93.9255H169.912V88.9255H164.912ZM164.912 79.0994H169.912V74.0994H164.912V79.0994ZM161.291 79.0994H156.291V84.0994H161.291V79.0994ZM161.291 75.8123V70.8123H156.291V75.8123H161.291ZM164.912 75.8123V80.8123H169.912V75.8123H164.912ZM166.986 70.6619L170.238 74.4604L170.247 74.4525L170.256 74.4445L166.986 70.6619ZM174.932 69.0447H179.932V64.5836L175.499 64.077L174.932 69.0447ZM174.932 72.2439L174.434 77.2191L179.932 77.7688V72.2439H174.932ZM170.748 72.3494L171.843 77.2279L171.89 77.2174L171.937 77.2059L170.748 72.3494ZM169.395 72.9998L172.792 76.6686L172.797 76.6637L169.395 72.9998ZM168.727 74.1423L163.906 72.8166L163.89 72.8729L163.876 72.9297L168.727 74.1423ZM168.551 75.8123H163.551V80.8123H168.551V75.8123ZM174.932 75.8123H179.932V70.8123H174.932V75.8123ZM174.932 79.0994V74.0994H168.551V79.0994V84.0994H174.932V79.0994ZM168.551 79.0994H163.551V88.9255H168.551H173.551V79.0994H168.551ZM168.551 88.9255V93.9255H172.295V88.9255V83.9255H168.551V88.9255ZM172.295 88.9255H167.295V92.1951H172.295H177.295V88.9255H172.295ZM172.295 92.1951V87.1951H161.291V92.1951V97.1951H172.295V92.1951ZM161.291 92.1951H166.291V88.9255H161.291H156.291V92.1951H161.291ZM161.291 88.9255V93.9255H164.912V88.9255V83.9255H161.291V88.9255ZM164.912 88.9255H169.912V79.0994H164.912H159.912V88.9255H164.912ZM164.912 79.0994V74.0994H161.291V79.0994V84.0994H164.912V79.0994ZM161.291 79.0994H166.291V75.8123H161.291H156.291V79.0994H161.291ZM161.291 75.8123V80.8123H164.912V75.8123V70.8123H161.291V75.8123ZM164.912 75.8123H169.912C169.912 75.193 170.008 74.8567 170.069 74.705C170.119 74.5793 170.168 74.5204 170.238 74.4604L166.986 70.6619L163.735 66.8633C160.986 69.2163 159.912 72.4766 159.912 75.8123H164.912ZM166.986 70.6619L170.256 74.4445C170.494 74.2389 171.084 73.8689 172.594 73.8689V68.8689V63.8689C169.392 63.8689 166.244 64.6942 163.717 66.8792L166.986 70.6619ZM172.594 68.8689V73.8689C172.78 73.8689 173.008 73.8783 173.279 73.9023L173.719 68.9216L174.158 63.941C173.633 63.8946 173.11 63.8689 172.594 63.8689V68.8689ZM173.719 68.9216L173.279 73.9023C173.634 73.9335 173.995 73.9702 174.364 74.0123L174.932 69.0447L175.499 64.077C175.048 64.0254 174.601 63.98 174.158 63.941L173.719 68.9216ZM174.932 69.0447H169.932V72.2439H174.932H179.932V69.0447H174.932ZM174.932 72.2439L175.429 67.2687C174.597 67.1855 173.789 67.1384 173.016 67.1384V72.1384V77.1384C173.391 77.1384 173.86 77.1617 174.434 77.2191L174.932 72.2439ZM173.016 72.1384V67.1384C171.882 67.1384 170.68 67.2182 169.559 67.4929L170.748 72.3494L171.937 77.2059C171.93 77.2077 172.011 77.1881 172.209 77.1697C172.402 77.1517 172.667 77.1384 173.016 77.1384V72.1384ZM170.748 72.3494L169.653 67.4708C168.479 67.7342 167.141 68.2688 165.992 69.3358L169.395 72.9998L172.797 76.6637C172.304 77.1214 171.868 77.2223 171.843 77.2279L170.748 72.3494ZM169.395 72.9998L165.997 69.331C164.913 70.335 164.249 71.5669 163.906 72.8166L168.727 74.1423L173.548 75.4681C173.462 75.7803 173.243 76.2505 172.792 76.6686L169.395 72.9998ZM168.727 74.1423L163.876 72.9297C163.633 73.9016 163.551 74.8857 163.551 75.8123H168.551H173.551C173.551 75.6393 173.559 75.5156 173.567 75.4348C173.576 75.3533 173.583 75.3306 173.577 75.355L168.727 74.1423ZM168.551 75.8123V80.8123H174.932V75.8123V70.8123H168.551V75.8123ZM174.932 75.8123H169.932V79.0994H174.932H179.932V75.8123H174.932ZM194.76 86.9744L199.73 87.5154L200.213 83.0776L195.859 82.0966L194.76 86.9744ZM192.721 91.0876L196 94.8623L196.003 94.8599L192.721 91.0876ZM182.367 88.7849L177.697 90.5706L177.713 90.6123L177.73 90.6538L182.367 88.7849ZM181.91 79.0994H186.91V74.0994H181.91V79.0994ZM178.201 79.0994H173.201V84.0994H178.201V79.0994ZM178.201 75.8123V70.8123H173.201V75.8123H178.201ZM181.91 75.8123V80.8123H186.91V75.8123H181.91ZM181.91 69.2556V64.2556H176.91V69.2556H181.91ZM185.549 69.2556H190.549V64.2556H185.549V69.2556ZM185.549 75.8123H180.549V80.8123H185.549V75.8123ZM192.422 75.8123H197.422V70.8123H192.422V75.8123ZM192.422 79.0994V84.0994H197.422V79.0994H192.422ZM185.549 79.0994V74.0994H180.549V79.0994H185.549ZM191.561 86.2537L192.659 81.3759L187.208 80.1479L186.591 85.7015L191.561 86.2537ZM194.76 86.9744L189.789 86.4333C189.721 87.0611 189.549 87.2198 189.439 87.3154L192.721 91.0876L196.003 94.8599C198.236 92.9165 199.424 90.3329 199.73 87.5154L194.76 86.9744ZM192.721 91.0876L189.442 87.313C189.315 87.423 189.077 87.5994 188.361 87.5994V92.5994V97.5994C191.137 97.5994 193.806 96.768 196 94.8623L192.721 91.0876ZM188.361 92.5994V87.5994C187.956 87.5994 187.713 87.5344 187.57 87.4777L185.725 92.1248L183.879 96.7718C185.33 97.3479 186.845 97.5994 188.361 97.5994V92.5994ZM185.725 92.1248L187.57 87.4777C187.356 87.3929 187.265 87.315 187.221 87.2709L183.686 90.8064L180.15 94.3419C181.231 95.4228 182.499 96.2238 183.879 96.7718L185.725 92.1248ZM183.686 90.8064L187.221 87.2709C187.164 87.2141 187.086 87.1178 187.005 86.916L182.367 88.7849L177.73 90.6538C178.281 92.0224 179.082 93.2737 180.15 94.3419L183.686 90.8064ZM182.367 88.7849L187.037 86.9992C186.971 86.8263 186.91 86.5708 186.91 86.1833H181.91H176.91C176.91 87.6708 177.154 89.1498 177.697 90.5706L182.367 88.7849ZM181.91 86.1833H186.91V79.0994H181.91H176.91V86.1833H181.91ZM181.91 79.0994V74.0994H178.201V79.0994V84.0994H181.91V79.0994ZM178.201 79.0994H183.201V75.8123H178.201H173.201V79.0994H178.201ZM178.201 75.8123V80.8123H181.91V75.8123V70.8123H178.201V75.8123ZM181.91 75.8123H186.91V69.2556H181.91H176.91V75.8123H181.91ZM181.91 69.2556V74.2556H185.549V69.2556V64.2556H181.91V69.2556ZM185.549 69.2556H180.549V75.8123H185.549H190.549V69.2556H185.549ZM185.549 75.8123V80.8123H192.422V75.8123V70.8123H185.549V75.8123ZM192.422 75.8123H187.422V79.0994H192.422H197.422V75.8123H192.422ZM192.422 79.0994V74.0994H185.549V79.0994V84.0994H192.422V79.0994ZM185.549 79.0994H180.549V86.1833H185.549H190.549V79.0994H185.549ZM185.549 86.1833H180.549C180.549 87.9708 180.984 90.2715 182.787 92.0744L186.322 88.5388L189.858 85.0033C190.629 85.7748 190.549 86.5053 190.549 86.1833H185.549ZM186.322 88.5388L182.787 92.0744C184.388 93.6759 186.417 94.3123 188.361 94.3123V89.3123V84.3123C188.45 84.3123 188.682 84.3264 188.992 84.4439C189.316 84.5667 189.617 84.7625 189.858 85.0033L186.322 88.5388ZM188.361 89.3123V94.3123C190.365 94.3123 192.751 93.6974 194.487 91.6388L190.664 88.4158L186.841 85.1928C187.158 84.8178 187.544 84.5658 187.897 84.4288C188.216 84.3043 188.407 84.3123 188.361 84.3123V89.3123ZM190.664 88.4158L194.487 91.6388C195.684 90.2187 196.337 88.5453 196.53 86.8058L191.561 86.2537L186.591 85.7015C186.592 85.6958 186.601 85.6236 186.647 85.5119C186.695 85.3971 186.763 85.2857 186.841 85.1928L190.664 88.4158ZM191.561 86.2537L190.462 91.1314L193.661 91.8521L194.76 86.9744L195.859 82.0966L192.659 81.3759L191.561 86.2537ZM214.096 75.8123L218.799 77.5094L221.216 70.8123H214.096V75.8123ZM207.029 95.3943L211.716 97.1372L211.724 97.1144L211.732 97.0915L207.029 95.3943ZM197.854 98.488L192.977 97.3844L192.012 101.648L196.108 103.173L197.854 98.488ZM198.609 95.1482L200.353 90.4621L194.995 88.4683L193.733 94.0445L198.609 95.1482ZM199.998 95.5349L200.952 90.6268L200.886 90.614L200.82 90.6029L199.998 95.5349ZM203.355 94.2166L207.974 96.1316L207.977 96.1247L207.98 96.1177L203.355 94.2166ZM204.006 92.6345L208.63 94.5357L209.374 92.7256L208.692 90.8913L204.006 92.6345ZM197.748 75.8123V70.8123H190.553L193.062 77.5555L197.748 75.8123ZM201.527 75.8123L206.227 74.1057L205.031 70.8123H201.527V75.8123ZM206.027 88.2048L201.328 89.9114L206.209 103.355L210.767 89.7981L206.027 88.2048ZM210.193 75.8123V70.8123H206.599L205.454 74.219L210.193 75.8123ZM214.096 75.8123L209.393 74.1151L202.326 93.6971L207.029 95.3943L211.732 97.0915L218.799 77.5094L214.096 75.8123ZM207.029 95.3943L202.343 93.6514C202.222 93.9759 202.132 94.0913 202.133 94.0898C202.135 94.0868 202.16 94.0568 202.21 94.0139C202.262 93.9703 202.329 93.9236 202.408 93.8821L204.727 98.3123L207.045 102.742C209.466 101.476 210.903 99.3238 211.716 97.1372L207.029 95.3943ZM204.727 98.3123L202.408 93.8821C202.26 93.9597 201.89 94.1033 201.123 94.1033V99.1033V104.103C203.145 104.103 205.177 103.719 207.045 102.742L204.727 98.3123ZM201.123 99.1033V94.1033C200.965 94.1033 200.732 94.0875 200.415 94.0335L199.576 98.9626L198.737 103.892C199.522 104.025 200.32 104.103 201.123 104.103V99.1033ZM199.576 98.9626L200.415 94.0335C200.213 93.9992 199.943 93.9309 199.599 93.8026L197.854 98.488L196.108 103.173C196.959 103.491 197.837 103.739 198.737 103.892L199.576 98.9626ZM197.854 98.488L202.73 99.5917L203.486 96.2519L198.609 95.1482L193.733 94.0445L192.977 97.3844L197.854 98.488ZM198.609 95.1482L196.866 99.8343C197.596 100.106 198.372 100.333 199.176 100.467L199.998 95.5349L200.82 90.6029C200.781 90.5964 200.631 90.5654 200.353 90.4621L198.609 95.1482ZM199.998 95.5349L199.044 100.443C199.689 100.569 200.394 100.658 201.123 100.658V95.658V90.658C201.165 90.658 201.172 90.6605 201.139 90.6568C201.107 90.6533 201.046 90.645 200.952 90.6268L199.998 95.5349ZM201.123 95.658V100.658C202.408 100.658 203.862 100.369 205.211 99.4981C206.576 98.6164 207.456 97.3821 207.974 96.1316L203.355 94.2166L198.737 92.3015C198.857 92.012 199.165 91.4984 199.786 91.0971C200.391 90.7066 200.928 90.658 201.123 90.658V95.658ZM203.355 94.2166L207.98 96.1177L208.63 94.5357L204.006 92.6345L199.381 90.7334L198.731 92.3154L203.355 94.2166ZM204.006 92.6345L208.692 90.8913L202.434 74.069L197.748 75.8123L193.062 77.5555L199.32 94.3778L204.006 92.6345ZM197.748 75.8123V80.8123H201.527V75.8123V70.8123H197.748V75.8123ZM201.527 75.8123L196.828 77.5188L201.328 89.9114L206.027 88.2048L210.727 86.4983L206.227 74.1057L201.527 75.8123ZM206.027 88.2048L210.767 89.7981L214.933 77.4055L210.193 75.8123L205.454 74.219L201.288 86.6116L206.027 88.2048ZM210.193 75.8123V80.8123H214.096V75.8123V70.8123H210.193V75.8123ZM253.893 85.1814L258.743 86.3941L259.815 82.1061L255.691 80.5161L253.893 85.1814ZM251.045 90.5779L247.604 86.9498L247.589 86.9647L247.573 86.9798L251.045 90.5779ZM248.689 92.072L246.874 87.4131L246.864 87.4172L246.854 87.4212L248.689 92.072ZM241.535 91.615L238.963 95.9025L238.979 95.9125L238.996 95.9223L241.535 91.615ZM238.793 88.9607L234.566 91.6307L234.582 91.6567L234.599 91.6825L238.793 88.9607ZM237.264 85.1638L232.373 86.206L232.378 86.2294L232.384 86.2527L237.264 85.1638ZM237.264 76.2693L232.382 75.1889L232.378 75.208L232.373 75.2271L237.264 76.2693ZM238.775 72.49L234.574 69.7794L234.564 69.7954L234.553 69.8115L238.775 72.49ZM241.447 69.8708L244.047 74.1418L244.064 74.1316L244.081 74.1212L241.447 69.8708ZM248.373 69.6599L245.784 73.9374L245.826 73.9626L245.868 73.987L248.373 69.6599ZM249.533 70.6267L245.721 73.8616L245.749 73.8947L245.777 73.9273L249.533 70.6267ZM250.254 71.9626L245.438 73.3066L255.254 71.9626H250.254ZM250.254 69.2556V64.2556H245.254V69.2556H250.254ZM253.541 69.2556H258.541V64.2556H253.541V69.2556ZM253.541 77.9392V82.9392H258.541V77.9392H253.541ZM250.254 77.9392H245.254V82.9392H250.254V77.9392ZM249.99 75.8298L245.14 77.0425L245.142 77.0522L245.144 77.0618L249.99 75.8298ZM240.656 77.6404L235.72 76.846L235.715 76.8737L235.711 76.9015L240.656 77.6404ZM240.656 83.8103L235.71 84.541L235.714 84.5685L235.718 84.5959L240.656 83.8103ZM241.482 86.5876L236.96 88.7197L236.966 88.7323L236.972 88.7449L241.482 86.5876ZM249.041 87.8884L245.235 84.6461L245.223 84.6598L245.212 84.6736L249.041 87.8884ZM250.975 84.0564L252.773 79.3911L247.733 77.448L246.185 82.6229L250.975 84.0564ZM253.893 85.1814L249.042 83.9687C248.842 84.7699 248.592 85.4244 248.318 85.9584L252.768 88.24L257.217 90.5216C257.88 89.2274 258.381 87.8429 258.743 86.3941L253.893 85.1814ZM252.768 88.24L248.318 85.9584C248.083 86.4183 247.837 86.7297 247.604 86.9498L251.045 90.5779L254.485 94.206C255.613 93.137 256.515 91.8898 257.217 90.5216L252.768 88.24ZM251.045 90.5779L247.573 86.9798C247.402 87.1446 247.187 87.2914 246.874 87.4131L248.689 92.072L250.505 96.7309C251.997 96.1495 253.352 95.3002 254.517 94.176L251.045 90.5779ZM248.689 92.072L246.854 87.4212C246.657 87.4989 246.274 87.5994 245.613 87.5994V92.5994V97.5994C247.272 97.5994 248.941 97.3483 250.525 96.7228L248.689 92.072ZM245.613 92.5994V87.5994C244.686 87.5994 244.252 87.4126 244.074 87.3077L241.535 91.615L238.996 95.9223C241.045 97.1299 243.329 97.5994 245.613 97.5994V92.5994ZM241.535 91.615L244.108 87.3275C243.655 87.0558 243.293 86.7095 242.987 86.2389L238.793 88.9607L234.599 91.6825C235.723 93.415 237.189 94.8382 238.963 95.9025L241.535 91.615ZM238.793 88.9607L243.02 86.2907C242.654 85.7107 242.348 84.99 242.144 84.0749L237.264 85.1638L232.384 86.2527C232.812 88.1736 233.526 89.9841 234.566 91.6307L238.793 88.9607ZM237.264 85.1638L242.154 84.1216C241.926 83.0512 241.807 81.9189 241.807 80.7166H236.807H231.807C231.807 82.5845 231.992 84.417 232.373 86.206L237.264 85.1638ZM236.807 80.7166H241.807C241.807 79.5142 241.926 78.3819 242.154 77.3115L237.264 76.2693L232.373 75.2271C231.992 77.0161 231.807 78.8486 231.807 80.7166H236.807ZM237.264 76.2693L242.146 77.3497C242.353 76.4116 242.656 75.7068 242.997 75.1685L238.775 72.49L234.553 69.8115C233.512 71.4529 232.807 73.2676 232.382 75.1889L237.264 76.2693ZM238.775 72.49L242.977 75.2006C243.282 74.7271 243.632 74.3945 244.047 74.1418L241.447 69.8708L238.848 65.5999C237.106 66.6597 235.675 68.0732 234.574 69.7794L238.775 72.49ZM241.447 69.8708L244.081 74.1212C244.204 74.0445 244.561 73.8689 245.402 73.8689V68.8689V63.8689C243.126 63.8689 240.846 64.3613 238.814 65.6205L241.447 69.8708ZM245.402 68.8689V73.8689C245.476 73.8689 245.578 73.8778 245.719 73.913L246.932 69.0623L248.144 64.2115C247.254 63.9889 246.337 63.8689 245.402 63.8689V68.8689ZM246.932 69.0623L245.719 73.913C245.76 73.9232 245.775 73.9321 245.784 73.9374L248.373 69.6599L250.962 65.3824C250.08 64.8486 249.134 64.4591 248.144 64.2115L246.932 69.0623ZM248.373 69.6599L245.868 73.987C245.851 73.9771 245.825 73.9604 245.796 73.9361C245.767 73.9117 245.741 73.8859 245.721 73.8616L249.533 70.6267L253.346 67.3918C252.642 66.5625 251.811 65.873 250.878 65.3328L248.373 69.6599ZM249.533 70.6267L245.777 73.9273C245.703 73.8421 245.63 73.74 245.568 73.6247C245.506 73.5096 245.464 73.4002 245.438 73.3066L250.254 71.9626L255.07 70.6187C254.731 69.4033 254.133 68.2865 253.289 67.3261L249.533 70.6267ZM250.254 71.9626H255.254V69.2556H250.254H245.254V71.9626H250.254ZM250.254 69.2556V74.2556H253.541V69.2556V64.2556H250.254V69.2556ZM253.541 69.2556H248.541V77.9392H253.541H258.541V69.2556H253.541ZM253.541 77.9392V72.9392H250.254V77.9392V82.9392H253.541V77.9392ZM250.254 77.9392H255.254C255.254 76.8097 255.114 75.6927 254.836 74.5978L249.99 75.8298L245.144 77.0618C245.218 77.3497 245.254 77.639 245.254 77.9392H250.254ZM249.99 75.8298L254.841 74.6172C254.526 73.3589 253.996 72.1491 253.209 71.052L249.146 73.9666L245.084 76.8811C245.08 76.8762 245.084 76.8799 245.093 76.8992C245.102 76.9194 245.12 76.9644 245.14 77.0425L249.99 75.8298ZM249.146 73.9666L253.209 71.052C252.401 69.9258 251.381 69.0102 250.196 68.323L247.688 72.6482L245.179 76.9733C245.18 76.974 245.164 76.9644 245.139 76.9425C245.115 76.9203 245.096 76.8977 245.084 76.8811L249.146 73.9666ZM247.688 72.6482L250.196 68.323C248.723 67.4687 247.135 67.1384 245.613 67.1384V72.1384V77.1384C245.657 77.1384 245.624 77.143 245.536 77.1214C245.444 77.0988 245.317 77.0537 245.179 76.9733L247.688 72.6482ZM245.613 72.1384V67.1384C243.757 67.1384 241.763 67.6031 240.037 68.9285L243.082 72.8943L246.127 76.86C245.942 77.0026 245.762 77.0813 245.638 77.1184C245.524 77.1523 245.501 77.1384 245.613 77.1384V72.1384ZM243.082 72.8943L240.037 68.9285C238.704 69.9521 237.705 71.2498 237.002 72.6961L241.5 74.8806L245.998 77.0651C246.048 76.9604 246.088 76.906 246.105 76.8838C246.115 76.8722 246.121 76.8661 246.123 76.8638C246.125 76.8614 246.127 76.8605 246.127 76.86L243.082 72.8943ZM241.5 74.8806L237.002 72.6961C236.364 74.0096 235.951 75.4069 235.72 76.846L240.656 77.6404L245.593 78.4348C245.689 77.8348 245.839 77.3923 245.998 77.0651L241.5 74.8806ZM240.656 77.6404L235.711 76.9015C235.522 78.1657 235.428 79.4381 235.428 80.7166H240.428H245.428C245.428 79.9325 245.486 79.1541 245.601 78.3793L240.656 77.6404ZM240.428 80.7166H235.428C235.428 81.995 235.522 83.2705 235.71 84.541L240.656 83.8103L245.603 83.0796C245.486 82.2876 245.428 81.5006 245.428 80.7166H240.428ZM240.656 83.8103L235.718 84.5959C235.946 86.0244 236.344 87.4136 236.96 88.7197L241.482 86.5876L246.005 84.4556C245.847 84.1211 245.695 83.6587 245.594 83.0247L240.656 83.8103ZM241.482 86.5876L236.972 88.7449C237.679 90.2235 238.701 91.5275 240.053 92.548L243.064 88.5564L246.076 84.5648C246.074 84.5632 246.072 84.5624 246.066 84.5543C246.058 84.5451 246.031 84.5096 245.993 84.4304L241.482 86.5876ZM243.064 88.5564L240.053 92.548C241.774 93.8462 243.753 94.3123 245.613 94.3123V89.3123V84.3123C245.502 84.3123 245.519 84.2985 245.624 84.3296C245.739 84.3636 245.904 84.4356 246.076 84.5648L243.064 88.5564ZM245.613 89.3123V94.3123C248.252 94.3123 250.932 93.4127 252.87 91.1033L249.041 87.8884L245.212 84.6736C245.261 84.6145 245.331 84.5461 245.42 84.4809C245.509 84.4156 245.595 84.3691 245.668 84.3388C245.815 84.2779 245.83 84.3123 245.613 84.3123V89.3123ZM249.041 87.8884L252.847 91.1308C254.232 89.5051 255.15 87.5439 255.765 85.4899L250.975 84.0564L246.185 82.6229C245.838 83.7799 245.467 84.3733 245.235 84.6461L249.041 87.8884ZM250.975 84.0564L249.176 88.7217L252.094 89.8467L253.893 85.1814L255.691 80.5161L252.773 79.3911L250.975 84.0564ZM272.789 79.697L270.602 84.1932L275.494 86.5731L277.453 81.4981L272.789 79.697ZM271.453 79.2224L270.181 84.0578L270.254 84.0772L270.329 84.0944L271.453 79.2224ZM267.621 79.4158L269.202 84.1592L269.225 84.1514L269.249 84.1435L267.621 79.4158ZM264.58 82.2986L259.943 80.4287L259.935 80.4483L259.927 80.468L264.58 82.2986ZM264.158 88.9255H259.158V93.9255H264.158V88.9255ZM267.832 88.9255H272.832V83.9255H267.832V88.9255ZM267.832 92.1951V97.1951H272.832V92.1951H267.832ZM256.811 92.1951H251.811V97.1951H256.811V92.1951ZM256.811 88.9255V83.9255H251.811V88.9255H256.811ZM260.52 88.9255V93.9255H265.52V88.9255H260.52ZM260.52 79.0994H265.52V74.0994H260.52V79.0994ZM256.811 79.0994H251.811V84.0994H256.811V79.0994ZM256.811 75.8123V70.8123H251.811V75.8123H256.811ZM264.158 75.8123H269.158V70.8123H264.158V75.8123ZM264.158 79.9255H259.158L268.856 81.6369L264.158 79.9255ZM266.795 76.4451L264.286 72.1199L264.277 72.1254L264.267 72.1309L266.795 76.4451ZM274.16 76.1462L278.824 77.9473L280.447 73.7445L276.436 71.6941L274.16 76.1462ZM272.789 79.697L274.976 75.2008C274.213 74.8296 273.412 74.5431 272.577 74.3505L271.453 79.2224L270.329 84.0944C270.408 84.1127 270.498 84.1426 270.602 84.1932L272.789 79.697ZM271.453 79.2224L272.726 74.387C271.77 74.1356 270.811 74.0466 269.906 74.0466V79.0466V84.0466C270.034 84.0466 270.12 84.0531 270.168 84.0586C270.216 84.0641 270.218 84.0675 270.181 84.0578L271.453 79.2224ZM269.906 79.0466V74.0466C268.582 74.0466 267.267 74.2495 265.994 74.6881L267.621 79.4158L269.249 84.1435C269.404 84.0898 269.613 84.0466 269.906 84.0466V79.0466ZM267.621 79.4158L266.04 74.6724C264.693 75.1214 263.451 75.8358 262.384 76.83L265.793 80.488L269.202 84.1461C269.197 84.1503 269.191 84.1555 269.184 84.1608C269.177 84.166 269.171 84.17 269.166 84.1725C269.162 84.175 269.162 84.1748 269.167 84.1727C269.171 84.1705 269.183 84.1657 269.202 84.1592L267.621 79.4158ZM265.793 80.488L262.384 76.83C261.276 77.8626 260.479 79.0997 259.943 80.4287L264.58 82.2986L269.217 84.1684C269.231 84.1341 269.242 84.1113 269.249 84.0982C269.256 84.0852 269.259 84.0811 269.257 84.0838C269.255 84.0867 269.249 84.0949 269.239 84.1067C269.229 84.1186 269.217 84.1321 269.202 84.1461L265.793 80.488ZM264.58 82.2986L259.927 80.468C259.362 81.9044 259.158 83.405 259.158 84.8474H264.158H269.158C269.158 84.3211 269.236 84.1224 269.233 84.1292L264.58 82.2986ZM264.158 84.8474H259.158V88.9255H264.158H269.158V84.8474H264.158ZM264.158 88.9255V93.9255H267.832V88.9255V83.9255H264.158V88.9255ZM267.832 88.9255H262.832V92.1951H267.832H272.832V88.9255H267.832ZM267.832 92.1951V87.1951H256.811V92.1951V97.1951H267.832V92.1951ZM256.811 92.1951H261.811V88.9255H256.811H251.811V92.1951H256.811ZM256.811 88.9255V93.9255H260.52V88.9255V83.9255H256.811V88.9255ZM260.52 88.9255H265.52V79.0994H260.52H255.52V88.9255H260.52ZM260.52 79.0994V74.0994H256.811V79.0994V84.0994H260.52V79.0994ZM256.811 79.0994H261.811V75.8123H256.811H251.811V79.0994H256.811ZM256.811 75.8123V80.8123H264.158V75.8123V70.8123H256.811V75.8123ZM264.158 75.8123H259.158V79.9255H264.158H269.158V75.8123H264.158ZM264.158 79.9255L268.856 81.6369C269.017 81.1952 269.166 80.9562 269.251 80.8442C269.327 80.7438 269.354 80.7408 269.322 80.7592L266.795 76.4451L264.267 72.1309C261.836 73.5556 260.336 75.8111 259.46 78.2141L264.158 79.9255ZM266.795 76.4451L269.304 80.7702C269.583 80.6081 270.073 80.4255 270.961 80.4255V75.4255V70.4255C268.638 70.4255 266.351 70.9226 264.286 72.1199L266.795 76.4451ZM270.961 75.4255V80.4255C271.116 80.4255 271.328 80.4418 271.603 80.4945L272.543 75.5837L273.483 70.673C272.657 70.5147 271.813 70.4255 270.961 70.4255V75.4255ZM272.543 75.5837L271.603 80.4945C271.664 80.5062 271.755 80.532 271.885 80.5984L274.16 76.1462L276.436 71.6941C275.511 71.2214 274.524 70.8722 273.483 70.673L272.543 75.5837ZM274.16 76.1462L269.496 74.3452L268.125 77.8959L272.789 79.697L277.453 81.4981L278.824 77.9473L274.16 76.1462ZM292.652 87.5017L287.999 85.6718L287.99 85.6946L287.982 85.7174L292.652 87.5017ZM278.449 90.2087L274.886 93.7168L274.914 93.7444L274.941 93.7716L278.449 90.2087ZM276.709 87.5017L272.038 89.286L272.047 89.3089L272.056 89.3316L276.709 87.5017ZM276.709 80.5759L272.042 78.781L272.037 78.795L272.032 78.8089L276.709 80.5759ZM278.449 77.8337L274.887 74.3253L274.886 74.3257L278.449 77.8337ZM281.174 76.0583L282.986 80.7184L283.008 80.7097L283.031 80.7007L281.174 76.0583ZM288.205 76.0583L286.348 80.7007L286.37 80.7097L286.393 80.7184L288.205 76.0583ZM290.912 77.8337L287.323 81.3145L287.349 81.3421L287.377 81.3693L290.912 77.8337ZM292.652 80.5759L287.969 82.3259L287.98 82.3571L287.992 82.3882L292.652 80.5759ZM289.295 81.9294L284.552 83.5106L284.568 83.561L284.586 83.6111L289.295 81.9294ZM286.729 79.1169L284.633 83.6567L284.685 83.6808L284.738 83.7037L286.729 79.1169ZM282.598 79.1169L284.62 83.6896L284.657 83.6735L284.693 83.6567L282.598 79.1169ZM280.066 81.9294L275.348 80.274L275.34 80.2984L275.332 80.323L280.066 81.9294ZM280.066 86.1306L275.35 87.7901L275.363 87.8288L275.378 87.8672L280.066 86.1306ZM282.598 88.9255L280.575 93.4982L280.612 93.5146L280.649 93.5304L282.598 88.9255ZM286.729 88.9255L288.677 93.5304L288.698 93.5214L288.719 93.5123L286.729 88.9255ZM289.295 86.1306L284.606 84.394L284.592 84.4324L284.578 84.4711L289.295 86.1306ZM293.268 84.0212H288.268C288.268 84.759 288.15 85.2873 287.999 85.6718L292.652 87.5017L297.305 89.3316C297.975 87.6301 298.268 85.8381 298.268 84.0212H293.268ZM292.652 87.5017L287.982 85.7174C287.825 86.1278 287.623 86.4271 287.377 86.6732L290.912 90.2087L294.448 93.7443C295.725 92.4669 296.683 90.9616 297.323 89.286L292.652 87.5017ZM290.912 90.2087L287.377 86.6732C287.139 86.9111 286.819 87.1357 286.348 87.3242L288.205 91.9666L290.062 96.6089C291.7 95.9537 293.186 95.0063 294.448 93.7443L290.912 90.2087ZM288.205 91.9666L286.348 87.3242C285.963 87.4781 285.428 87.5994 284.672 87.5994V92.5994V97.5994C286.517 97.5994 288.337 97.2988 290.062 96.6089L288.205 91.9666ZM284.672 92.5994V87.5994C283.952 87.5994 283.426 87.4822 283.031 87.3242L281.174 91.9666L279.317 96.6089C281.031 97.2947 282.837 97.5994 284.672 97.5994V92.5994ZM281.174 91.9666L283.031 87.3242C282.554 87.1333 282.217 86.9013 281.957 86.6459L278.449 90.2087L274.941 93.7716C276.205 95.0162 277.685 95.9561 279.317 96.6089L281.174 91.9666ZM278.449 90.2087L282.012 86.7007C281.758 86.4423 281.538 86.1186 281.362 85.6718L276.709 87.5017L272.056 89.3316C272.7 90.9708 273.641 92.4517 274.886 93.7168L278.449 90.2087ZM276.709 87.5017L281.38 85.7174C281.228 85.32 281.111 84.7756 281.111 84.0212H276.111H271.111C271.111 85.8216 271.393 87.5975 272.038 89.286L276.709 87.5017ZM276.111 84.0212H281.111C281.111 83.3213 281.222 82.7782 281.386 82.3429L276.709 80.5759L272.032 78.8089C271.399 80.483 271.111 82.2368 271.111 84.0212H276.111ZM276.709 80.5759L281.376 82.3708C281.557 81.9004 281.776 81.5812 282.012 81.3418L278.449 77.8337L274.886 74.3257C273.622 75.6097 272.682 77.1186 272.042 78.781L276.709 80.5759ZM278.449 77.8337L282.012 81.3422C282.257 81.0933 282.561 80.8837 282.986 80.7184L281.174 76.0583L279.362 71.3983C277.677 72.0533 276.165 73.0273 274.887 74.3253L278.449 77.8337ZM281.174 76.0583L283.031 80.7007C283.426 80.5427 283.952 80.4255 284.672 80.4255V75.4255V70.4255C282.837 70.4255 281.031 70.7302 279.317 71.416L281.174 76.0583ZM284.672 75.4255V80.4255C285.428 80.4255 285.963 80.5468 286.348 80.7007L288.205 76.0583L290.062 71.416C288.337 70.7261 286.517 70.4255 284.672 70.4255V75.4255ZM288.205 76.0583L286.393 80.7184C286.812 80.8813 287.098 81.0833 287.323 81.3145L290.912 77.8337L294.502 74.353C293.226 73.0373 291.708 72.0557 290.017 71.3983L288.205 76.0583ZM290.912 77.8337L287.377 81.3693C287.604 81.5963 287.806 81.8911 287.969 82.3259L292.652 80.5759L297.336 78.826C296.702 77.1279 295.744 75.5946 294.448 74.2982L290.912 77.8337ZM292.652 80.5759L287.992 82.3882C288.157 82.8111 288.268 83.3383 288.268 84.0212H293.268H298.268C298.268 82.2198 297.968 80.4501 297.312 78.7637L292.652 80.5759ZM289.646 84.0212H294.646C294.646 82.7442 294.442 81.4751 294.004 80.2478L289.295 81.9294L284.586 83.6111C284.617 83.6962 284.646 83.8217 284.646 84.0212H289.646ZM289.295 81.9294L294.038 80.3483C293.614 79.0761 292.945 77.8709 291.981 76.8292L288.311 80.2244L284.64 83.6196C284.597 83.5735 284.568 83.531 284.552 83.5021C284.536 83.4744 284.539 83.473 284.552 83.5106L289.295 81.9294ZM288.311 80.2244L291.981 76.8292C291.048 75.8206 289.938 75.0591 288.719 74.5302L286.729 79.1169L284.738 83.7037C284.756 83.7117 284.748 83.7098 284.723 83.6921C284.697 83.674 284.667 83.6489 284.64 83.6196L288.311 80.2244ZM286.729 79.1169L288.824 74.5771C287.474 73.9543 286.059 73.6951 284.672 73.6951V78.6951V83.6951C284.745 83.6951 284.768 83.7017 284.753 83.6986C284.745 83.697 284.73 83.6934 284.708 83.6864C284.687 83.6794 284.661 83.6697 284.633 83.6567L286.729 79.1169ZM284.672 78.6951V73.6951C283.285 73.6951 281.862 73.9498 280.502 74.5771L282.598 79.1169L284.693 83.6567C284.662 83.671 284.635 83.6813 284.613 83.6885C284.59 83.6957 284.576 83.699 284.57 83.7002C284.558 83.7026 284.588 83.6951 284.672 83.6951V78.6951ZM282.598 79.1169L280.575 74.5443C279.358 75.0826 278.254 75.8572 277.334 76.8795L281.051 80.2244L284.767 83.5692C284.735 83.605 284.699 83.6368 284.664 83.6615C284.631 83.6857 284.612 83.6931 284.62 83.6896L282.598 79.1169ZM281.051 80.2244L277.334 76.8795C276.419 77.8964 275.775 79.0585 275.348 80.274L280.066 81.9294L284.784 83.5849C284.807 83.5211 284.821 83.4973 284.818 83.5021C284.817 83.5043 284.812 83.5122 284.804 83.5246C284.795 83.537 284.783 83.5522 284.767 83.5692L281.051 80.2244ZM280.066 81.9294L275.332 80.323C274.922 81.5295 274.732 82.7724 274.732 84.0212H279.732H284.732C284.732 83.7935 284.765 83.6419 284.801 83.5359L280.066 81.9294ZM279.732 84.0212H274.732C274.732 85.2749 274.913 86.5495 275.35 87.7901L280.066 86.1306L284.783 84.4711C284.774 84.4461 284.732 84.3144 284.732 84.0212H279.732ZM280.066 86.1306L275.378 87.8672C275.813 89.0413 276.446 90.1345 277.294 91.0995L281.051 87.8005L284.808 84.5015C284.806 84.4993 284.802 84.4948 284.796 84.4836C284.789 84.472 284.774 84.4444 284.755 84.394L280.066 86.1306ZM281.051 87.8005L277.294 91.0995C278.215 92.1485 279.331 92.9477 280.575 93.4982L282.598 88.9255L284.62 84.3529C284.625 84.355 284.653 84.3684 284.695 84.3985C284.737 84.4289 284.776 84.4649 284.808 84.5015L281.051 87.8005ZM282.598 88.9255L280.649 93.5304C281.97 94.0892 283.341 94.3123 284.672 94.3123V89.3123V84.3123C284.563 84.3123 284.505 84.3031 284.49 84.3003C284.476 84.2977 284.499 84.3007 284.546 84.3207L282.598 88.9255ZM284.672 89.3123V94.3123C286.003 94.3123 287.365 94.0854 288.677 93.5304L286.729 88.9255L284.78 84.3207C284.822 84.3029 284.844 84.2998 284.833 84.3017C284.822 84.3039 284.771 84.3123 284.672 84.3123V89.3123ZM286.729 88.9255L288.719 93.5123C289.965 92.9716 291.088 92.1859 292.023 91.1504L288.311 87.8005L284.599 84.4507C284.626 84.4204 284.659 84.3911 284.692 84.3674C284.725 84.344 284.744 84.3362 284.738 84.3388L286.729 88.9255ZM288.311 87.8005L292.023 91.1504C292.916 90.1605 293.577 89.024 294.011 87.7901L289.295 86.1306L284.578 84.4711C284.574 84.4829 284.571 84.4889 284.571 84.49C284.57 84.4911 284.572 84.4886 284.574 84.4836C284.577 84.4786 284.581 84.4726 284.586 84.4661C284.591 84.4597 284.595 84.4545 284.599 84.4507L288.311 87.8005ZM289.295 86.1306L293.984 87.8672C294.452 86.6037 294.646 85.3019 294.646 84.0212H289.646H284.646C284.646 84.2874 284.607 84.3919 284.606 84.394L289.295 86.1306ZM311.883 89.8572L315.418 93.3927L318.437 90.3741L315.929 86.9196L311.883 89.8572ZM308.543 92.0193L306.976 87.2711L306.969 87.2735L306.962 87.2759L308.543 92.0193ZM301.02 91.9841L299.291 96.6758L299.299 96.6788L299.307 96.6817L301.02 91.9841ZM298.172 90.2615L294.691 93.851L294.719 93.8777L294.747 93.9041L298.172 90.2615ZM296.379 87.5544L291.719 89.3667L291.728 89.3891L291.737 89.4114L296.379 87.5544ZM296.379 80.5759L291.73 78.7366L291.724 78.7501L291.719 78.7637L296.379 80.5759ZM298.066 77.8513L294.42 74.4297L294.419 74.4316L298.066 77.8513ZM300.58 76.0759L302.59 80.6541L302.613 80.6439L302.637 80.6335L300.58 76.0759ZM308.385 78.1853L303.768 80.1041L313.385 78.1853H308.385ZM308.385 75.8123V70.8123H303.385V75.8123H308.385ZM311.637 75.8123H316.637V70.8123H311.637V75.8123ZM311.637 83.4412V88.4412H316.637V83.4412H311.637ZM308.385 83.4412H303.385V88.4412H308.385V83.4412ZM307.189 79.9958L303.483 83.3517L303.507 83.378L303.531 83.4039L307.189 79.9958ZM302.514 79.0115L304.214 83.7134L304.242 83.7034L304.269 83.6931L302.514 79.0115ZM300.984 79.9607L297.589 76.2902L297.566 76.3116L297.543 76.3334L300.984 79.9607ZM299.824 86.3943L295.245 88.4026L295.252 88.4176L295.259 88.4325L299.824 86.3943ZM300.967 88.0291L297.572 91.6995L297.619 91.7435L297.668 91.7863L300.967 88.0291ZM302.654 88.9958L301.022 93.7218L301.073 93.7395L301.124 93.756L302.654 88.9958ZM307.752 88.7673L309.684 93.379L309.699 93.3727L309.714 93.3662L307.752 88.7673ZM310.02 87.2908L314.066 84.3532L310.69 79.7038L306.551 83.6892L310.02 87.2908ZM311.883 89.8572L308.347 86.3216C307.731 86.9378 307.267 87.1752 306.976 87.2711L308.543 92.0193L310.11 96.7674C312.163 96.0899 313.925 94.886 315.418 93.3927L311.883 89.8572ZM308.543 92.0193L306.962 87.2759C306.365 87.4748 305.645 87.5994 304.764 87.5994V92.5994V97.5994C306.601 97.5994 308.401 97.3372 310.124 96.7627L308.543 92.0193ZM304.764 92.5994V87.5994C303.893 87.5994 303.235 87.4699 302.732 87.2866L301.02 91.9841L299.307 96.6817C301.054 97.3187 302.892 97.5994 304.764 97.5994V92.5994ZM301.02 91.9841L302.748 87.2924C302.201 87.0909 301.846 86.8526 301.597 86.6189L298.172 90.2615L294.747 93.9041C296.069 95.1469 297.611 96.057 299.291 96.6758L301.02 91.9841ZM298.172 90.2615L301.653 86.672C301.411 86.4378 301.197 86.1356 301.021 85.6975L296.379 87.5544L291.737 89.4114C292.405 91.0827 293.386 92.5851 294.691 93.851L298.172 90.2615ZM296.379 87.5544L301.039 85.7422C300.884 85.3449 300.764 84.7936 300.764 84.0212H295.764H290.764C290.764 85.8504 291.053 87.6546 291.719 89.3667L296.379 87.5544ZM295.764 84.0212H300.764C300.764 83.3383 300.874 82.8111 301.039 82.3882L296.379 80.5759L291.719 78.7637C291.063 80.4501 290.764 82.2198 290.764 84.0212H295.764ZM296.379 80.5759L301.028 82.4152C301.245 81.8665 301.488 81.5119 301.714 81.271L298.066 77.8513L294.419 74.4316C293.238 75.6908 292.356 77.1525 291.73 78.7366L296.379 80.5759ZM298.066 77.8513L301.712 81.2729C301.963 81.0055 302.244 80.8061 302.59 80.6541L300.58 76.0759L298.57 71.4977C296.994 72.1895 295.599 73.1737 294.42 74.4297L298.066 77.8513ZM300.58 76.0759L302.637 80.6335C302.936 80.4982 303.253 80.4255 303.639 80.4255V75.4255V70.4255C301.868 70.4255 300.146 70.7864 298.524 71.5184L300.58 76.0759ZM303.639 75.4255V80.4255C303.854 80.4255 303.986 80.448 304.052 80.4638C304.114 80.4787 304.129 80.4902 304.12 80.4849L306.574 76.1287L309.028 71.7724C307.324 70.8121 305.47 70.4255 303.639 70.4255V75.4255ZM306.574 76.1287L304.12 80.4849C304.07 80.4565 303.984 80.3956 303.898 80.2982C303.813 80.202 303.776 80.1234 303.768 80.1041L308.385 78.1853L313.002 76.2665C312.209 74.3588 310.858 72.8029 309.028 71.7724L306.574 76.1287ZM308.385 78.1853H313.385V75.8123H308.385H303.385V78.1853H308.385ZM308.385 75.8123V80.8123H311.637V75.8123V70.8123H308.385V75.8123ZM311.637 75.8123H306.637V83.4412H311.637H316.637V75.8123H311.637ZM311.637 83.4412V78.4412H308.385V83.4412V88.4412H311.637V83.4412ZM308.385 83.4412H313.385C313.385 81.0442 312.697 78.5726 310.848 76.5878L307.189 79.9958L303.531 83.4039C303.489 83.3594 303.451 83.3078 303.418 83.2538C303.386 83.2002 303.369 83.1584 303.362 83.1376C303.348 83.0972 303.385 83.1774 303.385 83.4412H308.385ZM307.189 79.9958L310.896 76.64C309.079 74.6334 306.661 73.6951 304.113 73.6951V78.6951V83.6951C304.168 83.6951 304.066 83.7025 303.884 83.6255C303.693 83.5444 303.553 83.4296 303.483 83.3517L307.189 79.9958ZM304.113 78.6951V73.6951C302.907 73.6951 301.777 73.9478 300.758 74.3298L302.514 79.0115L304.269 83.6931C304.376 83.6532 304.312 83.6951 304.113 83.6951V78.6951ZM302.514 79.0115L300.813 74.3096C299.579 74.7558 298.504 75.4443 297.589 76.2902L300.984 79.9607L304.38 83.6312C304.395 83.6169 304.388 83.6263 304.355 83.6464C304.322 83.6671 304.274 83.6918 304.214 83.7134L302.514 79.0115ZM300.984 79.9607L297.543 76.3334C296.55 77.2752 295.82 78.3815 295.293 79.538L299.842 81.613L304.391 83.6881C304.432 83.5973 304.461 83.5533 304.468 83.5427C304.475 83.5333 304.462 83.5531 304.426 83.588L300.984 79.9607ZM299.842 81.613L295.293 79.538C294.621 81.0114 294.385 82.559 294.385 84.0212H299.385H304.385C304.385 83.6085 304.454 83.5506 304.391 83.6881L299.842 81.613ZM299.385 84.0212H294.385C294.385 85.4572 294.614 86.9628 295.245 88.4026L299.824 86.3943L304.403 84.386C304.449 84.4898 304.385 84.4134 304.385 84.0212H299.385ZM299.824 86.3943L295.259 88.4325C295.793 89.629 296.548 90.7524 297.572 91.6995L300.967 88.0291L304.362 84.3586C304.381 84.3757 304.396 84.3916 304.407 84.4049C304.419 84.4181 304.425 84.4273 304.428 84.4308C304.433 84.4382 304.417 84.4177 304.39 84.356L299.824 86.3943ZM300.967 88.0291L297.668 91.7863C298.667 92.6639 299.805 93.3016 301.022 93.7218L302.654 88.9958L304.287 84.2699C304.266 84.2625 304.252 84.2566 304.244 84.2531C304.236 84.2495 304.233 84.2479 304.235 84.2487C304.236 84.2496 304.24 84.2522 304.247 84.2566C304.253 84.261 304.259 84.2662 304.266 84.2719L300.967 88.0291ZM302.654 88.9958L301.124 93.756C302.276 94.1264 303.467 94.3123 304.676 94.3123V89.3123V84.3123C304.502 84.3123 304.345 84.2872 304.184 84.2357L302.654 88.9958ZM304.676 89.3123V94.3123C306.357 94.3123 308.069 94.0557 309.684 93.379L307.752 88.7673L305.82 84.1556C305.701 84.2056 305.362 84.3123 304.676 84.3123V89.3123ZM307.752 88.7673L309.714 93.3662C311.102 92.7739 312.381 91.9584 313.488 90.8924L310.02 87.2908L306.551 83.6892C306.393 83.8419 306.159 84.0107 305.79 84.1684L307.752 88.7673ZM310.02 87.2908L305.973 90.2283L307.837 92.7947L311.883 89.8572L315.929 86.9196L314.066 84.3532L310.02 87.2908ZM331.289 92.1951V97.1951H336.289V92.1951H331.289ZM327.65 92.1951H322.65V97.1951H327.65V92.1951ZM321.533 80.3298L317.6 77.2426L317.59 77.2557L317.58 77.269L321.533 80.3298ZM320.268 92.1951V97.1951H325.268V92.1951H320.268ZM316.629 92.1951H311.629V97.1951H316.629V92.1951ZM316.629 69.2556V64.2556H311.629V69.2556H316.629ZM320.268 69.2556H325.268V64.2556H320.268V69.2556ZM320.268 79.9255H315.268L325.111 81.1665L320.268 79.9255ZM322.289 76.6208L325.407 80.5297L325.421 80.5185L325.435 80.5071L322.289 76.6208ZM331.289 92.1951V87.1951H327.65V92.1951V97.1951H331.289V92.1951ZM327.65 92.1951H332.65V82.0876H327.65H322.65V92.1951H327.65ZM327.65 82.0876H332.65C332.65 80.5082 332.418 77.898 330.508 75.9407L326.93 79.4333L323.352 82.926C322.832 82.3932 322.676 81.892 322.645 81.7762C322.614 81.661 322.65 81.7321 322.65 82.0876H327.65ZM326.93 79.4333L330.508 75.9407C328.807 74.1989 326.639 73.6951 324.838 73.6951V78.6951V83.6951C324.857 83.6951 324.677 83.6988 324.382 83.5946C324.063 83.4819 323.687 83.2693 323.352 82.926L326.93 79.4333ZM324.838 78.6951V73.6951C321.906 73.6951 319.372 74.9847 317.6 77.2426L321.533 80.3298L325.466 83.4171C325.492 83.384 325.417 83.487 325.218 83.5854C325.015 83.6858 324.858 83.6951 324.838 83.6951V78.6951ZM321.533 80.3298L317.58 77.269C315.835 79.5224 315.268 82.2462 315.268 84.8474H320.268H325.268C325.268 83.6049 325.544 83.317 325.487 83.3907L321.533 80.3298ZM320.268 84.8474H315.268V92.1951H320.268H325.268V84.8474H320.268ZM320.268 92.1951V87.1951H316.629V92.1951V97.1951H320.268V92.1951ZM316.629 92.1951H321.629V69.2556H316.629H311.629V92.1951H316.629ZM316.629 69.2556V74.2556H320.268V69.2556V64.2556H316.629V69.2556ZM320.268 69.2556H315.268V79.9255H320.268H325.268V69.2556H320.268ZM320.268 79.9255L325.111 81.1665C325.25 80.6239 325.406 80.5306 325.407 80.5297L322.289 76.6208L319.171 72.712C317.204 74.2814 316.012 76.3912 315.424 78.6846L320.268 79.9255ZM322.289 76.6208L325.435 80.5071C325.452 80.4936 325.463 80.486 325.497 80.4746C325.54 80.4607 325.67 80.4255 325.928 80.4255V75.4255V70.4255C323.508 70.4255 321.139 71.1187 319.143 72.7346L322.289 76.6208ZM325.928 75.4255V80.4255C326.224 80.4255 326.302 80.4729 326.252 80.452C326.228 80.4424 326.193 80.4243 326.156 80.3974C326.119 80.3706 326.099 80.3488 326.095 80.3442L329.865 77.0603L333.636 73.7764C331.581 71.4176 328.794 70.4255 325.928 70.4255V75.4255ZM329.865 77.0603L326.095 80.3442C325.996 80.2309 326.045 80.2252 326.122 80.497C326.203 80.7824 326.289 81.2882 326.289 82.0876H331.289H336.289C336.289 79.2681 335.72 76.1692 333.636 73.7764L329.865 77.0603ZM331.289 82.0876H326.289V92.1951H331.289H336.289V82.0876H331.289ZM338.76 85.3923V80.3923H332.918L333.82 86.1642L338.76 85.3923ZM340.359 88.2048L337.139 92.0294L337.166 92.0522L337.193 92.0746L340.359 88.2048ZM347.057 88.7673L348.989 93.379L349.004 93.3727L349.019 93.3662L347.057 88.7673ZM349.324 87.2908L353.37 84.3532L349.995 79.7038L345.856 83.6892L349.324 87.2908ZM351.188 89.8572L354.723 93.3927L357.742 90.3741L355.234 86.9196L351.188 89.8572ZM347.83 92.0193L346.277 87.2665L346.27 87.2688L346.263 87.2711L347.83 92.0193ZM337.617 90.2087L334.162 93.8231L334.176 93.8365L334.19 93.8497L337.617 90.2087ZM335.736 87.5017L331.138 89.4651L331.147 89.4868L331.157 89.5085L335.736 87.5017ZM335.684 80.5935L331.041 78.7366L331.036 78.7501L331.03 78.7636L335.684 80.5935ZM337.441 77.8689L333.879 74.3605L333.879 74.3609L337.441 77.8689ZM340.166 76.0759L342.023 80.7183L342.045 80.7095L342.067 80.7004L340.166 76.0759ZM347.268 76.1111L345.316 80.7145L345.337 80.7236L345.359 80.7324L347.268 76.1111ZM350.027 78.0623L346.293 81.3872L346.306 81.4014L346.318 81.4155L350.027 78.0623ZM351.838 81.2087L347.117 82.8565L347.12 82.8635L347.122 82.8705L351.838 81.2087ZM352.488 85.3923V90.3923H357.488V85.3923H352.488ZM348.375 82.1931V87.1931H354.342L353.298 81.3179L348.375 82.1931ZM346.74 79.6619L343.834 83.7305L343.852 83.7431L343.869 83.7555L346.74 79.6619ZM340.57 79.6619L343.416 83.7728L343.434 83.7606L343.452 83.7482L340.57 79.6619ZM338.918 82.1931L333.995 81.3179L332.951 87.1931H338.918V82.1931ZM338.76 85.3923L333.82 86.1642C334.186 88.51 335.348 90.5218 337.139 92.0294L340.359 88.2048L343.58 84.3803C343.563 84.3655 343.565 84.3656 343.58 84.3828C343.595 84.4006 343.616 84.4291 343.638 84.4673C343.66 84.5056 343.676 84.5432 343.687 84.5755C343.698 84.6074 343.7 84.6243 343.7 84.6204L338.76 85.3923ZM340.359 88.2048L337.193 92.0746C339.225 93.7369 341.662 94.3123 343.98 94.3123V89.3123V84.3123C343.625 84.3123 343.451 84.2683 343.404 84.254C343.37 84.2438 343.433 84.2595 343.526 84.335L340.359 88.2048ZM343.98 89.3123V94.3123C345.662 94.3123 347.373 94.0557 348.989 93.379L347.057 88.7673L345.125 84.1556C345.006 84.2056 344.666 84.3123 343.98 84.3123V89.3123ZM347.057 88.7673L349.019 93.3662C350.407 92.7739 351.685 91.9584 352.792 90.8924L349.324 87.2908L345.856 83.6892C345.697 83.8419 345.464 84.0107 345.094 84.1684L347.057 88.7673ZM349.324 87.2908L345.278 90.2283L347.141 92.7947L351.188 89.8572L355.234 86.9196L353.37 84.3532L349.324 87.2908ZM351.188 89.8572L347.652 86.3216C347.044 86.9294 346.579 87.1678 346.277 87.2665L347.83 92.0193L349.383 96.772C351.448 96.0973 353.221 94.8943 354.723 93.3927L351.188 89.8572ZM347.83 92.0193L346.263 87.2711C345.658 87.4709 344.911 87.5994 343.98 87.5994V92.5994V97.5994C345.839 97.5994 347.659 97.3411 349.397 96.7674L347.83 92.0193ZM343.98 92.5994V87.5994C343.281 87.5994 342.72 87.4849 342.252 87.3037L340.447 91.9666L338.642 96.6294C340.354 97.292 342.149 97.5994 343.98 97.5994V92.5994ZM340.447 91.9666L342.252 87.3037C341.723 87.0987 341.34 86.8463 341.044 86.5677L337.617 90.2087L334.19 93.8497C335.488 95.0711 336.992 95.9907 338.642 96.6294L340.447 91.9666ZM337.617 90.2087L341.072 86.5944C340.768 86.3041 340.517 85.9534 340.316 85.4949L335.736 87.5017L331.157 89.5085C331.87 91.136 332.872 92.5899 334.162 93.8231L337.617 90.2087ZM335.736 87.5017L340.335 85.5384C340.186 85.1898 340.068 84.7089 340.068 84.0212H335.068H330.068C330.068 85.8883 330.396 87.7277 331.138 89.4651L335.736 87.5017ZM335.068 84.0212H340.068C340.068 83.3375 340.179 82.8236 340.337 82.4234L335.684 80.5935L331.03 78.7636C330.368 80.4494 330.068 82.2206 330.068 84.0212H335.068ZM335.684 80.5935L340.326 82.4505C340.517 81.9732 340.749 81.6363 341.004 81.3769L337.441 77.8689L333.879 74.3609C332.634 75.625 331.694 77.1044 331.041 78.7366L335.684 80.5935ZM337.441 77.8689L341.004 81.3773C341.259 81.1183 341.579 80.8961 342.023 80.7183L340.166 76.0759L338.309 71.4335C336.644 72.0995 335.147 73.0726 333.879 74.3605L337.441 77.8689ZM340.166 76.0759L342.067 80.7004C342.45 80.5429 342.961 80.4255 343.664 80.4255V75.4255V70.4255C341.813 70.4255 339.991 70.7418 338.265 71.4515L340.166 76.0759ZM343.664 75.4255V80.4255C344.405 80.4255 344.931 80.5513 345.316 80.7145L347.268 76.1111L349.219 71.5076C347.448 70.7568 345.571 70.4255 343.664 70.4255V75.4255ZM347.268 76.1111L345.359 80.7324C345.752 80.8946 346.044 81.1069 346.293 81.3872L350.027 78.0623L353.762 74.7373C352.488 73.3066 350.94 72.2182 349.176 71.4898L347.268 76.1111ZM350.027 78.0623L346.318 81.4155C346.585 81.7108 346.873 82.1564 347.117 82.8565L351.838 81.2087L356.559 79.561C355.936 77.7767 355.016 76.1247 353.736 74.709L350.027 78.0623ZM351.838 81.2087L347.122 82.8705C347.335 83.4747 347.488 84.2926 347.488 85.3923H352.488H357.488C357.488 83.3749 357.208 81.4038 356.554 79.547L351.838 81.2087ZM352.488 85.3923V80.3923H338.76V85.3923V90.3923H352.488V85.3923ZM348.375 82.1931L353.298 81.3179C352.871 78.9199 351.561 76.9358 349.611 75.5682L346.74 79.6619L343.869 83.7555C343.844 83.7378 343.736 83.6523 343.625 83.4819C343.514 83.309 343.467 83.1513 343.452 83.0683L348.375 82.1931ZM346.74 79.6619L349.646 75.5932C347.864 74.3203 345.815 73.6951 343.664 73.6951V78.6951V83.6951C343.717 83.6951 343.751 83.6987 343.769 83.7014C343.787 83.7041 343.795 83.7066 343.795 83.7067C343.796 83.7069 343.796 83.7069 343.799 83.7083C343.802 83.7098 343.813 83.7157 343.834 83.7305L346.74 79.6619ZM343.664 78.6951V73.6951C341.513 73.6951 339.47 74.3197 337.689 75.5756L340.57 79.6619L343.452 83.7482C343.478 83.7296 343.495 83.7205 343.503 83.7164C343.511 83.7125 343.516 83.7106 343.521 83.7092C343.524 83.7081 343.564 83.6951 343.664 83.6951V78.6951ZM340.57 79.6619L337.724 75.5509C335.761 76.9103 334.426 78.8965 333.995 81.3179L338.918 82.1931L343.841 83.0683C343.824 83.161 343.774 83.3258 343.659 83.5024C343.545 83.6756 343.436 83.7591 343.416 83.7728L340.57 79.6619ZM338.918 82.1931V87.1931H348.375V82.1931V77.1931H338.918V82.1931ZM371.631 86.9744L376.602 87.5154L377.085 83.0776L372.73 82.0966L371.631 86.9744ZM369.592 91.0876L372.871 94.8623L372.874 94.8599L369.592 91.0876ZM359.238 88.7849L354.568 90.5706L354.584 90.6123L354.601 90.6538L359.238 88.7849ZM358.781 79.0994H363.781V74.0994H358.781V79.0994ZM355.072 79.0994H350.072V84.0994H355.072V79.0994ZM355.072 75.8123V70.8123H350.072V75.8123H355.072ZM358.781 75.8123V80.8123H363.781V75.8123H358.781ZM358.781 69.2556V64.2556H353.781V69.2556H358.781ZM362.42 69.2556H367.42V64.2556H362.42V69.2556ZM362.42 75.8123H357.42V80.8123H362.42V75.8123ZM369.293 75.8123H374.293V70.8123H369.293V75.8123ZM369.293 79.0994V84.0994H374.293V79.0994H369.293ZM362.42 79.0994V74.0994H357.42V79.0994H362.42ZM368.432 86.2537L369.53 81.3759L364.079 80.1479L363.462 85.7015L368.432 86.2537ZM371.631 86.9744L366.66 86.4333C366.592 87.0611 366.42 87.2198 366.31 87.3154L369.592 91.0876L372.874 94.8599C375.107 92.9165 376.295 90.3329 376.602 87.5154L371.631 86.9744ZM369.592 91.0876L366.313 87.313C366.186 87.423 365.949 87.5994 365.232 87.5994V92.5994V97.5994C368.009 97.5994 370.677 96.768 372.871 94.8623L369.592 91.0876ZM365.232 92.5994V87.5994C364.827 87.5994 364.584 87.5344 364.441 87.4777L362.596 92.1248L360.751 96.7718C362.201 97.3479 363.716 97.5994 365.232 97.5994V92.5994ZM362.596 92.1248L364.441 87.4777C364.227 87.3929 364.136 87.315 364.092 87.2709L360.557 90.8064L357.021 94.3419C358.102 95.4228 359.37 96.2238 360.751 96.7718L362.596 92.1248ZM360.557 90.8064L364.092 87.2709C364.035 87.2141 363.957 87.1178 363.876 86.916L359.238 88.7849L354.601 90.6538C355.152 92.0224 355.953 93.2737 357.021 94.3419L360.557 90.8064ZM359.238 88.7849L363.909 86.9992C363.842 86.8263 363.781 86.5708 363.781 86.1833H358.781H353.781C353.781 87.6708 354.025 89.1498 354.568 90.5706L359.238 88.7849ZM358.781 86.1833H363.781V79.0994H358.781H353.781V86.1833H358.781ZM358.781 79.0994V74.0994H355.072V79.0994V84.0994H358.781V79.0994ZM355.072 79.0994H360.072V75.8123H355.072H350.072V79.0994H355.072ZM355.072 75.8123V80.8123H358.781V75.8123V70.8123H355.072V75.8123ZM358.781 75.8123H363.781V69.2556H358.781H353.781V75.8123H358.781ZM358.781 69.2556V74.2556H362.42V69.2556V64.2556H358.781V69.2556ZM362.42 69.2556H357.42V75.8123H362.42H367.42V69.2556H362.42ZM362.42 75.8123V80.8123H369.293V75.8123V70.8123H362.42V75.8123ZM369.293 75.8123H364.293V79.0994H369.293H374.293V75.8123H369.293ZM369.293 79.0994V74.0994H362.42V79.0994V84.0994H369.293V79.0994ZM362.42 79.0994H357.42V86.1833H362.42H367.42V79.0994H362.42ZM362.42 86.1833H357.42C357.42 87.9708 357.855 90.2715 359.658 92.0744L363.193 88.5388L366.729 85.0033C367.5 85.7748 367.42 86.5053 367.42 86.1833H362.42ZM363.193 88.5388L359.658 92.0744C361.259 93.6759 363.288 94.3123 365.232 94.3123V89.3123V84.3123C365.321 84.3123 365.553 84.3264 365.863 84.4439C366.187 84.5667 366.488 84.7625 366.729 85.0033L363.193 88.5388ZM365.232 89.3123V94.3123C367.236 94.3123 369.622 93.6974 371.358 91.6388L367.535 88.4158L363.713 85.1928C364.029 84.8178 364.416 84.5658 364.768 84.4288C365.087 84.3043 365.278 84.3123 365.232 84.3123V89.3123ZM367.535 88.4158L371.358 91.6388C372.555 90.2187 373.208 88.5453 373.401 86.8058L368.432 86.2537L363.462 85.7015C363.463 85.6958 363.472 85.6236 363.518 85.5119C363.566 85.3971 363.634 85.2857 363.713 85.1928L367.535 88.4158ZM368.432 86.2537L367.333 91.1314L370.532 91.8521L371.631 86.9744L372.73 82.0966L369.53 81.3759L368.432 86.2537Z" fill="#F5F5F5" mask="url(#path-2-outside-1_1_675)"/>
</svg>
