<svg width="48" height="47" viewBox="0 0 48 47" fill="none" xmlns="http://www.w3.org/2000/svg">
<path d="M4.80737 4.26118C6.5151 1.94862 9.67298 1.72531 11.7129 3.77284L34.024 26.1673C34.2444 26.3885 34.4827 26.5871 34.7358 26.7605L43.3641 32.6714C45.8223 34.3554 46.4128 37.9966 44.6213 40.4226L44.2752 40.8912C42.7082 43.0134 39.8836 43.4034 37.8224 41.7824L12.0731 21.532C11.7893 21.3088 11.528 21.0528 11.2937 20.7686L4.20536 12.1699C2.61516 10.2409 2.52237 7.35544 3.98675 5.37242L4.80737 4.26118Z" fill="#EE5656"/>
<path d="M5.94846 42.2408C4.06741 39.8924 4.57352 36.2242 7.0109 34.5406L14.6169 29.2867C14.9293 29.071 15.2183 28.8165 15.4782 28.5285L37.4839 4.14049C39.4221 1.99247 42.5896 2.07381 44.387 4.31776C46.251 6.64494 45.8247 10.2646 43.4768 12.0465L34.0243 19.2203C33.7867 19.4006 33.5642 19.604 33.3595 19.828L12.6946 42.4382C10.7907 44.5213 7.70272 44.4309 5.94846 42.2408Z" fill="#EE5656"/>
</svg>
