<svg width="301" height="102" viewBox="0 0 301 102" fill="none" xmlns="http://www.w3.org/2000/svg">
<path d="M3.3199 29.026C1.57584 13.7776 13.8556 0.572642 29.1903 1.20641L157.274 6.5L269.98 1.40288C285.921 0.681959 298.448 14.8773 295.749 30.6047L292.897 47.2308C292.412 50.0559 292.417 52.9433 292.911 55.7668L295.593 71.0947C298.361 86.9151 285.707 101.204 269.668 100.37L147.26 94L29.6251 100.391C14.1463 101.231 1.64136 87.9282 3.43732 72.531L5.55585 54.3683C5.77815 52.4624 5.7803 50.5373 5.56226 48.631L3.3199 29.026Z" fill="#FFA352"/>
<path d="M63.5919 50.5215C63.5919 52.0566 63.4278 53.5215 63.0997 54.916C62.7833 56.2988 62.2676 57.5176 61.5528 58.5723C60.8497 59.6152 59.9356 60.4473 58.8106 61.0684C57.6973 61.6895 56.3497 62 54.7676 62H47.3145V39.0605H54.7676C56.3262 39.0605 57.6622 39.377 58.7755 40.0098C59.9005 40.6309 60.8145 41.4629 61.5176 42.5059C62.2325 43.5488 62.754 44.7617 63.0821 46.1445C63.4219 47.5273 63.5919 48.9863 63.5919 50.5215ZM59.9532 50.5215C59.9532 47.873 59.502 45.8516 58.5997 44.457C57.6973 43.0508 56.42 42.3477 54.7676 42.3477H50.9532V58.7305H54.7676C56.42 58.7305 57.6973 58.0156 58.5997 56.5859C59.502 55.1562 59.9532 53.1348 59.9532 50.5215ZM69.4454 55.1973C69.6212 56.3223 70.1544 57.2598 71.045 58.0098C71.9473 58.748 73.1544 59.1172 74.6661 59.1172C75.8497 59.1172 76.8751 58.9355 77.7422 58.5723C78.6212 58.1973 79.377 57.7051 80.0098 57.0957L81.8731 59.6621C80.8184 60.7168 79.6993 61.4375 78.5157 61.8242C77.3438 62.2109 76.0606 62.4043 74.6661 62.4043C73.4005 62.4043 72.2227 62.1934 71.1329 61.7715C70.043 61.3496 69.0997 60.7637 68.3028 60.0137C67.5059 59.252 66.879 58.3496 66.4219 57.3066C65.9766 56.2637 65.754 55.1035 65.754 53.8262C65.754 52.584 65.959 51.4414 66.3692 50.3984C66.7911 49.3438 67.377 48.4355 68.127 47.6738C68.8887 46.9004 69.7969 46.3027 70.8516 45.8809C71.9063 45.4473 73.0723 45.2305 74.3497 45.2305C75.6739 45.2305 76.8751 45.459 77.9532 45.916C79.0313 46.3613 79.9512 47.0117 80.713 47.8672C81.4864 48.7227 82.0899 49.7715 82.5235 51.0137C82.9571 52.2441 83.1739 53.6387 83.1739 55.1973H69.4454ZM79.0606 51.998C78.8731 50.9434 78.3282 50.0996 77.4258 49.4668C76.5235 48.8223 75.4981 48.5 74.3497 48.5C73.2012 48.5 72.17 48.8223 71.2559 49.4668C70.3419 50.0996 69.7911 50.9434 69.6036 51.998H79.0606ZM101.525 59.6621C100.471 60.7168 99.3575 61.4375 98.1856 61.8242C97.0255 62.2109 95.7657 62.4043 94.4063 62.4043C93.0352 62.4043 91.7872 62.1992 90.6622 61.7891C89.5489 61.3789 88.5997 60.8047 87.8145 60.0664C87.0411 59.3164 86.4434 58.4141 86.0215 57.3594C85.6114 56.3047 85.4063 55.127 85.4063 53.8262C85.4063 52.584 85.6114 51.4355 86.0215 50.3809C86.4434 49.3145 87.0059 48.4062 87.709 47.6562C88.4239 46.8945 89.2618 46.3027 90.2227 45.8809C91.1837 45.4473 92.2032 45.2305 93.2813 45.2305C94.4063 45.2305 95.3848 45.4648 96.2169 45.9336C97.0489 46.4023 97.6524 47.0879 98.0274 47.9902V45.6172H101.279V53.2461H98.0274C98.0274 51.8047 97.629 50.6562 96.8321 49.8008C96.0469 48.9336 95.0215 48.5 93.7559 48.5C93.252 48.5 92.7188 48.6055 92.1563 48.8164C91.6055 49.0156 91.0958 49.332 90.627 49.7656C90.17 50.1992 89.7891 50.75 89.4844 51.418C89.1797 52.0859 89.0274 52.8887 89.0274 53.8262C89.0274 54.7402 89.1739 55.5312 89.4669 56.1992C89.7598 56.8555 90.1407 57.4004 90.6094 57.834C91.0899 58.2559 91.6524 58.5781 92.2969 58.8008C92.9532 59.0117 93.627 59.1172 94.3184 59.1172C95.502 59.1172 96.5274 58.9355 97.3946 58.5723C98.2735 58.1973 99.0294 57.7051 99.6622 57.0957L101.525 59.6621ZM122.215 53.8262C122.215 55.1035 122.01 56.2637 121.6 57.3066C121.201 58.3496 120.621 59.252 119.859 60.0137C119.109 60.7637 118.207 61.3496 117.152 61.7715C116.098 62.1934 114.92 62.4043 113.619 62.4043C112.342 62.4043 111.176 62.1934 110.121 61.7715C109.066 61.3496 108.158 60.7637 107.397 60.0137C106.647 59.252 106.066 58.3496 105.656 57.3066C105.258 56.2637 105.059 55.1035 105.059 53.8262C105.059 52.584 105.258 51.4355 105.656 50.3809C106.066 49.3145 106.647 48.4004 107.397 47.6387C108.158 46.8652 109.066 46.2734 110.121 45.8633C111.176 45.4414 112.342 45.2305 113.619 45.2305C114.92 45.2305 116.098 45.4414 117.152 45.8633C118.207 46.2734 119.109 46.8652 119.859 47.6387C120.621 48.4004 121.201 49.3145 121.6 50.3809C122.01 51.4355 122.215 52.584 122.215 53.8262ZM118.594 53.8262C118.594 53.0879 118.477 52.3906 118.242 51.7344C118.02 51.0664 117.691 50.498 117.258 50.0293C116.824 49.5605 116.297 49.1914 115.676 48.9219C115.066 48.6406 114.381 48.5 113.619 48.5C112.846 48.5 112.154 48.6406 111.545 48.9219C110.936 49.1914 110.42 49.5605 109.998 50.0293C109.576 50.498 109.248 51.0664 109.014 51.7344C108.791 52.3906 108.68 53.0879 108.68 53.8262C108.68 54.5996 108.791 55.3027 109.014 55.9355C109.248 56.5684 109.576 57.125 109.998 57.6055C110.42 58.0859 110.936 58.4609 111.545 58.7305C112.154 58.9883 112.846 59.1172 113.619 59.1172C114.381 59.1172 115.066 58.9883 115.676 58.7305C116.297 58.4609 116.824 58.0859 117.258 57.6055C117.691 57.125 118.02 56.5684 118.242 55.9355C118.477 55.3027 118.594 54.5996 118.594 53.8262ZM141.041 49.502C140.607 49.291 140.162 49.1328 139.705 49.0273C139.26 48.9102 138.744 48.8516 138.158 48.8516C137.35 48.8516 136.588 48.9746 135.873 49.2207C135.17 49.4551 134.561 49.8125 134.045 50.293C133.529 50.7734 133.125 51.377 132.832 52.1035C132.551 52.8184 132.41 53.668 132.41 54.6523V58.7305H136.084V62H125.063V58.7305H128.772V48.9043H125.063V45.6172H132.41V49.7305C133.008 48.0898 133.887 46.9297 135.047 46.25C136.219 45.5703 137.607 45.2305 139.213 45.2305C139.717 45.2305 140.244 45.2832 140.795 45.3887C141.346 45.4941 141.885 45.6816 142.412 45.9512L141.041 49.502ZM144.645 57.2891C144.645 56.3281 144.902 55.4902 145.418 54.7754C145.934 54.0488 146.607 53.4453 147.44 52.9648C148.283 52.4844 149.244 52.127 150.322 51.8926C151.412 51.6465 152.52 51.5234 153.645 51.5234C154.266 51.5234 154.799 51.5352 155.244 51.5586C155.69 51.582 156.141 51.6172 156.598 51.6641V51.0137C156.598 50.1582 156.264 49.5195 155.596 49.0977C154.94 48.6758 154.072 48.4648 152.994 48.4648C152.01 48.4648 151.008 48.6055 149.988 48.8867C148.969 49.1562 148.002 49.5547 147.088 50.082L145.611 47.2344C146.69 46.6133 147.844 46.127 149.074 45.7754C150.316 45.4121 151.623 45.2305 152.994 45.2305C153.885 45.2305 154.758 45.3301 155.613 45.5293C156.481 45.7285 157.254 46.0566 157.934 46.5137C158.625 46.9707 159.176 47.5684 159.586 48.3066C159.996 49.0332 160.201 49.9355 160.201 51.0137V62H156.598V59.5918C156.023 60.4824 155.174 61.1738 154.049 61.666C152.936 62.1582 151.734 62.4043 150.445 62.4043C149.648 62.4043 148.893 62.293 148.178 62.0703C147.475 61.8594 146.865 61.5371 146.35 61.1035C145.834 60.6699 145.418 60.1367 145.102 59.5039C144.797 58.8594 144.645 58.1211 144.645 57.2891ZM151.377 59.1523C152.092 59.1523 152.76 59.0645 153.381 58.8887C154.014 58.7012 154.57 58.4492 155.051 58.1328C155.531 57.8047 155.906 57.4121 156.176 56.9551C156.457 56.498 156.598 55.9941 156.598 55.4434V54.8281C156.023 54.7344 155.484 54.6816 154.981 54.6699C154.477 54.6582 154.031 54.6523 153.645 54.6523C151.863 54.6523 150.516 54.8867 149.602 55.3555C148.699 55.8242 148.248 56.4043 148.248 57.0957C148.248 58.4668 149.291 59.1523 151.377 59.1523ZM180.926 56.7793C180.738 58.502 180.059 59.873 178.887 60.8926C177.727 61.9004 176.273 62.4043 174.527 62.4043C173.566 62.4043 172.688 62.2461 171.891 61.9297C171.094 61.6133 170.414 61.1738 169.852 60.6113C169.289 60.0488 168.85 59.375 168.533 58.5898C168.229 57.793 168.076 56.9258 168.076 55.9883V48.9043H164.367V45.6172H168.076V39.0605H171.715V45.6172H178.588V48.9043H171.715V55.9883C171.715 57.043 171.973 57.8281 172.488 58.3438C173.004 58.8594 173.684 59.1172 174.527 59.1172C175.559 59.1172 176.326 58.8184 176.83 58.2207C177.334 57.623 177.633 56.9023 177.727 56.0586L180.926 56.7793ZM194.426 43.4902H189.996V39.0605H194.426V43.4902ZM197.766 62H186.762V58.7305H190.383V48.9043H186.762V45.6172H194.022V58.7305H197.766V62ZM220.477 53.8262C220.477 55.1035 220.272 56.2637 219.861 57.3066C219.463 58.3496 218.883 59.252 218.121 60.0137C217.371 60.7637 216.469 61.3496 215.414 61.7715C214.359 62.1934 213.182 62.4043 211.881 62.4043C210.604 62.4043 209.438 62.1934 208.383 61.7715C207.328 61.3496 206.42 60.7637 205.658 60.0137C204.908 59.252 204.328 58.3496 203.918 57.3066C203.52 56.2637 203.32 55.1035 203.32 53.8262C203.32 52.584 203.52 51.4355 203.918 50.3809C204.328 49.3145 204.908 48.4004 205.658 47.6387C206.42 46.8652 207.328 46.2734 208.383 45.8633C209.438 45.4414 210.604 45.2305 211.881 45.2305C213.182 45.2305 214.359 45.4414 215.414 45.8633C216.469 46.2734 217.371 46.8652 218.121 47.6387C218.883 48.4004 219.463 49.3145 219.861 50.3809C220.272 51.4355 220.477 52.584 220.477 53.8262ZM216.856 53.8262C216.856 53.0879 216.738 52.3906 216.504 51.7344C216.281 51.0664 215.953 50.498 215.52 50.0293C215.086 49.5605 214.559 49.1914 213.938 48.9219C213.328 48.6406 212.643 48.5 211.881 48.5C211.107 48.5 210.416 48.6406 209.807 48.9219C209.197 49.1914 208.682 49.5605 208.26 50.0293C207.838 50.498 207.51 51.0664 207.275 51.7344C207.053 52.3906 206.941 53.0879 206.941 53.8262C206.941 54.5996 207.053 55.3027 207.275 55.9355C207.51 56.5684 207.838 57.125 208.26 57.6055C208.682 58.0859 209.197 58.4609 209.807 58.7305C210.416 58.9883 211.107 59.1172 211.881 59.1172C212.643 59.1172 213.328 58.9883 213.938 58.7305C214.559 58.4609 215.086 58.0859 215.52 57.6055C215.953 57.125 216.281 56.5684 216.504 55.9355C216.738 55.3027 216.856 54.5996 216.856 53.8262ZM238.846 62H235.207V51.8926C235.207 50.6152 234.967 49.7305 234.486 49.2383C234.006 48.7461 233.309 48.5 232.395 48.5C231.047 48.5 229.945 49.0449 229.09 50.1348C228.246 51.2246 227.824 52.7305 227.824 54.6523V62H224.186V45.6172H227.824V49.7305C228.188 48.3125 228.861 47.2109 229.846 46.4258C230.83 45.6289 232.043 45.2305 233.484 45.2305C235.16 45.2305 236.473 45.7754 237.422 46.8652C238.371 47.9551 238.846 49.6309 238.846 51.8926V62ZM258.92 57.0957C258.92 58.1621 258.68 59.0293 258.199 59.6973C257.719 60.3652 257.098 60.9043 256.336 61.3145C255.586 61.7246 254.742 62.0059 253.805 62.1582C252.879 62.3223 251.971 62.4043 251.08 62.4043C249.592 62.4043 248.109 62.1875 246.633 61.7539C245.156 61.3203 243.879 60.752 242.801 60.0488L244.313 57.0605C245.602 57.8105 246.779 58.3438 247.846 58.6602C248.924 58.9648 250.002 59.1172 251.08 59.1172C252.545 59.1172 253.611 58.9648 254.279 58.6602C254.947 58.3438 255.281 57.9102 255.281 57.3594C255.281 57.0898 255.188 56.8672 255 56.6914C254.813 56.5156 254.502 56.3574 254.068 56.2168C253.635 56.0645 253.061 55.918 252.346 55.7773C251.643 55.625 250.764 55.4668 249.709 55.3027C248.865 55.1621 248.063 54.9922 247.301 54.793C246.551 54.582 245.889 54.2891 245.315 53.9141C244.74 53.5391 244.277 53.0645 243.926 52.4902C243.586 51.916 243.416 51.1953 243.416 50.3281C243.416 49.4492 243.639 48.6875 244.084 48.043C244.541 47.3867 245.133 46.8477 245.859 46.4258C246.598 46.0039 247.424 45.6992 248.338 45.5117C249.252 45.3242 250.166 45.2305 251.08 45.2305C252.369 45.2305 253.617 45.4004 254.824 45.7402C256.043 46.0684 257.109 46.543 258.023 47.1641L256.582 49.9766C255.668 49.4023 254.777 49.0156 253.91 48.8164C253.055 48.6055 252.111 48.5 251.08 48.5C250.647 48.5 250.195 48.5234 249.727 48.5703C249.258 48.6172 248.824 48.7109 248.426 48.8516C248.027 48.9805 247.693 49.1621 247.424 49.3965C247.166 49.6191 247.037 49.8945 247.037 50.2227C247.037 50.6562 247.418 51.0137 248.18 51.2949C248.953 51.5645 250.266 51.834 252.117 52.1035C253.125 52.2441 254.045 52.4258 254.877 52.6484C255.709 52.8594 256.424 53.1523 257.022 53.5273C257.619 53.8906 258.082 54.3652 258.41 54.9512C258.75 55.5254 258.92 56.2402 258.92 57.0957Z" fill="#F5F5F5"/>
</svg>
