<svg width="462" height="102" viewBox="0 0 462 102" fill="none" xmlns="http://www.w3.org/2000/svg">
<path d="M43.1348 3.89648L231.798 9.99902L231.879 10.001L231.96 9.99902L418.907 3.90625C437.627 3.29614 450.921 21.9581 444.228 39.4512C441.504 46.5684 441.498 54.4746 444.172 61.6016C450.895 79.5199 437.288 98.6398 418.211 97.9766L231.965 91.502L231.879 91.498L231.792 91.502L43.8555 97.9854C24.4091 98.6563 10.3212 79.4866 16.6172 61.0283C18.9362 54.2296 18.9288 46.808 16.5664 40.0166C10.2958 21.9898 24.0585 3.27947 43.1348 3.89648Z" fill="#F5F5F5" stroke="#EE5656" stroke-width="5"/>
<path d="M148.247 46.0215C148.247 47.5566 148.083 49.0215 147.754 50.416C147.438 51.7988 146.922 53.0176 146.208 54.0723C145.504 55.1152 144.59 55.9473 143.465 56.5684C142.352 57.1895 141.004 57.5 139.422 57.5H131.969V34.5605H139.422C140.981 34.5605 142.317 34.877 143.43 35.5098C144.555 36.1309 145.469 36.9629 146.172 38.0059C146.887 39.0488 147.409 40.2617 147.737 41.6445C148.077 43.0273 148.247 44.4863 148.247 46.0215ZM144.608 46.0215C144.608 43.373 144.157 41.3516 143.254 39.957C142.352 38.5508 141.075 37.8477 139.422 37.8477H135.608V54.2305H139.422C141.075 54.2305 142.352 53.5156 143.254 52.0859C144.157 50.6562 144.608 48.6348 144.608 46.0215ZM154.1 50.6973C154.276 51.8223 154.809 52.7598 155.7 53.5098C156.602 54.248 157.809 54.6172 159.321 54.6172C160.504 54.6172 161.53 54.4355 162.397 54.0723C163.276 53.6973 164.032 53.2051 164.665 52.5957L166.528 55.1621C165.473 56.2168 164.354 56.9375 163.17 57.3242C161.999 57.7109 160.715 57.9043 159.321 57.9043C158.055 57.9043 156.877 57.6934 155.788 57.2715C154.698 56.8496 153.754 56.2637 152.958 55.5137C152.161 54.752 151.534 53.8496 151.077 52.8066C150.631 51.7637 150.409 50.6035 150.409 49.3262C150.409 48.084 150.614 46.9414 151.024 45.8984C151.446 44.8438 152.032 43.9355 152.782 43.1738C153.543 42.4004 154.452 41.8027 155.506 41.3809C156.561 40.9473 157.727 40.7305 159.004 40.7305C160.329 40.7305 161.53 40.959 162.608 41.416C163.686 41.8613 164.606 42.5117 165.368 43.3672C166.141 44.2227 166.745 45.2715 167.178 46.5137C167.612 47.7441 167.829 49.1387 167.829 50.6973H154.1ZM163.715 47.498C163.528 46.4434 162.983 45.5996 162.081 44.9668C161.178 44.3223 160.153 44 159.004 44C157.856 44 156.825 44.3223 155.911 44.9668C154.997 45.5996 154.446 46.4434 154.258 47.498H163.715ZM186.18 55.1621C185.125 56.2168 184.012 56.9375 182.84 57.3242C181.68 57.7109 180.42 57.9043 179.061 57.9043C177.69 57.9043 176.442 57.6992 175.317 57.2891C174.204 56.8789 173.254 56.3047 172.469 55.5664C171.696 54.8164 171.098 53.9141 170.676 52.8594C170.266 51.8047 170.061 50.627 170.061 49.3262C170.061 48.084 170.266 46.9355 170.676 45.8809C171.098 44.8145 171.661 43.9062 172.364 43.1562C173.079 42.3945 173.917 41.8027 174.877 41.3809C175.838 40.9473 176.858 40.7305 177.936 40.7305C179.061 40.7305 180.04 40.9648 180.872 41.4336C181.704 41.9023 182.307 42.5879 182.682 43.4902V41.1172H185.934V48.7461H182.682C182.682 47.3047 182.284 46.1562 181.487 45.3008C180.702 44.4336 179.676 44 178.411 44C177.907 44 177.374 44.1055 176.811 44.3164C176.26 44.5156 175.75 44.832 175.282 45.2656C174.825 45.6992 174.444 46.25 174.139 46.918C173.834 47.5859 173.682 48.3887 173.682 49.3262C173.682 50.2402 173.829 51.0312 174.122 51.6992C174.415 52.3555 174.795 52.9004 175.264 53.334C175.745 53.7559 176.307 54.0781 176.952 54.3008C177.608 54.5117 178.282 54.6172 178.973 54.6172C180.157 54.6172 181.182 54.4355 182.049 54.0723C182.928 53.6973 183.684 53.2051 184.317 52.5957L186.18 55.1621ZM206.87 49.3262C206.87 50.6035 206.665 51.7637 206.254 52.8066C205.856 53.8496 205.276 54.752 204.514 55.5137C203.764 56.2637 202.862 56.8496 201.807 57.2715C200.752 57.6934 199.575 57.9043 198.274 57.9043C196.997 57.9043 195.831 57.6934 194.776 57.2715C193.721 56.8496 192.813 56.2637 192.051 55.5137C191.301 54.752 190.721 53.8496 190.311 52.8066C189.913 51.7637 189.713 50.6035 189.713 49.3262C189.713 48.084 189.913 46.9355 190.311 45.8809C190.721 44.8145 191.301 43.9004 192.051 43.1387C192.813 42.3652 193.721 41.7734 194.776 41.3633C195.831 40.9414 196.997 40.7305 198.274 40.7305C199.575 40.7305 200.752 40.9414 201.807 41.3633C202.862 41.7734 203.764 42.3652 204.514 43.1387C205.276 43.9004 205.856 44.8145 206.254 45.8809C206.665 46.9355 206.87 48.084 206.87 49.3262ZM203.249 49.3262C203.249 48.5879 203.131 47.8906 202.897 47.2344C202.674 46.5664 202.346 45.998 201.913 45.5293C201.479 45.0605 200.952 44.6914 200.331 44.4219C199.721 44.1406 199.036 44 198.274 44C197.5 44 196.809 44.1406 196.2 44.4219C195.59 44.6914 195.075 45.0605 194.653 45.5293C194.231 45.998 193.903 46.5664 193.668 47.2344C193.446 47.8906 193.334 48.5879 193.334 49.3262C193.334 50.0996 193.446 50.8027 193.668 51.4355C193.903 52.0684 194.231 52.625 194.653 53.1055C195.075 53.5859 195.59 53.9609 196.2 54.2305C196.809 54.4883 197.5 54.6172 198.274 54.6172C199.036 54.6172 199.721 54.4883 200.331 54.2305C200.952 53.9609 201.479 53.5859 201.913 53.1055C202.346 52.625 202.674 52.0684 202.897 51.4355C203.131 50.8027 203.249 50.0996 203.249 49.3262ZM225.696 45.002C225.262 44.791 224.817 44.6328 224.36 44.5273C223.915 44.4102 223.399 44.3516 222.813 44.3516C222.004 44.3516 221.243 44.4746 220.528 44.7207C219.825 44.9551 219.215 45.3125 218.7 45.793C218.184 46.2734 217.78 46.877 217.487 47.6035C217.206 48.3184 217.065 49.168 217.065 50.1523V54.2305H220.739V57.5H209.717V54.2305H213.426V44.4043H209.717V41.1172H217.065V45.2305C217.663 43.5898 218.542 42.4297 219.702 41.75C220.874 41.0703 222.262 40.7305 223.868 40.7305C224.372 40.7305 224.899 40.7832 225.45 40.8887C226 40.9941 226.54 41.1816 227.067 41.4512L225.696 45.002ZM229.299 52.7891C229.299 51.8281 229.557 50.9902 230.073 50.2754C230.588 49.5488 231.262 48.9453 232.094 48.4648C232.938 47.9844 233.899 47.627 234.977 47.3926C236.067 47.1465 237.174 47.0234 238.299 47.0234C238.92 47.0234 239.454 47.0352 239.899 47.0586C240.344 47.082 240.795 47.1172 241.252 47.1641V46.5137C241.252 45.6582 240.918 45.0195 240.25 44.5977C239.594 44.1758 238.727 43.9648 237.649 43.9648C236.665 43.9648 235.663 44.1055 234.643 44.3867C233.624 44.6562 232.657 45.0547 231.743 45.582L230.266 42.7344C231.344 42.1133 232.499 41.627 233.729 41.2754C234.971 40.9121 236.278 40.7305 237.649 40.7305C238.54 40.7305 239.413 40.8301 240.268 41.0293C241.135 41.2285 241.909 41.5566 242.588 42.0137C243.28 42.4707 243.831 43.0684 244.241 43.8066C244.651 44.5332 244.856 45.4355 244.856 46.5137V57.5H241.252V55.0918C240.678 55.9824 239.829 56.6738 238.704 57.166C237.59 57.6582 236.389 57.9043 235.1 57.9043C234.303 57.9043 233.547 57.793 232.833 57.5703C232.129 57.3594 231.52 57.0371 231.004 56.6035C230.489 56.1699 230.073 55.6367 229.756 55.0039C229.452 54.3594 229.299 53.6211 229.299 52.7891ZM236.032 54.6523C236.747 54.6523 237.415 54.5645 238.036 54.3887C238.668 54.2012 239.225 53.9492 239.706 53.6328C240.186 53.3047 240.561 52.9121 240.831 52.4551C241.112 51.998 241.252 51.4941 241.252 50.9434V50.3281C240.678 50.2344 240.139 50.1816 239.635 50.1699C239.131 50.1582 238.686 50.1523 238.299 50.1523C236.518 50.1523 235.17 50.3867 234.256 50.8555C233.354 51.3242 232.903 51.9043 232.903 52.5957C232.903 53.9668 233.946 54.6523 236.032 54.6523ZM265.581 52.2793C265.393 54.002 264.713 55.373 263.542 56.3926C262.381 57.4004 260.928 57.9043 259.182 57.9043C258.221 57.9043 257.342 57.7461 256.545 57.4297C255.749 57.1133 255.069 56.6738 254.506 56.1113C253.944 55.5488 253.504 54.875 253.188 54.0898C252.883 53.293 252.731 52.4258 252.731 51.4883V44.4043H249.022V41.1172H252.731V34.5605H256.37V41.1172H263.243V44.4043H256.37V51.4883C256.37 52.543 256.627 53.3281 257.143 53.8438C257.659 54.3594 258.338 54.6172 259.182 54.6172C260.213 54.6172 260.981 54.3184 261.485 53.7207C261.989 53.123 262.288 52.4023 262.381 51.5586L265.581 52.2793ZM279.081 38.9902H274.651V34.5605H279.081V38.9902ZM282.42 57.5H271.417V54.2305H275.038V44.4043H271.417V41.1172H278.676V54.2305H282.42V57.5ZM305.131 49.3262C305.131 50.6035 304.926 51.7637 304.516 52.8066C304.118 53.8496 303.538 54.752 302.776 55.5137C302.026 56.2637 301.124 56.8496 300.069 57.2715C299.014 57.6934 297.836 57.9043 296.536 57.9043C295.258 57.9043 294.092 57.6934 293.038 57.2715C291.983 56.8496 291.075 56.2637 290.313 55.5137C289.563 54.752 288.983 53.8496 288.573 52.8066C288.174 51.7637 287.975 50.6035 287.975 49.3262C287.975 48.084 288.174 46.9355 288.573 45.8809C288.983 44.8145 289.563 43.9004 290.313 43.1387C291.075 42.3652 291.983 41.7734 293.038 41.3633C294.092 40.9414 295.258 40.7305 296.536 40.7305C297.836 40.7305 299.014 40.9414 300.069 41.3633C301.124 41.7734 302.026 42.3652 302.776 43.1387C303.538 43.9004 304.118 44.8145 304.516 45.8809C304.926 46.9355 305.131 48.084 305.131 49.3262ZM301.51 49.3262C301.51 48.5879 301.393 47.8906 301.159 47.2344C300.936 46.5664 300.608 45.998 300.174 45.5293C299.741 45.0605 299.213 44.6914 298.592 44.4219C297.983 44.1406 297.297 44 296.536 44C295.762 44 295.071 44.1406 294.461 44.4219C293.852 44.6914 293.336 45.0605 292.915 45.5293C292.493 45.998 292.165 46.5664 291.93 47.2344C291.708 47.8906 291.596 48.5879 291.596 49.3262C291.596 50.0996 291.708 50.8027 291.93 51.4355C292.165 52.0684 292.493 52.625 292.915 53.1055C293.336 53.5859 293.852 53.9609 294.461 54.2305C295.071 54.4883 295.762 54.6172 296.536 54.6172C297.297 54.6172 297.983 54.4883 298.592 54.2305C299.213 53.9609 299.741 53.5859 300.174 53.1055C300.608 52.625 300.936 52.0684 301.159 51.4355C301.393 50.8027 301.51 50.0996 301.51 49.3262ZM323.5 57.5H319.862V47.3926C319.862 46.1152 319.622 45.2305 319.141 44.7383C318.661 44.2461 317.963 44 317.049 44C315.702 44 314.6 44.5449 313.745 45.6348C312.901 46.7246 312.479 48.2305 312.479 50.1523V57.5H308.84V41.1172H312.479V45.2305C312.842 43.8125 313.516 42.7109 314.5 41.9258C315.485 41.1289 316.698 40.7305 318.139 40.7305C319.815 40.7305 321.127 41.2754 322.077 42.3652C323.026 43.4551 323.5 45.1309 323.5 47.3926V57.5ZM343.575 52.5957C343.575 53.6621 343.334 54.5293 342.854 55.1973C342.374 55.8652 341.752 56.4043 340.991 56.8145C340.241 57.2246 339.397 57.5059 338.459 57.6582C337.534 57.8223 336.625 57.9043 335.735 57.9043C334.247 57.9043 332.764 57.6875 331.288 57.2539C329.811 56.8203 328.534 56.252 327.456 55.5488L328.967 52.5605C330.256 53.3105 331.434 53.8438 332.5 54.1602C333.579 54.4648 334.657 54.6172 335.735 54.6172C337.2 54.6172 338.266 54.4648 338.934 54.1602C339.602 53.8438 339.936 53.4102 339.936 52.8594C339.936 52.5898 339.842 52.3672 339.655 52.1914C339.467 52.0156 339.157 51.8574 338.723 51.7168C338.29 51.5645 337.715 51.418 337 51.2773C336.297 51.125 335.418 50.9668 334.364 50.8027C333.52 50.6621 332.717 50.4922 331.956 50.293C331.206 50.082 330.543 49.7891 329.969 49.4141C329.395 49.0391 328.932 48.5645 328.581 47.9902C328.241 47.416 328.071 46.6953 328.071 45.8281C328.071 44.9492 328.293 44.1875 328.739 43.543C329.196 42.8867 329.788 42.3477 330.514 41.9258C331.252 41.5039 332.079 41.1992 332.993 41.0117C333.907 40.8242 334.821 40.7305 335.735 40.7305C337.024 40.7305 338.272 40.9004 339.479 41.2402C340.698 41.5684 341.764 42.043 342.678 42.6641L341.237 45.4766C340.323 44.9023 339.432 44.5156 338.565 44.3164C337.709 44.1055 336.766 44 335.735 44C335.301 44 334.85 44.0234 334.381 44.0703C333.913 44.1172 333.479 44.2109 333.081 44.3516C332.682 44.4805 332.348 44.6621 332.079 44.8965C331.821 45.1191 331.692 45.3945 331.692 45.7227C331.692 46.1562 332.073 46.5137 332.834 46.7949C333.608 47.0645 334.92 47.334 336.772 47.6035C337.78 47.7441 338.7 47.9258 339.532 48.1484C340.364 48.3594 341.079 48.6523 341.676 49.0273C342.274 49.3906 342.737 49.8652 343.065 50.4512C343.405 51.0254 343.575 51.7402 343.575 52.5957Z" fill="#EE5656"/>
</svg>
