<svg width="663" height="100" viewBox="0 0 663 100" fill="none" xmlns="http://www.w3.org/2000/svg">
<path d="M42.623 3.44238L332.705 9.85254L332.761 9.85352L332.816 9.85254L619.973 3.45898C637.084 3.078 648.124 21.4432 639.761 36.376C635.186 44.5447 635.185 54.5473 639.685 62.7402C648.103 78.0692 636.819 96.8773 619.41 96.4639L332.82 89.6572L332.761 89.6562L332.701 89.6572L43.2178 96.4805C25.497 96.8981 13.7205 78.1169 21.6689 62.1973C25.6358 54.2522 25.633 44.8327 21.5977 36.9072C13.697 21.3906 25.2151 3.05778 42.623 3.44238Z" fill="#F5F5F5" stroke="#EE5656" stroke-width="5"/>
<path d="M290.257 44.4626C290.257 45.9978 290.093 47.4626 289.764 48.8572C289.448 50.24 288.932 51.4587 288.218 52.5134C287.514 53.5564 286.6 54.3884 285.475 55.0095C284.362 55.6306 283.014 55.9412 281.432 55.9412H273.979V33.0017H281.432C282.991 33.0017 284.327 33.3181 285.44 33.9509C286.565 34.572 287.479 35.4041 288.182 36.447C288.897 37.49 289.419 38.7029 289.747 40.0857C290.087 41.4685 290.257 42.9275 290.257 44.4626ZM286.618 44.4626C286.618 41.8142 286.167 39.7927 285.264 38.3982C284.362 36.9919 283.085 36.2888 281.432 36.2888H277.618V52.6716H281.432C283.085 52.6716 284.362 51.9568 285.264 50.5271C286.167 49.0974 286.618 47.0759 286.618 44.4626ZM296.11 49.1384C296.286 50.2634 296.819 51.2009 297.71 51.9509C298.612 52.6892 299.819 53.0583 301.331 53.0583C302.514 53.0583 303.54 52.8767 304.407 52.5134C305.286 52.1384 306.042 51.6462 306.675 51.0369L308.538 53.6033C307.483 54.658 306.364 55.3787 305.18 55.7654C304.009 56.1521 302.725 56.3455 301.331 56.3455C300.065 56.3455 298.887 56.1345 297.798 55.7126C296.708 55.2908 295.764 54.7048 294.968 53.9548C294.171 53.1931 293.544 52.2908 293.087 51.2478C292.641 50.2048 292.419 49.0447 292.419 47.7673C292.419 46.5251 292.624 45.3826 293.034 44.3396C293.456 43.2849 294.042 42.3767 294.792 41.615C295.553 40.8416 296.462 40.2439 297.516 39.822C298.571 39.3884 299.737 39.1716 301.014 39.1716C302.339 39.1716 303.54 39.4001 304.618 39.8572C305.696 40.3025 306.616 40.9529 307.378 41.8083C308.151 42.6638 308.755 43.7126 309.188 44.9548C309.622 46.1853 309.839 47.5798 309.839 49.1384H296.11ZM305.725 45.9392C305.538 44.8845 304.993 44.0408 304.091 43.408C303.188 42.7634 302.163 42.4412 301.014 42.4412C299.866 42.4412 298.835 42.7634 297.921 43.408C297.007 44.0408 296.456 44.8845 296.268 45.9392H305.725ZM305.268 34.408L297.675 38.697L296.11 36.2888L303.212 31.2439L305.268 34.408ZM328.981 50.7205C328.794 52.4431 328.114 53.8142 326.942 54.8337C325.782 55.8416 324.329 56.3455 322.583 56.3455C321.622 56.3455 320.743 56.1873 319.946 55.8708C319.149 55.5544 318.469 55.115 317.907 54.5525C317.344 53.99 316.905 53.3162 316.589 52.531C316.284 51.7341 316.132 50.8669 316.132 49.9294V42.8455H312.423V39.5583H316.132V33.0017H319.77V39.5583H326.643V42.8455H319.77V49.9294C319.77 50.9841 320.028 51.7693 320.544 52.2849C321.059 52.8005 321.739 53.0583 322.583 53.0583C323.614 53.0583 324.382 52.7595 324.885 52.1619C325.389 51.5642 325.688 50.8435 325.782 49.9998L328.981 50.7205ZM332.005 51.2302C332.005 50.2693 332.262 49.4314 332.778 48.7166C333.294 47.99 333.968 47.3865 334.8 46.906C335.643 46.4255 336.604 46.0681 337.682 45.8337C338.772 45.5876 339.88 45.4646 341.005 45.4646C341.626 45.4646 342.159 45.4763 342.604 45.4998C343.05 45.5232 343.501 45.5583 343.958 45.6052V44.9548C343.958 44.0994 343.624 43.4607 342.956 43.0388C342.3 42.6169 341.432 42.406 340.354 42.406C339.37 42.406 338.368 42.5466 337.348 42.8279C336.329 43.0974 335.362 43.4958 334.448 44.0232L332.971 41.1755C334.05 40.5544 335.204 40.0681 336.434 39.7166C337.677 39.3533 338.983 39.1716 340.354 39.1716C341.245 39.1716 342.118 39.2712 342.973 39.4705C343.841 39.6697 344.614 39.9978 345.294 40.4548C345.985 40.9119 346.536 41.5095 346.946 42.2478C347.356 42.9744 347.561 43.8767 347.561 44.9548V55.9412H343.958V53.533C343.384 54.4236 342.534 55.115 341.409 55.6072C340.296 56.0994 339.094 56.3455 337.805 56.3455C337.009 56.3455 336.253 56.2341 335.538 56.0115C334.835 55.8005 334.225 55.4783 333.71 55.0447C333.194 54.6111 332.778 54.0779 332.462 53.4451C332.157 52.8005 332.005 52.0623 332.005 51.2302ZM338.737 53.0935C339.452 53.0935 340.12 53.0056 340.741 52.8298C341.374 52.6423 341.93 52.3904 342.411 52.074C342.891 51.7458 343.266 51.3533 343.536 50.8962C343.817 50.4392 343.958 49.9353 343.958 49.3845V48.7693C343.384 48.6755 342.844 48.6228 342.341 48.6111C341.837 48.5994 341.391 48.5935 341.005 48.5935C339.223 48.5935 337.876 48.8279 336.962 49.2966C336.059 49.7654 335.608 50.3455 335.608 51.0369C335.608 52.408 336.651 53.0935 338.737 53.0935ZM362.134 37.4314H357.704V33.0017H362.134V37.4314ZM365.473 55.9412H354.469V52.6716H358.091V42.8455H354.469V39.5583H361.729V52.6716H365.473V55.9412ZM385.161 55.9412H374.157V52.6716H377.743V36.2888H374.157V33.0017H381.382V52.6716H385.161V55.9412ZM406.975 51.0369C406.975 52.1033 406.735 52.9705 406.255 53.6384C405.774 54.3064 405.153 54.8455 404.391 55.2556C403.641 55.6658 402.798 55.947 401.86 56.0994C400.934 56.2634 400.026 56.3455 399.135 56.3455C397.647 56.3455 396.165 56.1287 394.688 55.6951C393.212 55.2615 391.934 54.6931 390.856 53.99L392.368 51.0017C393.657 51.7517 394.835 52.2849 395.901 52.6013C396.979 52.906 398.057 53.0583 399.135 53.0583C400.6 53.0583 401.667 52.906 402.335 52.6013C403.003 52.2849 403.337 51.8513 403.337 51.3005C403.337 51.031 403.243 50.8083 403.055 50.6326C402.868 50.4568 402.557 50.2986 402.124 50.158C401.69 50.0056 401.116 49.8591 400.401 49.7185C399.698 49.5662 398.819 49.408 397.764 49.2439C396.921 49.1033 396.118 48.9333 395.356 48.7341C394.606 48.5232 393.944 48.2302 393.37 47.8552C392.796 47.4802 392.333 47.0056 391.981 46.4314C391.641 45.8572 391.471 45.1365 391.471 44.2693C391.471 43.3904 391.694 42.6287 392.139 41.9841C392.596 41.3279 393.188 40.7888 393.915 40.3669C394.653 39.9451 395.479 39.6404 396.393 39.4529C397.307 39.2654 398.221 39.1716 399.135 39.1716C400.425 39.1716 401.673 39.3416 402.88 39.6814C404.098 40.0095 405.165 40.4841 406.079 41.1052L404.637 43.9177C403.723 43.3435 402.833 42.9568 401.966 42.7576C401.11 42.5466 400.167 42.4412 399.135 42.4412C398.702 42.4412 398.251 42.4646 397.782 42.5115C397.313 42.5583 396.88 42.6521 396.481 42.7927C396.083 42.9216 395.749 43.1033 395.479 43.3376C395.221 43.5603 395.093 43.8357 395.093 44.1638C395.093 44.5974 395.473 44.9548 396.235 45.2361C397.009 45.5056 398.321 45.7751 400.173 46.0447C401.18 46.1853 402.1 46.3669 402.932 46.5896C403.764 46.8005 404.479 47.0935 405.077 47.4685C405.675 47.8318 406.137 48.3064 406.466 48.8923C406.805 49.4666 406.975 50.1814 406.975 51.0369Z" fill="#EE5656"/>
</svg>
