<svg width="663" height="100" viewBox="0 0 663 100" fill="none" xmlns="http://www.w3.org/2000/svg">
<path d="M42.623 3.44238L332.705 9.85254L332.761 9.85352L332.816 9.85254L619.973 3.45898C637.084 3.078 648.124 21.4432 639.761 36.376C635.186 44.5447 635.185 54.5473 639.685 62.7402C648.103 78.0692 636.819 96.8773 619.41 96.4639L332.82 89.6572L332.761 89.6562L332.701 89.6572L43.2178 96.4805C25.497 96.8981 13.7205 78.1169 21.6689 62.1973C25.6358 54.2522 25.633 44.8327 21.5977 36.9072C13.697 21.3906 25.2151 3.05778 42.623 3.44238Z" fill="#F5F5F5" stroke="#EE5656" stroke-width="5"/>
<path d="M184.423 56.9412H180.204L173.401 40.3123V56.9412H169.762V34.0017H174.333L180.784 49.8044V34.0017H184.423V56.9412ZM205.358 48.7673C205.358 50.0447 205.153 51.2048 204.743 52.2478C204.344 53.2908 203.764 54.1931 203.003 54.9548C202.253 55.7048 201.35 56.2908 200.296 56.7126C199.241 57.1345 198.063 57.3455 196.762 57.3455C195.485 57.3455 194.319 57.1345 193.264 56.7126C192.21 56.2908 191.302 55.7048 190.54 54.9548C189.79 54.1931 189.21 53.2908 188.8 52.2478C188.401 51.2048 188.202 50.0447 188.202 48.7673C188.202 47.5251 188.401 46.3767 188.8 45.322C189.21 44.2556 189.79 43.3416 190.54 42.5798C191.302 41.8064 192.21 41.2146 193.264 40.8044C194.319 40.3826 195.485 40.1716 196.762 40.1716C198.063 40.1716 199.241 40.3826 200.296 40.8044C201.35 41.2146 202.253 41.8064 203.003 42.5798C203.764 43.3416 204.344 44.2556 204.743 45.322C205.153 46.3767 205.358 47.5251 205.358 48.7673ZM201.737 48.7673C201.737 48.0291 201.62 47.3318 201.385 46.6755C201.163 46.0076 200.835 45.4392 200.401 44.9705C199.968 44.5017 199.44 44.1326 198.819 43.863C198.21 43.5818 197.524 43.4412 196.762 43.4412C195.989 43.4412 195.298 43.5818 194.688 43.863C194.079 44.1326 193.563 44.5017 193.141 44.9705C192.719 45.4392 192.391 46.0076 192.157 46.6755C191.934 47.3318 191.823 48.0291 191.823 48.7673C191.823 49.5408 191.934 50.2439 192.157 50.8767C192.391 51.5095 192.719 52.0662 193.141 52.5466C193.563 53.0271 194.079 53.4021 194.688 53.6716C195.298 53.9294 195.989 54.0583 196.762 54.0583C197.524 54.0583 198.21 53.9294 198.819 53.6716C199.44 53.4021 199.968 53.0271 200.401 52.5466C200.835 52.0662 201.163 51.5095 201.385 50.8767C201.62 50.2439 201.737 49.5408 201.737 48.7673ZM224.149 52.0369C224.149 53.1033 223.909 53.9705 223.428 54.6384C222.948 55.3064 222.327 55.8455 221.565 56.2556C220.815 56.6658 219.971 56.947 219.034 57.0994C218.108 57.2634 217.2 57.3455 216.309 57.3455C214.821 57.3455 213.339 57.1287 211.862 56.6951C210.385 56.2615 209.108 55.6931 208.03 54.99L209.542 52.0017C210.831 52.7517 212.009 53.2849 213.075 53.6013C214.153 53.906 215.231 54.0583 216.309 54.0583C217.774 54.0583 218.841 53.906 219.509 53.6013C220.177 53.2849 220.51 52.8513 220.51 52.3005C220.51 52.031 220.417 51.8083 220.229 51.6326C220.042 51.4568 219.731 51.2986 219.298 51.158C218.864 51.0056 218.29 50.8591 217.575 50.7185C216.872 50.5662 215.993 50.408 214.938 50.2439C214.094 50.1033 213.292 49.9333 212.53 49.7341C211.78 49.5232 211.118 49.2302 210.544 48.8552C209.969 48.4802 209.507 48.0056 209.155 47.4314C208.815 46.8572 208.645 46.1365 208.645 45.2693C208.645 44.3904 208.868 43.6287 209.313 42.9841C209.77 42.3279 210.362 41.7888 211.089 41.3669C211.827 40.9451 212.653 40.6404 213.567 40.4529C214.481 40.2654 215.395 40.1716 216.309 40.1716C217.598 40.1716 218.846 40.3416 220.053 40.6814C221.272 41.0095 222.339 41.4841 223.253 42.1052L221.811 44.9177C220.897 44.3435 220.007 43.9568 219.139 43.7576C218.284 43.5466 217.341 43.4412 216.309 43.4412C215.876 43.4412 215.425 43.4646 214.956 43.5115C214.487 43.5583 214.053 43.6521 213.655 43.7927C213.257 43.9216 212.923 44.1033 212.653 44.3376C212.395 44.5603 212.266 44.8357 212.266 45.1638C212.266 45.5974 212.647 45.9548 213.409 46.2361C214.182 46.5056 215.495 46.7751 217.346 47.0447C218.354 47.1853 219.274 47.3669 220.106 47.5896C220.938 47.8005 221.653 48.0935 222.251 48.4685C222.848 48.8318 223.311 49.3064 223.639 49.8923C223.979 50.4666 224.149 51.1814 224.149 52.0369ZM263.858 50.6482C263.858 52.7341 263.149 54.3044 261.731 55.3591C260.313 56.4138 258.298 56.9412 255.684 56.9412H248.372V34.0017H255.28C256.241 34.0017 257.184 34.0837 258.11 34.2478C259.036 34.4001 259.862 34.6931 260.589 35.1267C261.327 35.5603 261.925 36.1697 262.382 36.9548C262.839 37.7283 263.067 38.7361 263.067 39.9783C263.067 41.1384 262.768 42.199 262.171 43.1599C261.585 44.1208 260.694 44.8123 259.499 45.2341C260.964 45.6912 262.053 46.3298 262.768 47.1501C263.495 47.9705 263.858 49.1365 263.858 50.6482ZM259.464 40.4529C259.464 39.7849 259.335 39.24 259.077 38.8181C258.831 38.3962 258.509 38.074 258.11 37.8513C257.712 37.6169 257.266 37.4646 256.774 37.3943C256.282 37.324 255.784 37.2888 255.28 37.2888H252.01V43.6169H255.28C255.784 43.6169 256.282 43.5818 256.774 43.5115C257.266 43.4412 257.712 43.2947 258.11 43.072C258.509 42.8376 258.831 42.5095 259.077 42.0876C259.335 41.6658 259.464 41.1208 259.464 40.4529ZM260.255 50.2791C260.255 49.1306 259.85 48.281 259.042 47.7302C258.245 47.1794 257.126 46.9041 255.684 46.9041H252.01V53.6716H255.684C257.126 53.6716 258.245 53.3962 259.042 52.8455C259.85 52.283 260.255 51.4275 260.255 50.2791ZM270.503 50.1384C270.678 51.2634 271.212 52.2009 272.102 52.9509C273.005 53.6892 274.212 54.0583 275.723 54.0583C276.907 54.0583 277.932 53.8767 278.8 53.5134C279.678 53.1384 280.434 52.6462 281.067 52.0369L282.93 54.6033C281.876 55.658 280.757 56.3787 279.573 56.7654C278.401 57.1521 277.118 57.3455 275.723 57.3455C274.458 57.3455 273.28 57.1345 272.19 56.7126C271.1 56.2908 270.157 55.7048 269.36 54.9548C268.563 54.1931 267.936 53.2908 267.479 52.2478C267.034 51.2048 266.811 50.0447 266.811 48.7673C266.811 47.5251 267.016 46.3826 267.427 45.3396C267.848 44.2849 268.434 43.3767 269.184 42.615C269.946 41.8416 270.854 41.2439 271.909 40.822C272.964 40.3884 274.13 40.1716 275.407 40.1716C276.731 40.1716 277.932 40.4001 279.01 40.8572C280.089 41.3025 281.009 41.9529 281.77 42.8083C282.544 43.6638 283.147 44.7126 283.581 45.9548C284.014 47.1853 284.231 48.5798 284.231 50.1384H270.503ZM280.118 46.9392C279.93 45.8845 279.385 45.0408 278.483 44.408C277.581 43.7634 276.555 43.4412 275.407 43.4412C274.259 43.4412 273.227 43.7634 272.313 44.408C271.399 45.0408 270.848 45.8845 270.661 46.9392H280.118ZM302.759 52.0369C302.759 53.1033 302.518 53.9705 302.038 54.6384C301.557 55.3064 300.936 55.8455 300.175 56.2556C299.425 56.6658 298.581 56.947 297.643 57.0994C296.718 57.2634 295.809 57.3455 294.919 57.3455C293.43 57.3455 291.948 57.1287 290.471 56.6951C288.995 56.2615 287.718 55.6931 286.639 54.99L288.151 52.0017C289.44 52.7517 290.618 53.2849 291.684 53.6013C292.762 53.906 293.841 54.0583 294.919 54.0583C296.384 54.0583 297.45 53.906 298.118 53.6013C298.786 53.2849 299.12 52.8513 299.12 52.3005C299.12 52.031 299.026 51.8083 298.839 51.6326C298.651 51.4568 298.341 51.2986 297.907 51.158C297.473 51.0056 296.899 50.8591 296.184 50.7185C295.481 50.5662 294.602 50.408 293.548 50.2439C292.704 50.1033 291.901 49.9333 291.139 49.7341C290.389 49.5232 289.727 49.2302 289.153 48.8552C288.579 48.4802 288.116 48.0056 287.764 47.4314C287.425 46.8572 287.255 46.1365 287.255 45.2693C287.255 44.3904 287.477 43.6287 287.923 42.9841C288.38 42.3279 288.971 41.7888 289.698 41.3669C290.436 40.9451 291.262 40.6404 292.177 40.4529C293.091 40.2654 294.005 40.1716 294.919 40.1716C296.208 40.1716 297.456 40.3416 298.663 40.6814C299.882 41.0095 300.948 41.4841 301.862 42.1052L300.421 44.9177C299.507 44.3435 298.616 43.9568 297.749 43.7576C296.893 43.5466 295.95 43.4412 294.919 43.4412C294.485 43.4412 294.034 43.4646 293.565 43.5115C293.096 43.5583 292.663 43.6521 292.264 43.7927C291.866 43.9216 291.532 44.1033 291.262 44.3376C291.005 44.5603 290.876 44.8357 290.876 45.1638C290.876 45.5974 291.257 45.9548 292.018 46.2361C292.792 46.5056 294.104 46.7751 295.956 47.0447C296.964 47.1853 297.884 47.3669 298.716 47.5896C299.548 47.8005 300.262 48.0935 300.86 48.4685C301.458 48.8318 301.921 49.3064 302.249 49.8923C302.589 50.4666 302.759 51.1814 302.759 52.0369ZM323.026 51.7205C322.839 53.4431 322.159 54.8142 320.987 55.8337C319.827 56.8416 318.374 57.3455 316.628 57.3455C315.667 57.3455 314.788 57.1873 313.991 56.8708C313.194 56.5544 312.514 56.115 311.952 55.5525C311.389 54.99 310.95 54.3162 310.634 53.531C310.329 52.7341 310.177 51.8669 310.177 50.9294V43.8455H306.468V40.5583H310.177V34.0017H313.815V40.5583H320.688V43.8455H313.815V50.9294C313.815 51.9841 314.073 52.7693 314.589 53.2849C315.104 53.8005 315.784 54.0583 316.628 54.0583C317.659 54.0583 318.427 53.7595 318.93 53.1619C319.434 52.5642 319.733 51.8435 319.827 50.9998L323.026 51.7205ZM361.575 50.6482C361.575 51.7029 361.393 52.6462 361.03 53.4783C360.678 54.2986 360.192 54.9958 359.571 55.5701C358.962 56.1443 358.229 56.5837 357.374 56.8884C356.53 57.1931 355.628 57.3455 354.667 57.3455C353.589 57.3455 352.616 57.1521 351.749 56.7654C350.882 56.3787 350.137 55.74 349.516 54.8494V56.9412H346.247V49.4529H349.516C349.516 50.2029 349.645 50.865 349.903 51.4392C350.173 52.0134 350.524 52.4998 350.958 52.8982C351.391 53.2849 351.895 53.5837 352.469 53.7947C353.044 53.9939 353.653 54.0935 354.298 54.0935C355.387 54.0935 356.266 53.8416 356.934 53.3376C357.602 52.8337 357.936 52.031 357.936 50.9294C357.936 50.3552 357.831 49.863 357.62 49.4529C357.421 49.0427 357.128 48.6794 356.741 48.363C356.366 48.0349 355.903 47.7537 355.352 47.5193C354.802 47.2732 354.175 47.0154 353.471 46.7458C352.639 46.4646 351.807 46.1482 350.975 45.7966C350.143 45.4451 349.399 45.0115 348.743 44.4958C348.087 43.9802 347.553 43.3474 347.143 42.5974C346.733 41.8357 346.528 40.8806 346.528 39.7322C346.528 38.7244 346.71 37.8455 347.073 37.0955C347.448 36.3337 347.94 35.6951 348.55 35.1794C349.171 34.6638 349.885 34.2771 350.694 34.0193C351.514 33.7498 352.382 33.615 353.296 33.615C354.35 33.615 355.253 33.8376 356.003 34.283C356.764 34.7283 357.35 35.3201 357.76 36.0583V34.0017H361.03V41.1384H357.76C357.76 39.7908 357.403 38.7419 356.688 37.9919C355.985 37.2302 355.036 36.8494 353.841 36.8494C352.786 36.8494 351.907 37.0955 351.204 37.5876C350.512 38.0798 350.167 38.7712 350.167 39.6619C350.167 40.1189 350.255 40.5115 350.43 40.8396C350.618 41.156 350.882 41.449 351.221 41.7185C351.573 41.9763 352.012 42.2224 352.54 42.4568C353.067 42.6794 353.677 42.9255 354.368 43.1951C355.235 43.4998 356.096 43.8455 356.952 44.2322C357.807 44.6189 358.575 45.0935 359.255 45.656C359.934 46.2185 360.491 46.9041 360.925 47.7126C361.358 48.5095 361.575 49.488 361.575 50.6482ZM368.764 50.1384C368.94 51.2634 369.473 52.2009 370.364 52.9509C371.266 53.6892 372.473 54.0583 373.985 54.0583C375.169 54.0583 376.194 53.8767 377.061 53.5134C377.94 53.1384 378.696 52.6462 379.329 52.0369L381.192 54.6033C380.137 55.658 379.018 56.3787 377.835 56.7654C376.663 57.1521 375.38 57.3455 373.985 57.3455C372.719 57.3455 371.542 57.1345 370.452 56.7126C369.362 56.2908 368.419 55.7048 367.622 54.9548C366.825 54.1931 366.198 53.2908 365.741 52.2478C365.296 51.2048 365.073 50.0447 365.073 48.7673C365.073 47.5251 365.278 46.3826 365.688 45.3396C366.11 44.2849 366.696 43.3767 367.446 42.615C368.208 41.8416 369.116 41.2439 370.171 40.822C371.225 40.3884 372.391 40.1716 373.669 40.1716C374.993 40.1716 376.194 40.4001 377.272 40.8572C378.35 41.3025 379.27 41.9529 380.032 42.8083C380.805 43.6638 381.409 44.7126 381.843 45.9548C382.276 47.1853 382.493 48.5798 382.493 50.1384H368.764ZM378.38 46.9392C378.192 45.8845 377.647 45.0408 376.745 44.408C375.843 43.7634 374.817 43.4412 373.669 43.4412C372.52 43.4412 371.489 43.7634 370.575 44.408C369.661 45.0408 369.11 45.8845 368.923 46.9392H378.38ZM398.858 56.9412H387.854V53.6716H391.44V37.2888H387.854V34.0017H395.079V53.6716H398.858V56.9412ZM418.51 56.9412H407.507V53.6716H411.093V37.2888H407.507V34.0017H414.731V53.6716H418.51V56.9412ZM427.721 50.1384C427.897 51.2634 428.43 52.2009 429.321 52.9509C430.223 53.6892 431.43 54.0583 432.942 54.0583C434.126 54.0583 435.151 53.8767 436.018 53.5134C436.897 53.1384 437.653 52.6462 438.286 52.0369L440.149 54.6033C439.094 55.658 437.975 56.3787 436.792 56.7654C435.62 57.1521 434.337 57.3455 432.942 57.3455C431.677 57.3455 430.499 57.1345 429.409 56.7126C428.319 56.2908 427.376 55.7048 426.579 54.9548C425.782 54.1931 425.155 53.2908 424.698 52.2478C424.253 51.2048 424.03 50.0447 424.03 48.7673C424.03 47.5251 424.235 46.3826 424.645 45.3396C425.067 44.2849 425.653 43.3767 426.403 42.615C427.165 41.8416 428.073 41.2439 429.128 40.822C430.182 40.3884 431.348 40.1716 432.626 40.1716C433.95 40.1716 435.151 40.4001 436.229 40.8572C437.307 41.3025 438.227 41.9529 438.989 42.8083C439.762 43.6638 440.366 44.7126 440.8 45.9548C441.233 47.1853 441.45 48.5798 441.45 50.1384H427.721ZM437.337 46.9392C437.149 45.8845 436.604 45.0408 435.702 44.408C434.8 43.7634 433.774 43.4412 432.626 43.4412C431.477 43.4412 430.446 43.7634 429.532 44.408C428.618 45.0408 428.067 45.8845 427.88 46.9392H437.337ZM460.012 44.4431C459.579 44.2322 459.134 44.074 458.677 43.9685C458.231 43.8513 457.716 43.7927 457.13 43.7927C456.321 43.7927 455.559 43.9158 454.844 44.1619C454.141 44.3962 453.532 44.7537 453.016 45.2341C452.501 45.7146 452.096 46.3181 451.803 47.0447C451.522 47.7595 451.382 48.6091 451.382 49.5935V53.6716H455.055V56.9412H444.034V53.6716H447.743V43.8455H444.034V40.5583H451.382V44.6716C451.979 43.031 452.858 41.8708 454.018 41.1912C455.19 40.5115 456.579 40.1716 458.184 40.1716C458.688 40.1716 459.216 40.2244 459.766 40.3298C460.317 40.4353 460.856 40.6228 461.384 40.8923L460.012 44.4431ZM479.63 52.0369C479.63 53.1033 479.389 53.9705 478.909 54.6384C478.428 55.3064 477.807 55.8455 477.046 56.2556C476.296 56.6658 475.452 56.947 474.514 57.0994C473.589 57.2634 472.68 57.3455 471.79 57.3455C470.302 57.3455 468.819 57.1287 467.343 56.6951C465.866 56.2615 464.589 55.6931 463.51 54.99L465.022 52.0017C466.311 52.7517 467.489 53.2849 468.555 53.6013C469.634 53.906 470.712 54.0583 471.79 54.0583C473.255 54.0583 474.321 53.906 474.989 53.6013C475.657 53.2849 475.991 52.8513 475.991 52.3005C475.991 52.031 475.897 51.8083 475.71 51.6326C475.522 51.4568 475.212 51.2986 474.778 51.158C474.344 51.0056 473.77 50.8591 473.055 50.7185C472.352 50.5662 471.473 50.408 470.419 50.2439C469.575 50.1033 468.772 49.9333 468.01 49.7341C467.26 49.5232 466.598 49.2302 466.024 48.8552C465.45 48.4802 464.987 48.0056 464.635 47.4314C464.296 46.8572 464.126 46.1365 464.126 45.2693C464.126 44.3904 464.348 43.6287 464.794 42.9841C465.251 42.3279 465.843 41.7888 466.569 41.3669C467.307 40.9451 468.134 40.6404 469.048 40.4529C469.962 40.2654 470.876 40.1716 471.79 40.1716C473.079 40.1716 474.327 40.3416 475.534 40.6814C476.753 41.0095 477.819 41.4841 478.733 42.1052L477.292 44.9177C476.378 44.3435 475.487 43.9568 474.62 43.7576C473.764 43.5466 472.821 43.4412 471.79 43.4412C471.356 43.4412 470.905 43.4646 470.436 43.5115C469.968 43.5583 469.534 43.6521 469.135 43.7927C468.737 43.9216 468.403 44.1033 468.134 44.3376C467.876 44.5603 467.747 44.8357 467.747 45.1638C467.747 45.5974 468.128 45.9548 468.889 46.2361C469.663 46.5056 470.975 46.7751 472.827 47.0447C473.835 47.1853 474.755 47.3669 475.587 47.5896C476.419 47.8005 477.134 48.0935 477.731 48.4685C478.329 48.8318 478.792 49.3064 479.12 49.8923C479.46 50.4666 479.63 51.1814 479.63 52.0369Z" fill="#EE5656"/>
</svg>
