<svg width="79" height="68" viewBox="0 0 79 68" fill="none" xmlns="http://www.w3.org/2000/svg">
<path d="M63.6937 26C70.2381 26 81.0968 30.9623 78.572 37C76.6948 41.489 72.4496 56.7478 68.981 60.1835C65.5123 63.6193 59.8837 64.1406 55.3516 66C50.8196 67.8594 42.5894 68 37.684 68C32.7785 68 24.5484 67.8594 20.0163 66C18.4788 65.3692 15.523 64.2268 12.4853 62.8428C5.55068 59.6834 3.77433 47.1897 0.834329 40.1593C-2.2146 32.8684 7.24077 26 15.1435 26L38.1888 26H63.6937Z" fill="#FFA352"/>
<path d="M67.5762 29C67.5762 25.1917 66.8649 21.4206 65.4829 17.9022C64.1009 14.3837 62.0752 11.1868 59.5216 8.4939C56.968 5.801 53.9364 3.66488 50.6 2.20749C47.2635 0.750107 43.6875 -1.66468e-07 40.0762 0C36.4648 1.66468e-07 32.8888 0.750108 29.5524 2.20749C26.2159 3.66488 23.1843 5.80101 20.6307 8.49391C18.0771 11.1868 16.0515 14.3837 14.6695 17.9022C13.2875 21.4206 12.5762 25.1917 12.5762 29H16.8945C16.8945 25.7897 17.4941 22.6108 18.6591 19.6449C19.8241 16.6789 21.5316 13.984 23.6842 11.714C25.8369 9.44392 28.3924 7.64323 31.2049 6.4147C34.0175 5.18616 37.0319 4.55384 40.0762 4.55384C43.1204 4.55384 46.1349 5.18616 48.9474 6.4147C51.76 7.64323 54.3155 9.44392 56.4681 11.714C58.6207 13.984 60.3283 16.6789 61.4933 19.6449C62.6583 22.6108 63.2579 25.7897 63.2579 29H67.5762Z" fill="#FFA352"/>
</svg>
