<svg width="300" height="102" viewBox="0 0 300 102" fill="none" xmlns="http://www.w3.org/2000/svg">
<path d="M3.30822 29.0203C1.57015 13.7737 13.8509 0.574356 29.1831 1.21013L156.751 6.5L268.993 1.40697C284.93 0.683834 297.457 14.8702 294.768 30.595L291.921 47.2446C291.44 50.0607 291.445 52.9385 291.935 55.753L294.612 71.1041C297.371 86.9221 284.715 101.202 268.681 100.365L146.771 94L29.6188 100.386C14.1422 101.229 1.63552 87.9316 3.42535 72.5357L5.53848 54.3589C5.75933 52.4592 5.76146 50.5405 5.54485 48.6404L3.30822 29.0203Z" fill="#FFA352"/>
<path d="M101.75 54.9863C101.468 56.1113 101.093 57.1309 100.625 58.0449C100.156 58.959 99.5817 59.7383 98.902 60.3828C98.234 61.0273 97.4489 61.5254 96.5465 61.877C95.6559 62.2285 94.6305 62.4043 93.4703 62.4043C91.8649 62.4043 90.5055 62.0762 89.3922 61.4199C88.2789 60.752 87.3649 59.8672 86.65 58.7656C85.9469 57.6523 85.4371 56.3867 85.1207 54.9688C84.816 53.5391 84.6637 52.0566 84.6637 50.5215C84.6637 48.9863 84.816 47.5039 85.1207 46.0742C85.4371 44.6445 85.941 43.3848 86.6324 42.2949C87.3356 41.2051 88.2262 40.332 89.3043 39.6758C90.3824 39.0078 91.7008 38.6738 93.2594 38.6738C93.7633 38.6738 94.2731 38.7383 94.7887 38.8672C95.3043 38.9961 95.7848 39.1953 96.2301 39.4648C96.6754 39.7227 97.0621 40.0449 97.3903 40.4316C97.7301 40.8184 97.9703 41.2637 98.111 41.7676V39.0605H101.398V47.7441H98.111C98.111 47.0293 98.0231 46.3262 97.8473 45.6348C97.6715 44.9316 97.3903 44.3105 97.0035 43.7715C96.6168 43.2324 96.1305 42.793 95.5446 42.4531C94.9586 42.1133 94.2672 41.9434 93.4703 41.9434C92.4391 41.9434 91.5953 42.1953 90.9391 42.6992C90.2828 43.2031 89.7555 43.8652 89.3571 44.6855C88.9586 45.5059 88.6774 46.4258 88.5133 47.4453C88.361 48.4648 88.2848 49.4902 88.2848 50.5215C88.2848 51.5527 88.361 52.584 88.5133 53.6152C88.6774 54.6465 88.9528 55.5723 89.3395 56.3926C89.7262 57.2012 90.2535 57.8574 90.9215 58.3613C91.5895 58.8652 92.4391 59.1172 93.4703 59.1172C94.9586 59.1172 96.1012 58.6426 96.8981 57.6934C97.7067 56.7441 98.3512 55.4668 98.8317 53.8613L101.75 54.9863ZM118.449 62H107.445V58.7305H111.031V42.3477H107.445V39.0605H114.67V58.7305H118.449V62ZM141.125 53.8262C141.125 55.1035 140.92 56.2637 140.509 57.3066C140.111 58.3496 139.531 59.252 138.769 60.0137C138.019 60.7637 137.117 61.3496 136.062 61.7715C135.007 62.1934 133.83 62.4043 132.529 62.4043C131.252 62.4043 130.086 62.1934 129.031 61.7715C127.976 61.3496 127.068 60.7637 126.306 60.0137C125.556 59.252 124.976 58.3496 124.566 57.3066C124.168 56.2637 123.968 55.1035 123.968 53.8262C123.968 52.584 124.168 51.4355 124.566 50.3809C124.976 49.3145 125.556 48.4004 126.306 47.6387C127.068 46.8652 127.976 46.2734 129.031 45.8633C130.086 45.4414 131.252 45.2305 132.529 45.2305C133.83 45.2305 135.007 45.4414 136.062 45.8633C137.117 46.2734 138.019 46.8652 138.769 47.6387C139.531 48.4004 140.111 49.3145 140.509 50.3809C140.92 51.4355 141.125 52.584 141.125 53.8262ZM137.504 53.8262C137.504 53.0879 137.386 52.3906 137.152 51.7344C136.929 51.0664 136.601 50.498 136.168 50.0293C135.734 49.5605 135.207 49.1914 134.586 48.9219C133.976 48.6406 133.291 48.5 132.529 48.5C131.755 48.5 131.064 48.6406 130.455 48.9219C129.845 49.1914 129.33 49.5605 128.908 50.0293C128.486 50.498 128.158 51.0664 127.923 51.7344C127.701 52.3906 127.589 53.0879 127.589 53.8262C127.589 54.5996 127.701 55.3027 127.923 55.9355C128.158 56.5684 128.486 57.125 128.908 57.6055C129.33 58.0859 129.845 58.4609 130.455 58.7305C131.064 58.9883 131.755 59.1172 132.529 59.1172C133.291 59.1172 133.976 58.9883 134.586 58.7305C135.207 58.4609 135.734 58.0859 136.168 57.6055C136.601 57.125 136.929 56.5684 137.152 55.9355C137.386 55.3027 137.504 54.5996 137.504 53.8262ZM160.531 56.7793C160.343 58.502 159.664 59.873 158.492 60.8926C157.332 61.9004 155.879 62.4043 154.132 62.4043C153.172 62.4043 152.293 62.2461 151.496 61.9297C150.699 61.6133 150.019 61.1738 149.457 60.6113C148.894 60.0488 148.455 59.375 148.138 58.5898C147.834 57.793 147.681 56.9258 147.681 55.9883V48.9043H143.972V45.6172H147.681V39.0605H151.32V45.6172H158.193V48.9043H151.32V55.9883C151.32 57.043 151.578 57.8281 152.093 58.3438C152.609 58.8594 153.289 59.1172 154.132 59.1172C155.164 59.1172 155.931 58.8184 156.435 58.2207C156.939 57.623 157.238 56.9023 157.332 56.0586L160.531 56.7793ZM179.146 62H175.507V51.8926C175.507 50.6152 175.267 49.7305 174.787 49.2383C174.306 48.7461 173.609 48.5 172.695 48.5C171.347 48.5 170.246 49.0449 169.39 50.1348C168.547 51.2246 168.125 52.7305 168.125 54.6523V62H164.486V39.0605H168.125V49.7305C168.488 48.3125 169.162 47.2109 170.146 46.4258C171.13 45.6289 172.343 45.2305 173.785 45.2305C175.461 45.2305 176.773 45.7754 177.722 46.8652C178.672 47.9551 179.146 49.6309 179.146 51.8926V62ZM186.617 55.1973C186.793 56.3223 187.326 57.2598 188.216 58.0098C189.119 58.748 190.326 59.1172 191.838 59.1172C193.021 59.1172 194.047 58.9355 194.914 58.5723C195.793 58.1973 196.548 57.7051 197.181 57.0957L199.045 59.6621C197.99 60.7168 196.871 61.4375 195.687 61.8242C194.515 62.2109 193.232 62.4043 191.838 62.4043C190.572 62.4043 189.394 62.1934 188.304 61.7715C187.214 61.3496 186.271 60.7637 185.474 60.0137C184.677 59.252 184.05 58.3496 183.593 57.3066C183.148 56.2637 182.925 55.1035 182.925 53.8262C182.925 52.584 183.13 51.4414 183.541 50.3984C183.963 49.3438 184.548 48.4355 185.298 47.6738C186.06 46.9004 186.968 46.3027 188.023 45.8809C189.078 45.4473 190.244 45.2305 191.521 45.2305C192.845 45.2305 194.047 45.459 195.125 45.916C196.203 46.3613 197.123 47.0117 197.884 47.8672C198.658 48.7227 199.261 49.7715 199.695 51.0137C200.129 52.2441 200.345 53.6387 200.345 55.1973H186.617ZM196.232 51.998C196.045 50.9434 195.5 50.0996 194.597 49.4668C193.695 48.8223 192.67 48.5 191.521 48.5C190.373 48.5 189.341 48.8223 188.427 49.4668C187.513 50.0996 186.963 50.9434 186.775 51.998H196.232ZM218.873 57.0957C218.873 58.1621 218.632 59.0293 218.152 59.6973C217.672 60.3652 217.05 60.9043 216.289 61.3145C215.539 61.7246 214.695 62.0059 213.757 62.1582C212.832 62.3223 211.923 62.4043 211.033 62.4043C209.545 62.4043 208.062 62.1875 206.586 61.7539C205.109 61.3203 203.832 60.752 202.754 60.0488L204.265 57.0605C205.554 57.8105 206.732 58.3438 207.798 58.6602C208.877 58.9648 209.955 59.1172 211.033 59.1172C212.498 59.1172 213.564 58.9648 214.232 58.6602C214.9 58.3438 215.234 57.9102 215.234 57.3594C215.234 57.0898 215.14 56.8672 214.953 56.6914C214.765 56.5156 214.455 56.3574 214.021 56.2168C213.588 56.0645 213.013 55.918 212.298 55.7773C211.595 55.625 210.716 55.4668 209.662 55.3027C208.818 55.1621 208.015 54.9922 207.254 54.793C206.504 54.582 205.841 54.2891 205.267 53.9141C204.693 53.5391 204.23 53.0645 203.879 52.4902C203.539 51.916 203.369 51.1953 203.369 50.3281C203.369 49.4492 203.591 48.6875 204.037 48.043C204.494 47.3867 205.086 46.8477 205.812 46.4258C206.55 46.0039 207.377 45.6992 208.291 45.5117C209.205 45.3242 210.119 45.2305 211.033 45.2305C212.322 45.2305 213.57 45.4004 214.777 45.7402C215.996 46.0684 217.062 46.543 217.976 47.1641L216.535 49.9766C215.621 49.4023 214.73 49.0156 213.863 48.8164C213.007 48.6055 212.064 48.5 211.033 48.5C210.599 48.5 210.148 48.5234 209.679 48.5703C209.211 48.6172 208.777 48.7109 208.379 48.8516C207.98 48.9805 207.646 49.1621 207.377 49.3965C207.119 49.6191 206.99 49.8945 206.99 50.2227C206.99 50.6562 207.371 51.0137 208.132 51.2949C208.906 51.5645 210.218 51.834 212.07 52.1035C213.078 52.2441 213.998 52.4258 214.83 52.6484C215.662 52.8594 216.377 53.1523 216.974 53.5273C217.572 53.8906 218.035 54.3652 218.363 54.9512C218.703 55.5254 218.873 56.2402 218.873 57.0957Z" fill="#F5F5F5"/>
</svg>
