<svg width="300" height="102" viewBox="0 0 300 102" fill="none" xmlns="http://www.w3.org/2000/svg">
<path d="M3.30822 29.0203C1.57015 13.7737 13.8509 0.574356 29.1831 1.21013L156.751 6.5L268.993 1.40697C284.93 0.683834 297.457 14.8702 294.768 30.595L291.921 47.2446C291.44 50.0607 291.445 52.9385 291.935 55.753L294.612 71.1041C297.371 86.9221 284.715 101.202 268.681 100.365L146.771 94L29.6188 100.386C14.1422 101.229 1.63552 87.9316 3.42535 72.5357L5.53848 54.3589C5.75933 52.4592 5.76146 50.5405 5.54485 48.6404L3.30822 29.0203Z" fill="#FFA352"/>
<path d="M63.3492 50.5215C63.3492 52.0566 63.1852 53.5215 62.8571 54.916C62.5406 56.2988 62.025 57.5176 61.3102 58.5723C60.6071 59.6152 59.693 60.4473 58.568 61.0684C57.4547 61.6895 56.1071 62 54.525 62H47.0719V39.0605H54.525C56.0836 39.0605 57.4196 39.377 58.5328 40.0098C59.6578 40.6309 60.5719 41.4629 61.275 42.5059C61.9899 43.5488 62.5114 44.7617 62.8395 46.1445C63.1793 47.5273 63.3492 48.9863 63.3492 50.5215ZM59.7106 50.5215C59.7106 47.873 59.2594 45.8516 58.3571 44.457C57.4547 43.0508 56.1774 42.3477 54.525 42.3477H50.7106V58.7305H54.525C56.1774 58.7305 57.4547 58.0156 58.3571 56.5859C59.2594 55.1562 59.7106 53.1348 59.7106 50.5215ZM69.2028 55.1973C69.3785 56.3223 69.9117 57.2598 70.8024 58.0098C71.7047 58.748 72.9117 59.1172 74.4235 59.1172C75.6071 59.1172 76.6324 58.9355 77.4996 58.5723C78.3785 58.1973 79.1344 57.7051 79.7672 57.0957L81.6305 59.6621C80.5758 60.7168 79.4567 61.4375 78.2731 61.8242C77.1012 62.2109 75.818 62.4043 74.4235 62.4043C73.1578 62.4043 71.9801 62.1934 70.8903 61.7715C69.8004 61.3496 68.8571 60.7637 68.0602 60.0137C67.2633 59.252 66.6364 58.3496 66.1793 57.3066C65.734 56.2637 65.5114 55.1035 65.5114 53.8262C65.5114 52.584 65.7164 51.4414 66.1266 50.3984C66.5485 49.3438 67.1344 48.4355 67.8844 47.6738C68.6461 46.9004 69.5543 46.3027 70.609 45.8809C71.6637 45.4473 72.8297 45.2305 74.1071 45.2305C75.4313 45.2305 76.6324 45.459 77.7106 45.916C78.7887 46.3613 79.7086 47.0117 80.4703 47.8672C81.2438 48.7227 81.8473 49.7715 82.2809 51.0137C82.7145 52.2441 82.9313 53.6387 82.9313 55.1973H69.2028ZM78.818 51.998C78.6305 50.9434 78.0856 50.0996 77.1832 49.4668C76.2809 48.8223 75.2555 48.5 74.1071 48.5C72.9586 48.5 71.9274 48.8223 71.0133 49.4668C70.0992 50.0996 69.5485 50.9434 69.361 51.998H78.818ZM101.283 59.6621C100.228 60.7168 99.1149 61.4375 97.943 61.8242C96.7828 62.2109 95.5231 62.4043 94.1637 62.4043C92.7926 62.4043 91.5446 62.1992 90.4196 61.7891C89.3063 61.3789 88.3571 60.8047 87.5719 60.0664C86.7985 59.3164 86.2008 58.4141 85.7789 57.3594C85.3688 56.3047 85.1637 55.127 85.1637 53.8262C85.1637 52.584 85.3688 51.4355 85.7789 50.3809C86.2008 49.3145 86.7633 48.4062 87.4664 47.6562C88.1813 46.8945 89.0192 46.3027 89.9801 45.8809C90.941 45.4473 91.9606 45.2305 93.0387 45.2305C94.1637 45.2305 95.1422 45.4648 95.9742 45.9336C96.8063 46.4023 97.4098 47.0879 97.7848 47.9902V45.6172H101.037V53.2461H97.7848C97.7848 51.8047 97.3864 50.6562 96.5895 49.8008C95.8043 48.9336 94.7789 48.5 93.5133 48.5C93.0094 48.5 92.4762 48.6055 91.9137 48.8164C91.3629 49.0156 90.8531 49.332 90.3844 49.7656C89.9274 50.1992 89.5465 50.75 89.2418 51.418C88.9371 52.0859 88.7848 52.8887 88.7848 53.8262C88.7848 54.7402 88.9313 55.5312 89.2242 56.1992C89.5172 56.8555 89.8981 57.4004 90.3668 57.834C90.8473 58.2559 91.4098 58.5781 92.0543 58.8008C92.7106 59.0117 93.3844 59.1172 94.0758 59.1172C95.2594 59.1172 96.2848 58.9355 97.152 58.5723C98.0309 58.1973 98.7867 57.7051 99.4196 57.0957L101.283 59.6621ZM121.972 53.8262C121.972 55.1035 121.767 56.2637 121.357 57.3066C120.959 58.3496 120.379 59.252 119.617 60.0137C118.867 60.7637 117.964 61.3496 116.91 61.7715C115.855 62.1934 114.677 62.4043 113.377 62.4043C112.099 62.4043 110.933 62.1934 109.879 61.7715C108.824 61.3496 107.916 60.7637 107.154 60.0137C106.404 59.252 105.824 58.3496 105.414 57.3066C105.015 56.2637 104.816 55.1035 104.816 53.8262C104.816 52.584 105.015 51.4355 105.414 50.3809C105.824 49.3145 106.404 48.4004 107.154 47.6387C107.916 46.8652 108.824 46.2734 109.879 45.8633C110.933 45.4414 112.099 45.2305 113.377 45.2305C114.677 45.2305 115.855 45.4414 116.91 45.8633C117.964 46.2734 118.867 46.8652 119.617 47.6387C120.379 48.4004 120.959 49.3145 121.357 50.3809C121.767 51.4355 121.972 52.584 121.972 53.8262ZM118.351 53.8262C118.351 53.0879 118.234 52.3906 118 51.7344C117.777 51.0664 117.449 50.498 117.015 50.0293C116.582 49.5605 116.054 49.1914 115.433 48.9219C114.824 48.6406 114.138 48.5 113.377 48.5C112.603 48.5 111.912 48.6406 111.302 48.9219C110.693 49.1914 110.177 49.5605 109.755 50.0293C109.334 50.498 109.005 51.0664 108.771 51.7344C108.548 52.3906 108.437 53.0879 108.437 53.8262C108.437 54.5996 108.548 55.3027 108.771 55.9355C109.005 56.5684 109.334 57.125 109.755 57.6055C110.177 58.0859 110.693 58.4609 111.302 58.7305C111.912 58.9883 112.603 59.1172 113.377 59.1172C114.138 59.1172 114.824 58.9883 115.433 58.7305C116.054 58.4609 116.582 58.0859 117.015 57.6055C117.449 57.125 117.777 56.5684 118 55.9355C118.234 55.3027 118.351 54.5996 118.351 53.8262ZM140.798 49.502C140.365 49.291 139.92 49.1328 139.463 49.0273C139.017 48.9102 138.502 48.8516 137.916 48.8516C137.107 48.8516 136.345 48.9746 135.63 49.2207C134.927 49.4551 134.318 49.8125 133.802 50.293C133.287 50.7734 132.882 51.377 132.589 52.1035C132.308 52.8184 132.168 53.668 132.168 54.6523V58.7305H135.841V62H124.82V58.7305H128.529V48.9043H124.82V45.6172H132.168V49.7305C132.765 48.0898 133.644 46.9297 134.804 46.25C135.976 45.5703 137.365 45.2305 138.97 45.2305C139.474 45.2305 140.002 45.2832 140.552 45.3887C141.103 45.4941 141.642 45.6816 142.17 45.9512L140.798 49.502ZM144.402 57.2891C144.402 56.3281 144.66 55.4902 145.175 54.7754C145.691 54.0488 146.365 53.4453 147.197 52.9648C148.041 52.4844 149.002 52.127 150.08 51.8926C151.17 51.6465 152.277 51.5234 153.402 51.5234C154.023 51.5234 154.556 51.5352 155.002 51.5586C155.447 51.582 155.898 51.6172 156.355 51.6641V51.0137C156.355 50.1582 156.021 49.5195 155.353 49.0977C154.697 48.6758 153.83 48.4648 152.752 48.4648C151.767 48.4648 150.765 48.6055 149.746 48.8867C148.726 49.1562 147.759 49.5547 146.845 50.082L145.369 47.2344C146.447 46.6133 147.601 46.127 148.832 45.7754C150.074 45.4121 151.38 45.2305 152.752 45.2305C153.642 45.2305 154.515 45.3301 155.371 45.5293C156.238 45.7285 157.011 46.0566 157.691 46.5137C158.382 46.9707 158.933 47.5684 159.343 48.3066C159.754 49.0332 159.959 49.9355 159.959 51.0137V62H156.355V59.5918C155.781 60.4824 154.931 61.1738 153.806 61.666C152.693 62.1582 151.492 62.4043 150.203 62.4043C149.406 62.4043 148.65 62.293 147.935 62.0703C147.232 61.8594 146.623 61.5371 146.107 61.1035C145.591 60.6699 145.175 60.1367 144.859 59.5039C144.554 58.8594 144.402 58.1211 144.402 57.2891ZM151.134 59.1523C151.849 59.1523 152.517 59.0645 153.138 58.8887C153.771 58.7012 154.328 58.4492 154.808 58.1328C155.289 57.8047 155.664 57.4121 155.933 56.9551C156.214 56.498 156.355 55.9941 156.355 55.4434V54.8281C155.781 54.7344 155.242 54.6816 154.738 54.6699C154.234 54.6582 153.789 54.6523 153.402 54.6523C151.621 54.6523 150.273 54.8867 149.359 55.3555C148.457 55.8242 148.005 56.4043 148.005 57.0957C148.005 58.4668 149.048 59.1523 151.134 59.1523ZM180.683 56.7793C180.496 58.502 179.816 59.873 178.644 60.8926C177.484 61.9004 176.031 62.4043 174.285 62.4043C173.324 62.4043 172.445 62.2461 171.648 61.9297C170.851 61.6133 170.172 61.1738 169.609 60.6113C169.047 60.0488 168.607 59.375 168.291 58.5898C167.986 57.793 167.834 56.9258 167.834 55.9883V48.9043H164.125V45.6172H167.834V39.0605H171.472V45.6172H178.345V48.9043H171.472V55.9883C171.472 57.043 171.73 57.8281 172.246 58.3438C172.761 58.8594 173.441 59.1172 174.285 59.1172C175.316 59.1172 176.084 58.8184 176.588 58.2207C177.091 57.623 177.39 56.9023 177.484 56.0586L180.683 56.7793ZM194.183 43.4902H189.754V39.0605H194.183V43.4902ZM197.523 62H186.519V58.7305H190.14V48.9043H186.519V45.6172H193.779V58.7305H197.523V62ZM220.234 53.8262C220.234 55.1035 220.029 56.2637 219.619 57.3066C219.22 58.3496 218.64 59.252 217.879 60.0137C217.129 60.7637 216.226 61.3496 215.172 61.7715C214.117 62.1934 212.939 62.4043 211.638 62.4043C210.361 62.4043 209.195 62.1934 208.14 61.7715C207.086 61.3496 206.177 60.7637 205.416 60.0137C204.666 59.252 204.086 58.3496 203.675 57.3066C203.277 56.2637 203.078 55.1035 203.078 53.8262C203.078 52.584 203.277 51.4355 203.675 50.3809C204.086 49.3145 204.666 48.4004 205.416 47.6387C206.177 46.8652 207.086 46.2734 208.14 45.8633C209.195 45.4414 210.361 45.2305 211.638 45.2305C212.939 45.2305 214.117 45.4414 215.172 45.8633C216.226 46.2734 217.129 46.8652 217.879 47.6387C218.64 48.4004 219.22 49.3145 219.619 50.3809C220.029 51.4355 220.234 52.584 220.234 53.8262ZM216.613 53.8262C216.613 53.0879 216.496 52.3906 216.261 51.7344C216.039 51.0664 215.711 50.498 215.277 50.0293C214.843 49.5605 214.316 49.1914 213.695 48.9219C213.086 48.6406 212.4 48.5 211.638 48.5C210.865 48.5 210.173 48.6406 209.564 48.9219C208.955 49.1914 208.439 49.5605 208.017 50.0293C207.595 50.498 207.267 51.0664 207.033 51.7344C206.81 52.3906 206.699 53.0879 206.699 53.8262C206.699 54.5996 206.81 55.3027 207.033 55.9355C207.267 56.5684 207.595 57.125 208.017 57.6055C208.439 58.0859 208.955 58.4609 209.564 58.7305C210.173 58.9883 210.865 59.1172 211.638 59.1172C212.4 59.1172 213.086 58.9883 213.695 58.7305C214.316 58.4609 214.843 58.0859 215.277 57.6055C215.711 57.125 216.039 56.5684 216.261 55.9355C216.496 55.3027 216.613 54.5996 216.613 53.8262ZM238.603 62H234.964V51.8926C234.964 50.6152 234.724 49.7305 234.244 49.2383C233.763 48.7461 233.066 48.5 232.152 48.5C230.804 48.5 229.703 49.0449 228.847 50.1348C228.004 51.2246 227.582 52.7305 227.582 54.6523V62H223.943V45.6172H227.582V49.7305C227.945 48.3125 228.619 47.2109 229.603 46.4258C230.588 45.6289 231.8 45.2305 233.242 45.2305C234.918 45.2305 236.23 45.7754 237.179 46.8652C238.129 47.9551 238.603 49.6309 238.603 51.8926V62ZM258.677 57.0957C258.677 58.1621 258.437 59.0293 257.957 59.6973C257.476 60.3652 256.855 60.9043 256.093 61.3145C255.343 61.7246 254.5 62.0059 253.562 62.1582C252.636 62.3223 251.728 62.4043 250.838 62.4043C249.349 62.4043 247.867 62.1875 246.39 61.7539C244.914 61.3203 243.636 60.752 242.558 60.0488L244.07 57.0605C245.359 57.8105 246.537 58.3438 247.603 58.6602C248.681 58.9648 249.759 59.1172 250.838 59.1172C252.302 59.1172 253.369 58.9648 254.037 58.6602C254.705 58.3438 255.039 57.9102 255.039 57.3594C255.039 57.0898 254.945 56.8672 254.757 56.6914C254.57 56.5156 254.259 56.3574 253.826 56.2168C253.392 56.0645 252.818 55.918 252.103 55.7773C251.4 55.625 250.521 55.4668 249.466 55.3027C248.623 55.1621 247.82 54.9922 247.058 54.793C246.308 54.582 245.646 54.2891 245.072 53.9141C244.498 53.5391 244.035 53.0645 243.683 52.4902C243.343 51.916 243.173 51.1953 243.173 50.3281C243.173 49.4492 243.396 48.6875 243.841 48.043C244.298 47.3867 244.89 46.8477 245.617 46.4258C246.355 46.0039 247.181 45.6992 248.095 45.5117C249.009 45.3242 249.923 45.2305 250.838 45.2305C252.127 45.2305 253.375 45.4004 254.582 45.7402C255.8 46.0684 256.867 46.543 257.781 47.1641L256.339 49.9766C255.425 49.4023 254.535 49.0156 253.668 48.8164C252.812 48.6055 251.869 48.5 250.838 48.5C250.404 48.5 249.953 48.5234 249.484 48.5703C249.015 48.6172 248.582 48.7109 248.183 48.8516C247.785 48.9805 247.451 49.1621 247.181 49.3965C246.923 49.6191 246.795 49.8945 246.795 50.2227C246.795 50.6562 247.175 51.0137 247.937 51.2949C248.711 51.5645 250.023 51.834 251.875 52.1035C252.882 52.2441 253.802 52.4258 254.634 52.6484C255.466 52.8594 256.181 53.1523 256.779 53.5273C257.377 53.8906 257.839 54.3652 258.168 54.9512C258.507 55.5254 258.677 56.2402 258.677 57.0957Z" fill="#F5F5F5"/>
</svg>
