<svg width="300" height="102" viewBox="0 0 300 102" fill="none" xmlns="http://www.w3.org/2000/svg">
<path d="M3.30822 29.0203C1.57015 13.7737 13.8509 0.574356 29.1831 1.21013L156.751 6.5L268.993 1.40697C284.93 0.683834 297.457 14.8702 294.768 30.595L291.921 47.2446C291.44 50.0607 291.445 52.9385 291.935 55.753L294.612 71.1041C297.371 86.9221 284.715 101.202 268.681 100.365L146.771 94L29.6188 100.386C14.1422 101.229 1.63552 87.9316 3.42535 72.5357L5.53848 54.3589C5.75933 52.4592 5.76146 50.5405 5.54485 48.6404L3.30822 29.0203Z" fill="#FFA352"/>
<path d="M59.8512 62L58.1989 56.5332H50.6051L48.9879 62H45.1735L52.3278 39.0605H56.5114L63.6656 62H59.8512ZM51.5719 53.3164H57.2321L54.4196 43.8594L51.5719 53.3164ZM81.6305 59.6621C80.5758 60.7168 79.4625 61.4375 78.2906 61.8242C77.1305 62.2109 75.8707 62.4043 74.5114 62.4043C73.1403 62.4043 71.8922 62.1992 70.7672 61.7891C69.6539 61.3789 68.7047 60.8047 67.9196 60.0664C67.1461 59.3164 66.5485 58.4141 66.1266 57.3594C65.7164 56.3047 65.5114 55.127 65.5114 53.8262C65.5114 52.584 65.7164 51.4355 66.1266 50.3809C66.5485 49.3145 67.111 48.4062 67.8141 47.6562C68.5289 46.8945 69.3668 46.3027 70.3278 45.8809C71.2887 45.4473 72.3082 45.2305 73.3864 45.2305C74.5114 45.2305 75.4899 45.4648 76.3219 45.9336C77.1539 46.4023 77.7574 47.0879 78.1324 47.9902V45.6172H81.3844V53.2461H78.1324C78.1324 51.8047 77.734 50.6562 76.9371 49.8008C76.152 48.9336 75.1266 48.5 73.861 48.5C73.3571 48.5 72.8239 48.6055 72.2614 48.8164C71.7106 49.0156 71.2008 49.332 70.7321 49.7656C70.275 50.1992 69.8942 50.75 69.5895 51.418C69.2848 52.0859 69.1324 52.8887 69.1324 53.8262C69.1324 54.7402 69.2789 55.5312 69.5719 56.1992C69.8649 56.8555 70.2457 57.4004 70.7145 57.834C71.1949 58.2559 71.7574 58.5781 72.402 58.8008C73.0582 59.0117 73.7321 59.1172 74.4235 59.1172C75.6071 59.1172 76.6324 58.9355 77.4996 58.5723C78.3785 58.1973 79.1344 57.7051 79.7672 57.0957L81.6305 59.6621ZM101.283 59.6621C100.228 60.7168 99.1149 61.4375 97.943 61.8242C96.7828 62.2109 95.5231 62.4043 94.1637 62.4043C92.7926 62.4043 91.5446 62.1992 90.4196 61.7891C89.3063 61.3789 88.3571 60.8047 87.5719 60.0664C86.7985 59.3164 86.2008 58.4141 85.7789 57.3594C85.3688 56.3047 85.1637 55.127 85.1637 53.8262C85.1637 52.584 85.3688 51.4355 85.7789 50.3809C86.2008 49.3145 86.7633 48.4062 87.4664 47.6562C88.1813 46.8945 89.0192 46.3027 89.9801 45.8809C90.941 45.4473 91.9606 45.2305 93.0387 45.2305C94.1637 45.2305 95.1422 45.4648 95.9742 45.9336C96.8063 46.4023 97.4098 47.0879 97.7848 47.9902V45.6172H101.037V53.2461H97.7848C97.7848 51.8047 97.3864 50.6562 96.5895 49.8008C95.8043 48.9336 94.7789 48.5 93.5133 48.5C93.0094 48.5 92.4762 48.6055 91.9137 48.8164C91.3629 49.0156 90.8531 49.332 90.3844 49.7656C89.9274 50.1992 89.5465 50.75 89.2418 51.418C88.9371 52.0859 88.7848 52.8887 88.7848 53.8262C88.7848 54.7402 88.9313 55.5312 89.2242 56.1992C89.5172 56.8555 89.8981 57.4004 90.3668 57.834C90.8473 58.2559 91.4098 58.5781 92.0543 58.8008C92.7106 59.0117 93.3844 59.1172 94.0758 59.1172C95.2594 59.1172 96.2848 58.9355 97.152 58.5723C98.0309 58.1973 98.7867 57.7051 99.4196 57.0957L101.283 59.6621ZM108.507 55.1973C108.683 56.3223 109.216 57.2598 110.107 58.0098C111.009 58.748 112.216 59.1172 113.728 59.1172C114.912 59.1172 115.937 58.9355 116.804 58.5723C117.683 58.1973 118.439 57.7051 119.072 57.0957L120.935 59.6621C119.88 60.7168 118.761 61.4375 117.578 61.8242C116.406 62.2109 115.123 62.4043 113.728 62.4043C112.463 62.4043 111.285 62.1934 110.195 61.7715C109.105 61.3496 108.162 60.7637 107.365 60.0137C106.568 59.252 105.941 58.3496 105.484 57.3066C105.039 56.2637 104.816 55.1035 104.816 53.8262C104.816 52.584 105.021 51.4414 105.431 50.3984C105.853 49.3438 106.439 48.4355 107.189 47.6738C107.951 46.9004 108.859 46.3027 109.914 45.8809C110.968 45.4473 112.134 45.2305 113.412 45.2305C114.736 45.2305 115.937 45.459 117.015 45.916C118.093 46.3613 119.013 47.0117 119.775 47.8672C120.548 48.7227 121.152 49.7715 121.586 51.0137C122.019 52.2441 122.236 53.6387 122.236 55.1973H108.507ZM118.123 51.998C117.935 50.9434 117.39 50.0996 116.488 49.4668C115.586 48.8223 114.56 48.5 113.412 48.5C112.263 48.5 111.232 48.8223 110.318 49.4668C109.404 50.0996 108.853 50.9434 108.666 51.998H118.123ZM140.763 57.0957C140.763 58.1621 140.523 59.0293 140.043 59.6973C139.562 60.3652 138.941 60.9043 138.179 61.3145C137.429 61.7246 136.586 62.0059 135.648 62.1582C134.722 62.3223 133.814 62.4043 132.923 62.4043C131.435 62.4043 129.953 62.1875 128.476 61.7539C127 61.3203 125.722 60.752 124.644 60.0488L126.156 57.0605C127.445 57.8105 128.623 58.3438 129.689 58.6602C130.767 58.9648 131.845 59.1172 132.923 59.1172C134.388 59.1172 135.455 58.9648 136.123 58.6602C136.791 58.3438 137.125 57.9102 137.125 57.3594C137.125 57.0898 137.031 56.8672 136.843 56.6914C136.656 56.5156 136.345 56.3574 135.912 56.2168C135.478 56.0645 134.904 55.918 134.189 55.7773C133.486 55.625 132.607 55.4668 131.552 55.3027C130.709 55.1621 129.906 54.9922 129.144 54.793C128.394 54.582 127.732 54.2891 127.158 53.9141C126.584 53.5391 126.121 53.0645 125.769 52.4902C125.429 51.916 125.259 51.1953 125.259 50.3281C125.259 49.4492 125.482 48.6875 125.927 48.043C126.384 47.3867 126.976 46.8477 127.703 46.4258C128.441 46.0039 129.267 45.6992 130.181 45.5117C131.095 45.3242 132.009 45.2305 132.923 45.2305C134.213 45.2305 135.461 45.4004 136.668 45.7402C137.886 46.0684 138.953 46.543 139.867 47.1641L138.425 49.9766C137.511 49.4023 136.621 49.0156 135.754 48.8164C134.898 48.6055 133.955 48.5 132.923 48.5C132.49 48.5 132.039 48.5234 131.57 48.5703C131.101 48.6172 130.668 48.7109 130.269 48.8516C129.871 48.9805 129.537 49.1621 129.267 49.3965C129.009 49.6191 128.88 49.8945 128.88 50.2227C128.88 50.6562 129.261 51.0137 130.023 51.2949C130.797 51.5645 132.109 51.834 133.961 52.1035C134.968 52.2441 135.888 52.4258 136.72 52.6484C137.552 52.8594 138.267 53.1523 138.865 53.5273C139.463 53.8906 139.925 54.3652 140.254 54.9512C140.593 55.5254 140.763 56.2402 140.763 57.0957ZM160.416 57.0957C160.416 58.1621 160.175 59.0293 159.695 59.6973C159.214 60.3652 158.593 60.9043 157.832 61.3145C157.082 61.7246 156.238 62.0059 155.3 62.1582C154.375 62.3223 153.466 62.4043 152.576 62.4043C151.088 62.4043 149.605 62.1875 148.129 61.7539C146.652 61.3203 145.375 60.752 144.297 60.0488L145.808 57.0605C147.097 57.8105 148.275 58.3438 149.341 58.6602C150.42 58.9648 151.498 59.1172 152.576 59.1172C154.041 59.1172 155.107 58.9648 155.775 58.6602C156.443 58.3438 156.777 57.9102 156.777 57.3594C156.777 57.0898 156.683 56.8672 156.496 56.6914C156.308 56.5156 155.998 56.3574 155.564 56.2168C155.13 56.0645 154.556 55.918 153.841 55.7773C153.138 55.625 152.259 55.4668 151.205 55.3027C150.361 55.1621 149.558 54.9922 148.797 54.793C148.047 54.582 147.384 54.2891 146.81 53.9141C146.236 53.5391 145.773 53.0645 145.422 52.4902C145.082 51.916 144.912 51.1953 144.912 50.3281C144.912 49.4492 145.134 48.6875 145.58 48.043C146.037 47.3867 146.629 46.8477 147.355 46.4258C148.093 46.0039 148.92 45.6992 149.834 45.5117C150.748 45.3242 151.662 45.2305 152.576 45.2305C153.865 45.2305 155.113 45.4004 156.32 45.7402C157.539 46.0684 158.605 46.543 159.519 47.1641L158.078 49.9766C157.164 49.4023 156.273 49.0156 155.406 48.8164C154.55 48.6055 153.607 48.5 152.576 48.5C152.142 48.5 151.691 48.5234 151.222 48.5703C150.754 48.6172 150.32 48.7109 149.922 48.8516C149.523 48.9805 149.189 49.1621 148.92 49.3965C148.662 49.6191 148.533 49.8945 148.533 50.2227C148.533 50.6562 148.914 51.0137 149.675 51.2949C150.449 51.5645 151.761 51.834 153.613 52.1035C154.621 52.2441 155.541 52.4258 156.373 52.6484C157.205 52.8594 157.92 53.1523 158.517 53.5273C159.115 53.8906 159.578 54.3652 159.906 54.9512C160.246 55.5254 160.416 56.2402 160.416 57.0957ZM180.929 53.8262C180.929 55.1035 180.724 56.2637 180.314 57.3066C179.916 58.3496 179.336 59.252 178.574 60.0137C177.824 60.7637 176.922 61.3496 175.867 61.7715C174.812 62.1934 173.634 62.4043 172.334 62.4043C171.056 62.4043 169.89 62.1934 168.836 61.7715C167.781 61.3496 166.873 60.7637 166.111 60.0137C165.361 59.252 164.781 58.3496 164.371 57.3066C163.972 56.2637 163.773 55.1035 163.773 53.8262C163.773 52.584 163.972 51.4355 164.371 50.3809C164.781 49.3145 165.361 48.4004 166.111 47.6387C166.873 46.8652 167.781 46.2734 168.836 45.8633C169.89 45.4414 171.056 45.2305 172.334 45.2305C173.634 45.2305 174.812 45.4414 175.867 45.8633C176.922 46.2734 177.824 46.8652 178.574 47.6387C179.336 48.4004 179.916 49.3145 180.314 50.3809C180.724 51.4355 180.929 52.584 180.929 53.8262ZM177.308 53.8262C177.308 53.0879 177.191 52.3906 176.957 51.7344C176.734 51.0664 176.406 50.498 175.972 50.0293C175.539 49.5605 175.011 49.1914 174.39 48.9219C173.781 48.6406 173.095 48.5 172.334 48.5C171.56 48.5 170.869 48.6406 170.259 48.9219C169.65 49.1914 169.134 49.5605 168.713 50.0293C168.291 50.498 167.963 51.0664 167.728 51.7344C167.505 52.3906 167.394 53.0879 167.394 53.8262C167.394 54.5996 167.505 55.3027 167.728 55.9355C167.963 56.5684 168.291 57.125 168.713 57.6055C169.134 58.0859 169.65 58.4609 170.259 58.7305C170.869 58.9883 171.56 59.1172 172.334 59.1172C173.095 59.1172 173.781 58.9883 174.39 58.7305C175.011 58.4609 175.539 58.0859 175.972 57.6055C176.406 57.125 176.734 56.5684 176.957 55.9355C177.191 55.3027 177.308 54.5996 177.308 53.8262ZM199.755 49.502C199.322 49.291 198.877 49.1328 198.42 49.0273C197.974 48.9102 197.459 48.8516 196.873 48.8516C196.064 48.8516 195.302 48.9746 194.588 49.2207C193.884 49.4551 193.275 49.8125 192.759 50.293C192.244 50.7734 191.839 51.377 191.547 52.1035C191.265 52.8184 191.125 53.668 191.125 54.6523V58.7305H194.798V62H183.777V58.7305H187.486V48.9043H183.777V45.6172H191.125V49.7305C191.722 48.0898 192.601 46.9297 193.761 46.25C194.933 45.5703 196.322 45.2305 197.927 45.2305C198.431 45.2305 198.959 45.2832 199.509 45.3887C200.06 45.4941 200.599 45.6816 201.127 45.9512L199.755 49.502ZM213.836 43.4902H209.406V39.0605H213.836V43.4902ZM217.175 62H206.172V58.7305H209.793V48.9043H206.172V45.6172H213.431V58.7305H217.175V62ZM226.422 55.1973C226.597 56.3223 227.13 57.2598 228.021 58.0098C228.923 58.748 230.13 59.1172 231.642 59.1172C232.826 59.1172 233.851 58.9355 234.718 58.5723C235.597 58.1973 236.353 57.7051 236.986 57.0957L238.849 59.6621C237.795 60.7168 236.675 61.4375 235.492 61.8242C234.32 62.2109 233.037 62.4043 231.642 62.4043C230.377 62.4043 229.199 62.1934 228.109 61.7715C227.019 61.3496 226.076 60.7637 225.279 60.0137C224.482 59.252 223.855 58.3496 223.398 57.3066C222.953 56.2637 222.73 55.1035 222.73 53.8262C222.73 52.584 222.935 51.4414 223.345 50.3984C223.767 49.3438 224.353 48.4355 225.103 47.6738C225.865 46.9004 226.773 46.3027 227.828 45.8809C228.882 45.4473 230.048 45.2305 231.326 45.2305C232.65 45.2305 233.851 45.459 234.929 45.916C236.007 46.3613 236.927 47.0117 237.689 47.8672C238.463 48.7227 239.066 49.7715 239.5 51.0137C239.933 52.2441 240.15 53.6387 240.15 55.1973H226.422ZM236.037 51.998C235.849 50.9434 235.304 50.0996 234.402 49.4668C233.5 48.8223 232.474 48.5 231.326 48.5C230.177 48.5 229.146 48.8223 228.232 49.4668C227.318 50.0996 226.767 50.9434 226.58 51.998H236.037ZM258.677 57.0957C258.677 58.1621 258.437 59.0293 257.957 59.6973C257.476 60.3652 256.855 60.9043 256.093 61.3145C255.343 61.7246 254.5 62.0059 253.562 62.1582C252.636 62.3223 251.728 62.4043 250.838 62.4043C249.349 62.4043 247.867 62.1875 246.39 61.7539C244.914 61.3203 243.636 60.752 242.558 60.0488L244.07 57.0605C245.359 57.8105 246.537 58.3438 247.603 58.6602C248.681 58.9648 249.759 59.1172 250.838 59.1172C252.302 59.1172 253.369 58.9648 254.037 58.6602C254.705 58.3438 255.039 57.9102 255.039 57.3594C255.039 57.0898 254.945 56.8672 254.757 56.6914C254.57 56.5156 254.259 56.3574 253.826 56.2168C253.392 56.0645 252.818 55.918 252.103 55.7773C251.4 55.625 250.521 55.4668 249.466 55.3027C248.623 55.1621 247.82 54.9922 247.058 54.793C246.308 54.582 245.646 54.2891 245.072 53.9141C244.498 53.5391 244.035 53.0645 243.683 52.4902C243.343 51.916 243.173 51.1953 243.173 50.3281C243.173 49.4492 243.396 48.6875 243.841 48.043C244.298 47.3867 244.89 46.8477 245.617 46.4258C246.355 46.0039 247.181 45.6992 248.095 45.5117C249.009 45.3242 249.923 45.2305 250.838 45.2305C252.127 45.2305 253.375 45.4004 254.582 45.7402C255.8 46.0684 256.867 46.543 257.781 47.1641L256.339 49.9766C255.425 49.4023 254.535 49.0156 253.668 48.8164C252.812 48.6055 251.869 48.5 250.838 48.5C250.404 48.5 249.953 48.5234 249.484 48.5703C249.015 48.6172 248.582 48.7109 248.183 48.8516C247.785 48.9805 247.451 49.1621 247.181 49.3965C246.923 49.6191 246.795 49.8945 246.795 50.2227C246.795 50.6562 247.175 51.0137 247.937 51.2949C248.711 51.5645 250.023 51.834 251.875 52.1035C252.882 52.2441 253.802 52.4258 254.634 52.6484C255.466 52.8594 256.181 53.1523 256.779 53.5273C257.377 53.8906 257.839 54.3652 258.168 54.9512C258.507 55.5254 258.677 56.2402 258.677 57.0957Z" fill="#F5F5F5"/>
</svg>
