<svg width="182" height="79" viewBox="0 0 182 79" fill="none" xmlns="http://www.w3.org/2000/svg">
<path d="M2.56382 28.7125C1.21068 13.5585 13.5934 0.719626 28.7864 1.52393L95.0959 5.03431L151.753 1.75217C167.438 0.84356 180.064 14.4571 177.978 30.0292L177.106 36.5356C176.809 38.7599 176.811 41.0142 177.115 43.2378L177.852 48.6337C179.994 64.3144 167.211 78.0142 151.42 76.9617L89.0411 72.8039L29.2956 76.9614C13.9335 78.0304 1.26662 65.0904 2.66311 49.7546L3.3572 42.1324C3.49322 40.6387 3.49454 39.1357 3.36114 37.6418L2.56382 28.7125Z" fill="#FFA352"/>
<path d="M41.1155 42.5452C40.8343 43.6702 40.4593 44.6897 39.9905 45.6038C39.5218 46.5178 38.9476 47.2971 38.2679 47.9417C37.5999 48.5862 36.8148 49.0842 35.9124 49.4358C35.0218 49.7874 33.9964 49.9631 32.8362 49.9631C31.2308 49.9631 29.8714 49.635 28.7581 48.9788C27.6448 48.3108 26.7308 47.426 26.0159 46.3245C25.3128 45.2112 24.803 43.9456 24.4866 42.5276C24.1819 41.0979 24.0296 39.6155 24.0296 38.0803C24.0296 36.5452 24.1819 35.0627 24.4866 33.6331C24.803 32.2034 25.3069 30.9436 25.9984 29.8538C26.7015 28.7639 27.5921 27.8909 28.6702 27.2346C29.7484 26.5667 31.0667 26.2327 32.6253 26.2327C33.1292 26.2327 33.639 26.2971 34.1546 26.426C34.6702 26.5549 35.1507 26.7542 35.596 27.0237C36.0413 27.2815 36.428 27.6038 36.7562 27.9905C37.096 28.3772 37.3362 28.8225 37.4769 29.3264V26.6194H40.764V35.303H37.4769C37.4769 34.5881 37.389 33.885 37.2132 33.1936C37.0374 32.4905 36.7562 31.8694 36.3694 31.3303C35.9827 30.7913 35.4964 30.3518 34.9105 30.012C34.3245 29.6721 33.6331 29.5022 32.8362 29.5022C31.805 29.5022 30.9612 29.7542 30.305 30.2581C29.6487 30.762 29.1214 31.4241 28.723 32.2444C28.3245 33.0647 28.0433 33.9846 27.8792 35.0042C27.7269 36.0237 27.6507 37.0491 27.6507 38.0803C27.6507 39.1116 27.7269 40.1428 27.8792 41.1741C28.0433 42.2053 28.3187 43.1311 28.7054 43.9514C29.0921 44.76 29.6194 45.4163 30.2874 45.9202C30.9554 46.4241 31.805 46.676 32.8362 46.676C34.3245 46.676 35.4671 46.2014 36.264 45.2522C37.0726 44.303 37.7171 43.0256 38.1976 41.4202L41.1155 42.5452ZM60.8382 41.385C60.8382 42.6624 60.6331 43.8225 60.223 44.8655C59.8245 45.9084 59.2444 46.8108 58.4827 47.5725C57.7327 48.3225 56.8304 48.9084 55.7757 49.3303C54.721 49.7522 53.5433 49.9631 52.2425 49.9631C50.9651 49.9631 49.7991 49.7522 48.7444 49.3303C47.6898 48.9084 46.7816 48.3225 46.0198 47.5725C45.2698 46.8108 44.6898 45.9084 44.2796 44.8655C43.8812 43.8225 43.6819 42.6624 43.6819 41.385C43.6819 40.1428 43.8812 38.9944 44.2796 37.9397C44.6898 36.8733 45.2698 35.9592 46.0198 35.1975C46.7816 34.4241 47.6898 33.8323 48.7444 33.4221C49.7991 33.0002 50.9651 32.7893 52.2425 32.7893C53.5433 32.7893 54.721 33.0002 55.7757 33.4221C56.8304 33.8323 57.7327 34.4241 58.4827 35.1975C59.2444 35.9592 59.8245 36.8733 60.223 37.9397C60.6331 38.9944 60.8382 40.1428 60.8382 41.385ZM57.2171 41.385C57.2171 40.6467 57.0999 39.9495 56.8655 39.2932C56.6429 38.6252 56.3148 38.0569 55.8812 37.5881C55.4476 37.1194 54.9202 36.7502 54.2991 36.4807C53.6898 36.1995 53.0042 36.0588 52.2425 36.0588C51.4691 36.0588 50.7776 36.1995 50.1683 36.4807C49.5589 36.7502 49.0433 37.1194 48.6214 37.5881C48.1995 38.0569 47.8714 38.6252 47.637 39.2932C47.4144 39.9495 47.303 40.6467 47.303 41.385C47.303 42.1584 47.4144 42.8616 47.637 43.4944C47.8714 44.1272 48.1995 44.6838 48.6214 45.1643C49.0433 45.6448 49.5589 46.0198 50.1683 46.2893C50.7776 46.5471 51.4691 46.676 52.2425 46.676C53.0042 46.676 53.6898 46.5471 54.2991 46.2893C54.9202 46.0198 55.4476 45.6448 55.8812 45.1643C56.3148 44.6838 56.6429 44.1272 56.8655 43.4944C57.0999 42.8616 57.2171 42.1584 57.2171 41.385ZM79.2073 49.5588H75.5687V39.4514C75.5687 38.1741 75.3284 37.2893 74.848 36.7971C74.3675 36.3049 73.6702 36.0588 72.7562 36.0588C71.4085 36.0588 70.3069 36.6038 69.4515 37.6936C68.6077 38.7834 68.1859 40.2893 68.1859 42.2112V49.5588H64.5472V33.176H68.1859V37.2893C68.5491 35.8713 69.223 34.7698 70.2073 33.9846C71.1917 33.1877 72.4046 32.7893 73.846 32.7893C75.5218 32.7893 76.8343 33.3342 77.7835 34.4241C78.7327 35.5139 79.2073 37.1897 79.2073 39.4514V49.5588ZM99.8968 44.3381C99.7093 46.0608 99.0296 47.4319 97.8577 48.4514C96.6976 49.4592 95.2444 49.9631 93.4984 49.9631C92.5374 49.9631 91.6585 49.8049 90.8616 49.4885C90.0648 49.1721 89.3851 48.7327 88.8226 48.1702C88.2601 47.6077 87.8206 46.9338 87.5042 46.1487C87.1995 45.3518 87.0472 44.4846 87.0472 43.5471V36.4631H83.3382V33.176H87.0472V26.6194H90.6859V33.176H97.5589V36.4631H90.6859V43.5471C90.6859 44.6018 90.9437 45.387 91.4593 45.9026C91.9749 46.4182 92.6546 46.676 93.4984 46.676C94.5296 46.676 95.2972 46.3772 95.8011 45.7795C96.305 45.1819 96.6038 44.4612 96.6976 43.6174L99.8968 44.3381ZM102.92 44.8479C102.92 43.887 103.178 43.0491 103.694 42.3342C104.209 41.6077 104.883 41.0042 105.715 40.5237C106.559 40.0432 107.52 39.6858 108.598 39.4514C109.688 39.2053 110.795 39.0823 111.92 39.0823C112.541 39.0823 113.075 39.094 113.52 39.1174C113.965 39.1409 114.416 39.176 114.873 39.2229V38.5725C114.873 37.717 114.539 37.0784 113.871 36.6565C113.215 36.2346 112.348 36.0237 111.27 36.0237C110.285 36.0237 109.284 36.1643 108.264 36.4456C107.244 36.7151 106.278 37.1135 105.364 37.6409L103.887 34.7932C104.965 34.1721 106.119 33.6858 107.35 33.3342C108.592 32.9709 109.899 32.7893 111.27 32.7893C112.16 32.7893 113.034 32.8889 113.889 33.0881C114.756 33.2874 115.53 33.6155 116.209 34.0725C116.901 34.5295 117.451 35.1272 117.862 35.8655C118.272 36.592 118.477 37.4944 118.477 38.5725V49.5588H114.873V47.1506C114.299 48.0413 113.45 48.7327 112.325 49.2249C111.211 49.717 110.01 49.9631 108.721 49.9631C107.924 49.9631 107.168 49.8518 106.453 49.6292C105.75 49.4182 105.141 49.0959 104.625 48.6624C104.11 48.2288 103.694 47.6956 103.377 47.0627C103.073 46.4182 102.92 45.6799 102.92 44.8479ZM109.653 46.7112C110.367 46.7112 111.035 46.6233 111.657 46.4475C112.289 46.26 112.846 46.0081 113.326 45.6917C113.807 45.3635 114.182 44.9709 114.451 44.5139C114.733 44.0569 114.873 43.553 114.873 43.0022V42.387C114.299 42.2932 113.76 42.2405 113.256 42.2288C112.752 42.217 112.307 42.2112 111.92 42.2112C110.139 42.2112 108.791 42.4456 107.877 42.9143C106.975 43.3831 106.524 43.9631 106.524 44.6545C106.524 46.0256 107.567 46.7112 109.653 46.7112ZM138.41 47.2209C137.356 48.2756 136.242 48.9963 135.071 49.3831C133.91 49.7698 132.651 49.9631 131.291 49.9631C129.92 49.9631 128.672 49.7581 127.547 49.3479C126.434 48.9377 125.485 48.3635 124.7 47.6252C123.926 46.8752 123.328 45.9729 122.907 44.9182C122.496 43.8635 122.291 42.6858 122.291 41.385C122.291 40.1428 122.496 38.9944 122.907 37.9397C123.328 36.8733 123.891 35.9651 124.594 35.2151C125.309 34.4534 126.147 33.8616 127.108 33.4397C128.069 33.0061 129.088 32.7893 130.166 32.7893C131.291 32.7893 132.27 33.0237 133.102 33.4924C133.934 33.9612 134.537 34.6467 134.912 35.5491V33.176H138.164V40.8049H134.912C134.912 39.3635 134.514 38.2151 133.717 37.3596C132.932 36.4924 131.907 36.0588 130.641 36.0588C130.137 36.0588 129.604 36.1643 129.041 36.3752C128.491 36.5745 127.981 36.8909 127.512 37.3245C127.055 37.7581 126.674 38.3088 126.369 38.9768C126.065 39.6448 125.912 40.4475 125.912 41.385C125.912 42.2991 126.059 43.0901 126.352 43.7581C126.645 44.4143 127.026 44.9592 127.494 45.3928C127.975 45.8147 128.537 46.137 129.182 46.3596C129.838 46.5706 130.512 46.676 131.203 46.676C132.387 46.676 133.412 46.4944 134.28 46.1311C135.159 45.7561 135.914 45.2639 136.547 44.6545L138.41 47.2209ZM158.854 44.3381C158.666 46.0608 157.987 47.4319 156.815 48.4514C155.655 49.4592 154.201 49.9631 152.455 49.9631C151.494 49.9631 150.616 49.8049 149.819 49.4885C149.022 49.1721 148.342 48.7327 147.78 48.1702C147.217 47.6077 146.778 46.9338 146.461 46.1487C146.157 45.3518 146.004 44.4846 146.004 43.5471V36.4631H142.295V33.176H146.004V26.6194H149.643V33.176H156.516V36.4631H149.643V43.5471C149.643 44.6018 149.901 45.387 150.416 45.9026C150.932 46.4182 151.612 46.676 152.455 46.676C153.487 46.676 154.254 46.3772 154.758 45.7795C155.262 45.1819 155.561 44.4612 155.655 43.6174L158.854 44.3381Z" fill="#F5F5F5"/>
</svg>
