<svg width="228" height="79" viewBox="0 0 228 79" fill="none" xmlns="http://www.w3.org/2000/svg">
<path d="M3.24269 28.9885C1.53825 13.7514 13.8249 0.58422 29.1433 1.23155L119.131 5.03431L197.065 1.43048C212.978 0.694632 225.512 14.8304 222.876 30.5408L222.008 35.7093C221.544 38.4749 221.549 41.2988 222.022 44.0629L222.722 48.1561C225.427 63.9608 212.764 78.1893 196.752 77.3374L111.546 72.8039L29.5836 77.3567C14.1192 78.2157 1.60276 64.9501 3.35822 49.5616L4.14174 42.6933C4.35446 40.8285 4.35652 38.9458 4.14788 37.0805L3.24269 28.9885Z" fill="#FFA352"/>
<path d="M35.2995 42.5452C35.0182 43.6702 34.6432 44.6897 34.1745 45.6038C33.7057 46.5178 33.1315 47.2971 32.4518 47.9417C31.7838 48.5862 30.9987 49.0842 30.0963 49.4358C29.2057 49.7874 28.1803 49.9631 27.0202 49.9631C25.4147 49.9631 24.0553 49.635 22.942 48.9788C21.8288 48.3108 20.9147 47.426 20.1999 46.3245C19.4967 45.2112 18.987 43.9456 18.6706 42.5276C18.3659 41.0979 18.2135 39.6155 18.2135 38.0803C18.2135 36.5452 18.3659 35.0627 18.6706 33.6331C18.987 32.2034 19.4909 30.9436 20.1823 29.8538C20.8854 28.7639 21.776 27.8909 22.8542 27.2346C23.9323 26.5667 25.2506 26.2327 26.8092 26.2327C27.3131 26.2327 27.8229 26.2971 28.3385 26.426C28.8542 26.5549 29.3346 26.7542 29.7799 27.0237C30.2253 27.2815 30.612 27.6038 30.9401 27.9905C31.2799 28.3772 31.5202 28.8225 31.6608 29.3264V26.6194H34.9479V35.303H31.6608C31.6608 34.5881 31.5729 33.885 31.3971 33.1936C31.2213 32.4905 30.9401 31.8694 30.5534 31.3303C30.1667 30.7913 29.6803 30.3518 29.0944 30.012C28.5085 29.6721 27.817 29.5022 27.0202 29.5022C25.9889 29.5022 25.1452 29.7542 24.4889 30.2581C23.8327 30.762 23.3053 31.4241 22.9069 32.2444C22.5085 33.0647 22.2272 33.9846 22.0631 35.0042C21.9108 36.0237 21.8346 37.0491 21.8346 38.0803C21.8346 39.1116 21.9108 40.1428 22.0631 41.1741C22.2272 42.2053 22.5026 43.1311 22.8893 43.9514C23.276 44.76 23.8034 45.4163 24.4713 45.9202C25.1393 46.4241 25.9889 46.676 27.0202 46.676C28.5085 46.676 29.651 46.2014 30.4479 45.2522C31.2565 44.303 31.901 43.0256 32.3815 41.4202L35.2995 42.5452ZM38.1471 44.8479C38.1471 43.887 38.4049 43.0491 38.9206 42.3342C39.4362 41.6077 40.11 41.0042 40.942 40.5237C41.7858 40.0432 42.7467 39.6858 43.8249 39.4514C44.9147 39.2053 46.0221 39.0823 47.1471 39.0823C47.7682 39.0823 48.3014 39.094 48.7467 39.1174C49.192 39.1409 49.6432 39.176 50.1003 39.2229V38.5725C50.1003 37.717 49.7663 37.0784 49.0983 36.6565C48.442 36.2346 47.5749 36.0237 46.4967 36.0237C45.5124 36.0237 44.5104 36.1643 43.4909 36.4456C42.4713 36.7151 41.5045 37.1135 40.5905 37.6409L39.1139 34.7932C40.192 34.1721 41.3463 33.6858 42.5768 33.3342C43.819 32.9709 45.1256 32.7893 46.4967 32.7893C47.3874 32.7893 48.2604 32.8889 49.1159 33.0881C49.9831 33.2874 50.7565 33.6155 51.4362 34.0725C52.1276 34.5295 52.6784 35.1272 53.0885 35.8655C53.4987 36.592 53.7038 37.4944 53.7038 38.5725V49.5588H50.1003V47.1506C49.526 48.0413 48.6764 48.7327 47.5514 49.2249C46.4381 49.717 45.237 49.9631 43.9479 49.9631C43.151 49.9631 42.3952 49.8518 41.6803 49.6292C40.9772 49.4182 40.3678 49.0959 39.8522 48.6624C39.3366 48.2288 38.9206 47.6956 38.6042 47.0627C38.2995 46.4182 38.1471 45.6799 38.1471 44.8479ZM44.8795 46.7112C45.5944 46.7112 46.2624 46.6233 46.8835 46.4475C47.5163 46.26 48.0729 46.0081 48.5534 45.6917C49.0338 45.3635 49.4088 44.9709 49.6784 44.5139C49.9596 44.0569 50.1003 43.553 50.1003 43.0022V42.387C49.526 42.2932 48.987 42.2405 48.4831 42.2288C47.9792 42.217 47.5338 42.2112 47.1471 42.2112C45.3659 42.2112 44.0182 42.4456 43.1042 42.9143C42.2018 43.3831 41.7506 43.9631 41.7506 44.6545C41.7506 46.0256 42.7936 46.7112 44.8795 46.7112ZM74.4284 44.3381C74.2409 46.0608 73.5612 47.4319 72.3893 48.4514C71.2292 49.4592 69.776 49.9631 68.0299 49.9631C67.069 49.9631 66.1901 49.8049 65.3932 49.4885C64.5963 49.1721 63.9167 48.7327 63.3542 48.1702C62.7917 47.6077 62.3522 46.9338 62.0358 46.1487C61.7311 45.3518 61.5788 44.4846 61.5788 43.5471V36.4631H57.8698V33.176H61.5788V26.6194H65.2174V33.176H72.0905V36.4631H65.2174V43.5471C65.2174 44.6018 65.4753 45.387 65.9909 45.9026C66.5065 46.4182 67.1862 46.676 68.0299 46.676C69.0612 46.676 69.8288 46.3772 70.3327 45.7795C70.8366 45.1819 71.1354 44.4612 71.2292 43.6174L74.4284 44.3381ZM80.862 42.7561C81.0378 43.8811 81.571 44.8186 82.4616 45.5686C83.3639 46.3069 84.571 46.676 86.0827 46.676C87.2663 46.676 88.2917 46.4944 89.1588 46.1311C90.0378 45.7561 90.7936 45.2639 91.4264 44.6545L93.2897 47.2209C92.235 48.2756 91.1159 48.9963 89.9323 49.3831C88.7604 49.7698 87.4772 49.9631 86.0827 49.9631C84.817 49.9631 83.6393 49.7522 82.5495 49.3303C81.4596 48.9084 80.5163 48.3225 79.7194 47.5725C78.9225 46.8108 78.2956 45.9084 77.8385 44.8655C77.3932 43.8225 77.1706 42.6624 77.1706 41.385C77.1706 40.1428 77.3756 39.0002 77.7858 37.9573C78.2077 36.9026 78.7936 35.9944 79.5436 35.2327C80.3053 34.4592 81.2135 33.8616 82.2682 33.4397C83.3229 33.0061 84.4889 32.7893 85.7663 32.7893C87.0905 32.7893 88.2917 33.0178 89.3698 33.4749C90.4479 33.9202 91.3678 34.5706 92.1295 35.426C92.903 36.2815 93.5065 37.3303 93.9401 38.5725C94.3737 39.803 94.5905 41.1975 94.5905 42.7561H80.862ZM90.4772 39.5569C90.2897 38.5022 89.7448 37.6584 88.8424 37.0256C87.9401 36.3811 86.9147 36.0588 85.7663 36.0588C84.6178 36.0588 83.5866 36.3811 82.6725 37.0256C81.7585 37.6584 81.2077 38.5022 81.0202 39.5569H90.4772ZM112.696 49.3831C112.696 50.5081 112.503 51.51 112.116 52.3889C111.729 53.2678 111.184 54.012 110.481 54.6213C109.79 55.2307 108.969 55.6936 108.02 56.01C107.083 56.3381 106.034 56.5022 104.874 56.5022C102.026 56.5022 99.5944 55.6409 97.5788 53.9182L99.3014 51.1057C100.977 52.5471 102.835 53.2678 104.874 53.2678C106.128 53.2678 107.135 52.9573 107.897 52.3362C108.671 51.7268 109.057 50.7659 109.057 49.4534V47.6956C108.307 48.3401 107.587 48.8206 106.895 49.137C106.204 49.4417 105.401 49.594 104.487 49.594C103.432 49.594 102.454 49.3713 101.551 48.926C100.649 48.4807 99.8698 47.8772 99.2135 47.1155C98.569 46.342 98.0592 45.4456 97.6842 44.426C97.321 43.4065 97.1393 42.3225 97.1393 41.1741C97.1393 40.0256 97.321 38.9417 97.6842 37.9221C98.0592 36.8909 98.569 36.0002 99.2135 35.2502C99.8698 34.4885 100.649 33.8909 101.551 33.4573C102.454 33.012 103.432 32.7893 104.487 32.7893C105.401 32.7893 106.215 32.9475 106.93 33.2639C107.645 33.5686 108.354 34.0315 109.057 34.6526V33.176H112.696V49.3831ZM109.057 37.5354C108.624 37.0549 108.061 36.6917 107.37 36.4456C106.69 36.1877 106.028 36.0588 105.383 36.0588C104.012 36.0588 102.899 36.5393 102.044 37.5002C101.2 38.4612 100.778 39.6858 100.778 41.1741C100.778 41.9124 100.889 42.5979 101.112 43.2307C101.346 43.8518 101.663 44.3909 102.061 44.8479C102.471 45.3049 102.958 45.6682 103.52 45.9377C104.094 46.1956 104.715 46.3245 105.383 46.3245C106.028 46.3245 106.69 46.1956 107.37 45.9377C108.061 45.6682 108.624 45.2932 109.057 44.8127V37.5354ZM133.632 41.385C133.632 42.6624 133.426 43.8225 133.016 44.8655C132.618 45.9084 132.038 46.8108 131.276 47.5725C130.526 48.3225 129.624 48.9084 128.569 49.3303C127.514 49.7522 126.337 49.9631 125.036 49.9631C123.758 49.9631 122.592 49.7522 121.538 49.3303C120.483 48.9084 119.575 48.3225 118.813 47.5725C118.063 46.8108 117.483 45.9084 117.073 44.8655C116.674 43.8225 116.475 42.6624 116.475 41.385C116.475 40.1428 116.674 38.9944 117.073 37.9397C117.483 36.8733 118.063 35.9592 118.813 35.1975C119.575 34.4241 120.483 33.8323 121.538 33.4221C122.592 33.0002 123.758 32.7893 125.036 32.7893C126.337 32.7893 127.514 33.0002 128.569 33.4221C129.624 33.8323 130.526 34.4241 131.276 35.1975C132.038 35.9592 132.618 36.8733 133.016 37.9397C133.426 38.9944 133.632 40.1428 133.632 41.385ZM130.01 41.385C130.01 40.6467 129.893 39.9495 129.659 39.2932C129.436 38.6252 129.108 38.0569 128.674 37.5881C128.241 37.1194 127.714 36.7502 127.092 36.4807C126.483 36.1995 125.798 36.0588 125.036 36.0588C124.262 36.0588 123.571 36.1995 122.962 36.4807C122.352 36.7502 121.837 37.1194 121.415 37.5881C120.993 38.0569 120.665 38.6252 120.43 39.2932C120.208 39.9495 120.096 40.6467 120.096 41.385C120.096 42.1584 120.208 42.8616 120.43 43.4944C120.665 44.1272 120.993 44.6838 121.415 45.1643C121.837 45.6448 122.352 46.0198 122.962 46.2893C123.571 46.5471 124.262 46.676 125.036 46.676C125.798 46.676 126.483 46.5471 127.092 46.2893C127.714 46.0198 128.241 45.6448 128.674 45.1643C129.108 44.6838 129.436 44.1272 129.659 43.4944C129.893 42.8616 130.01 42.1584 130.01 41.385ZM152.458 37.0608C152.024 36.8499 151.579 36.6917 151.122 36.5862C150.676 36.469 150.161 36.4104 149.575 36.4104C148.766 36.4104 148.005 36.5334 147.29 36.7795C146.587 37.0139 145.977 37.3713 145.462 37.8518C144.946 38.3323 144.542 38.9358 144.249 39.6624C143.967 40.3772 143.827 41.2268 143.827 42.2112V46.2893H147.501V49.5588H136.479V46.2893H140.188V36.4631H136.479V33.176H143.827V37.2893C144.424 35.6487 145.303 34.4885 146.464 33.8088C147.635 33.1292 149.024 32.7893 150.63 32.7893C151.133 32.7893 151.661 32.842 152.212 32.9475C152.762 33.053 153.301 33.2405 153.829 33.51L152.458 37.0608ZM166.538 31.0491H162.108V26.6194H166.538V31.0491ZM169.878 49.5588H158.874V46.2893H162.495V36.4631H158.874V33.176H166.133V46.2893H169.878V49.5588ZM179.124 42.7561C179.299 43.8811 179.833 44.8186 180.723 45.5686C181.626 46.3069 182.833 46.676 184.344 46.676C185.528 46.676 186.553 46.4944 187.421 46.1311C188.299 45.7561 189.055 45.2639 189.688 44.6545L191.551 47.2209C190.497 48.2756 189.378 48.9963 188.194 49.3831C187.022 49.7698 185.739 49.9631 184.344 49.9631C183.079 49.9631 181.901 49.7522 180.811 49.3303C179.721 48.9084 178.778 48.3225 177.981 47.5725C177.184 46.8108 176.557 45.9084 176.1 44.8655C175.655 43.8225 175.432 42.6624 175.432 41.385C175.432 40.1428 175.637 39.0002 176.048 37.9573C176.469 36.9026 177.055 35.9944 177.805 35.2327C178.567 34.4592 179.475 33.8616 180.53 33.4397C181.585 33.0061 182.751 32.7893 184.028 32.7893C185.352 32.7893 186.553 33.0178 187.632 33.4749C188.71 33.9202 189.63 34.5706 190.391 35.426C191.165 36.2815 191.768 37.3303 192.202 38.5725C192.635 39.803 192.852 41.1975 192.852 42.7561H179.124ZM188.739 39.5569C188.551 38.5022 188.007 37.6584 187.104 37.0256C186.202 36.3811 185.176 36.0588 184.028 36.0588C182.88 36.0588 181.848 36.3811 180.934 37.0256C180.02 37.6584 179.469 38.5022 179.282 39.5569H188.739ZM211.38 44.6545C211.38 45.7209 211.139 46.5881 210.659 47.2561C210.178 47.9241 209.557 48.4631 208.796 48.8733C208.046 49.2834 207.202 49.5647 206.264 49.717C205.339 49.8811 204.43 49.9631 203.54 49.9631C202.051 49.9631 200.569 49.7463 199.092 49.3127C197.616 48.8792 196.339 48.3108 195.26 47.6077L196.772 44.6194C198.061 45.3694 199.239 45.9026 200.305 46.219C201.383 46.5237 202.462 46.676 203.54 46.676C205.005 46.676 206.071 46.5237 206.739 46.219C207.407 45.9026 207.741 45.469 207.741 44.9182C207.741 44.6487 207.647 44.426 207.46 44.2502C207.272 44.0745 206.962 43.9163 206.528 43.7756C206.094 43.6233 205.52 43.4768 204.805 43.3362C204.102 43.1838 203.223 43.0256 202.169 42.8616C201.325 42.7209 200.522 42.551 199.76 42.3518C199.01 42.1409 198.348 41.8479 197.774 41.4729C197.2 41.0979 196.737 40.6233 196.385 40.0491C196.046 39.4749 195.876 38.7542 195.876 37.887C195.876 37.0081 196.098 36.2463 196.544 35.6018C197.001 34.9456 197.592 34.4065 198.319 33.9846C199.057 33.5627 199.883 33.2581 200.798 33.0706C201.712 32.8831 202.626 32.7893 203.54 32.7893C204.829 32.7893 206.077 32.9592 207.284 33.2991C208.503 33.6272 209.569 34.1018 210.483 34.7229L209.042 37.5354C208.128 36.9612 207.237 36.5745 206.37 36.3752C205.514 36.1643 204.571 36.0588 203.54 36.0588C203.106 36.0588 202.655 36.0823 202.186 36.1292C201.717 36.176 201.284 36.2698 200.885 36.4104C200.487 36.5393 200.153 36.7209 199.883 36.9553C199.626 37.178 199.497 37.4534 199.497 37.7815C199.497 38.2151 199.878 38.5725 200.639 38.8538C201.413 39.1233 202.725 39.3928 204.577 39.6624C205.585 39.803 206.505 39.9846 207.337 40.2073C208.169 40.4182 208.883 40.7112 209.481 41.0862C210.079 41.4495 210.542 41.9241 210.87 42.51C211.21 43.0842 211.38 43.7991 211.38 44.6545Z" fill="#F5F5F5"/>
</svg>
