<svg width="182" height="79" viewBox="0 0 182 79" fill="none" xmlns="http://www.w3.org/2000/svg">
<path d="M2.56382 28.7125C1.21068 13.5585 13.5934 0.719626 28.7864 1.52393L95.0959 5.03431L151.753 1.75217C167.438 0.84356 180.064 14.4571 177.978 30.0292L177.106 36.5356C176.809 38.7599 176.811 41.0142 177.115 43.2378L177.852 48.6337C179.994 64.3144 167.211 78.0142 151.42 76.9617L89.0411 72.8039L29.2956 76.9614C13.9335 78.0304 1.26662 65.0904 2.66311 49.7546L3.3572 42.1324C3.49322 40.6387 3.49454 39.1357 3.36114 37.6418L2.56382 28.7125Z" fill="#FFA352"/>
<path d="M60.0551 49.5588H45.3949V26.6194H49.0336V46.2893H60.0551V49.5588ZM80.9906 41.385C80.9906 42.6623 80.7855 43.8225 80.3754 44.8655C79.9769 45.9084 79.3969 46.8108 78.6351 47.5725C77.8851 48.3225 76.9828 48.9084 75.9281 49.3303C74.8734 49.7522 73.6957 49.9631 72.3949 49.9631C71.1176 49.9631 69.9515 49.7522 68.8969 49.3303C67.8422 48.9084 66.934 48.3225 66.1722 47.5725C65.4222 46.8108 64.8422 45.9084 64.432 44.8655C64.0336 43.8225 63.8344 42.6623 63.8344 41.385C63.8344 40.1428 64.0336 38.9944 64.432 37.9397C64.8422 36.8733 65.4222 35.9592 66.1722 35.1975C66.934 34.4241 67.8422 33.8323 68.8969 33.4221C69.9515 33.0002 71.1176 32.7893 72.3949 32.7893C73.6957 32.7893 74.8734 33.0002 75.9281 33.4221C76.9828 33.8323 77.8851 34.4241 78.6351 35.1975C79.3969 35.9592 79.9769 36.8733 80.3754 37.9397C80.7855 38.9944 80.9906 40.1428 80.9906 41.385ZM77.3695 41.385C77.3695 40.6467 77.2523 39.9494 77.0179 39.2932C76.7953 38.6252 76.4672 38.0569 76.0336 37.5881C75.6 37.1194 75.0726 36.7502 74.4515 36.4807C73.8422 36.1994 73.1566 36.0588 72.3949 36.0588C71.6215 36.0588 70.9301 36.1994 70.3207 36.4807C69.7113 36.7502 69.1957 37.1194 68.7738 37.5881C68.3519 38.0569 68.0238 38.6252 67.7894 39.2932C67.5668 39.9494 67.4554 40.6467 67.4554 41.385C67.4554 42.1584 67.5668 42.8616 67.7894 43.4944C68.0238 44.1272 68.3519 44.6838 68.7738 45.1643C69.1957 45.6448 69.7113 46.0198 70.3207 46.2893C70.9301 46.5471 71.6215 46.676 72.3949 46.676C73.1566 46.676 73.8422 46.5471 74.4515 46.2893C75.0726 46.0198 75.6 45.6448 76.0336 45.1643C76.4672 44.6838 76.7953 44.1272 77.0179 43.4944C77.2523 42.8616 77.3695 42.1584 77.3695 41.385ZM99.3597 49.383C99.3597 50.508 99.1664 51.51 98.7797 52.3889C98.3929 53.2678 97.848 54.0119 97.1449 54.6213C96.4535 55.2307 95.6332 55.6936 94.684 56.01C93.7465 56.3381 92.6976 56.5022 91.5375 56.5022C88.6898 56.5022 86.2582 55.6409 84.2426 53.9182L85.9652 51.1057C87.641 52.5471 89.4984 53.2678 91.5375 53.2678C92.7914 53.2678 93.7992 52.9573 94.5609 52.3362C95.3344 51.7268 95.7211 50.7659 95.7211 49.4534V47.6955C94.9711 48.3401 94.2504 48.8205 93.559 49.1369C92.8676 49.4416 92.0648 49.594 91.1508 49.594C90.0961 49.594 89.1176 49.3713 88.2152 48.926C87.3129 48.4807 86.5336 47.8772 85.8773 47.1155C85.2328 46.342 84.723 45.4455 84.348 44.426C83.9847 43.4065 83.8031 42.3225 83.8031 41.1741C83.8031 40.0256 83.9847 38.9416 84.348 37.9221C84.723 36.8909 85.2328 36.0002 85.8773 35.2502C86.5336 34.4885 87.3129 33.8909 88.2152 33.4573C89.1176 33.0119 90.0961 32.7893 91.1508 32.7893C92.0648 32.7893 92.8793 32.9475 93.5941 33.2639C94.309 33.5686 95.0179 34.0315 95.7211 34.6526V33.176H99.3597V49.383ZM95.7211 37.5354C95.2875 37.0549 94.725 36.6916 94.0336 36.4455C93.3539 36.1877 92.6918 36.0588 92.0472 36.0588C90.6761 36.0588 89.5629 36.5393 88.7074 37.5002C87.8636 38.4612 87.4418 39.6858 87.4418 41.1741C87.4418 41.9123 87.5531 42.5979 87.7758 43.2307C88.0101 43.8518 88.3265 44.3909 88.725 44.8479C89.1351 45.3049 89.6215 45.6682 90.184 45.9377C90.7582 46.1955 91.3793 46.3244 92.0472 46.3244C92.6918 46.3244 93.3539 46.1955 94.0336 45.9377C94.725 45.6682 95.2875 45.2932 95.7211 44.8127V37.5354ZM113.897 31.0491H109.467V26.6194H113.897V31.0491ZM117.237 49.5588H106.233V46.2893H109.854V36.4631H106.233V33.176H113.493V46.2893H117.237V49.5588ZM138.664 49.5588H135.026V39.4514C135.026 38.1741 134.786 37.2893 134.305 36.7971C133.825 36.3049 133.127 36.0588 132.213 36.0588C130.866 36.0588 129.764 36.6037 128.909 37.6936C128.065 38.7834 127.643 40.2893 127.643 42.2112V49.5588H124.004V33.176H127.643V37.2893C128.006 35.8713 128.68 34.7698 129.664 33.9846C130.649 33.1877 131.862 32.7893 133.303 32.7893C134.979 32.7893 136.291 33.3342 137.241 34.4241C138.19 35.5139 138.664 37.1897 138.664 39.4514V49.5588Z" fill="#F5F5F5"/>
</svg>
