<svg width="162" height="79" viewBox="0 0 162 79" fill="none" xmlns="http://www.w3.org/2000/svg">
<path d="M2.27652 28.6425C1.07366 13.5085 13.5272 0.804532 28.6822 1.70587L84.6458 5.03431L131.992 1.95294C147.595 0.937466 160.291 14.3335 158.44 29.8597L157.601 36.8984C157.364 38.8838 157.367 40.8904 157.608 42.8753L158.326 48.7792C160.228 64.4231 147.357 77.9035 131.642 76.7267L81.1643 72.9468C79.8942 72.8517 78.6187 72.8538 77.3489 72.953L29.2359 76.7144C13.8975 77.9135 1.12619 65.1057 2.36916 49.7707L3.00814 41.8874C3.11604 40.5561 3.11709 39.2183 3.01126 37.8869L2.27652 28.6425Z" fill="#FFA352"/>
<path d="M59.028 49.5588H55.3893V39.5217H48.0065V49.5588H44.3678V26.6194H48.0065V36.2346H55.3893V26.6194H59.028V49.5588ZM79.9635 41.385C79.9635 42.6623 79.7584 43.8225 79.3483 44.8655C78.9498 45.9084 78.3698 46.8108 77.608 47.5725C76.858 48.3225 75.9557 48.9084 74.901 49.3303C73.8463 49.7522 72.6686 49.9631 71.3678 49.9631C70.0905 49.9631 68.9244 49.7522 67.8698 49.3303C66.8151 48.9084 65.9069 48.3225 65.1451 47.5725C64.3951 46.8108 63.8151 45.9084 63.4049 44.8655C63.0065 43.8225 62.8073 42.6623 62.8073 41.385C62.8073 40.1428 63.0065 38.9944 63.4049 37.9397C63.8151 36.8733 64.3951 35.9592 65.1451 35.1975C65.9069 34.4241 66.8151 33.8323 67.8698 33.4221C68.9244 33.0002 70.0905 32.7893 71.3678 32.7893C72.6686 32.7893 73.8463 33.0002 74.901 33.4221C75.9557 33.8323 76.858 34.4241 77.608 35.1975C78.3698 35.9592 78.9498 36.8733 79.3483 37.9397C79.7584 38.9944 79.9635 40.1428 79.9635 41.385ZM76.3424 41.385C76.3424 40.6467 76.2252 39.9494 75.9908 39.2932C75.7682 38.6252 75.4401 38.0569 75.0065 37.5881C74.5729 37.1194 74.0455 36.7502 73.4244 36.4807C72.8151 36.1994 72.1295 36.0588 71.3678 36.0588C70.5944 36.0588 69.903 36.1994 69.2936 36.4807C68.6842 36.7502 68.1686 37.1194 67.7467 37.5881C67.3248 38.0569 66.9967 38.6252 66.7623 39.2932C66.5397 39.9494 66.4283 40.6467 66.4283 41.385C66.4283 42.1584 66.5397 42.8616 66.7623 43.4944C66.9967 44.1272 67.3248 44.6838 67.7467 45.1643C68.1686 45.6448 68.6842 46.0198 69.2936 46.2893C69.903 46.5471 70.5944 46.676 71.3678 46.676C72.1295 46.676 72.8151 46.5471 73.4244 46.2893C74.0455 46.0198 74.5729 45.6448 75.0065 45.1643C75.4401 44.6838 75.7682 44.1272 75.9908 43.4944C76.2252 42.8616 76.3424 42.1584 76.3424 41.385ZM99.194 49.5588H95.5553V38.3264C95.5553 37.553 95.4733 36.9846 95.3092 36.6213C95.1569 36.2463 94.8815 36.0588 94.483 36.0588C93.7565 36.0588 93.2936 36.469 93.0944 37.2893C92.9069 38.0979 92.8131 39.2815 92.8131 40.8401V49.5588H89.1744V38.3264C89.1744 37.553 89.0924 36.9846 88.9283 36.6213C88.7643 36.2463 88.4772 36.0588 88.067 36.0588C87.3522 36.0588 86.901 36.469 86.7135 37.2893C86.5377 38.0979 86.4498 39.2815 86.4498 40.8401V49.5588H82.8112V33.176H86.485V35.5491C86.7428 34.6467 87.1237 33.9612 87.6276 33.4924C88.1315 33.0237 88.8053 32.7893 89.649 32.7893C90.3522 32.7893 90.9381 33.0061 91.4069 33.4397C91.8873 33.8616 92.2155 34.4475 92.3912 35.1975C92.8014 34.3772 93.2233 33.7737 93.6569 33.3869C94.1022 32.9885 94.7819 32.7893 95.6959 32.7893C96.8209 32.7893 97.6823 33.2053 98.2799 34.0373C98.8893 34.8577 99.194 36.1057 99.194 37.7815V49.5588ZM105.803 42.7561C105.979 43.8811 106.512 44.8186 107.403 45.5686C108.305 46.3069 109.512 46.676 111.024 46.676C112.208 46.676 113.233 46.4944 114.1 46.1311C114.979 45.7561 115.735 45.2639 116.368 44.6545L118.231 47.2209C117.176 48.2756 116.057 48.9963 114.874 49.383C113.702 49.7698 112.419 49.9631 111.024 49.9631C109.758 49.9631 108.581 49.7522 107.491 49.3303C106.401 48.9084 105.458 48.3225 104.661 47.5725C103.864 46.8108 103.237 45.9084 102.78 44.8655C102.335 43.8225 102.112 42.6623 102.112 41.385C102.112 40.1428 102.317 39.0002 102.727 37.9573C103.149 36.9026 103.735 35.9944 104.485 35.2327C105.247 34.4592 106.155 33.8616 107.21 33.4397C108.264 33.0061 109.43 32.7893 110.708 32.7893C112.032 32.7893 113.233 33.0178 114.311 33.4748C115.389 33.9202 116.309 34.5705 117.071 35.426C117.844 36.2815 118.448 37.3303 118.881 38.5725C119.315 39.803 119.532 41.1975 119.532 42.7561H105.803ZM115.419 39.5569C115.231 38.5022 114.686 37.6584 113.784 37.0256C112.881 36.3811 111.856 36.0588 110.708 36.0588C109.559 36.0588 108.528 36.3811 107.614 37.0256C106.7 37.6584 106.149 38.5022 105.962 39.5569H115.419Z" fill="#F5F5F5"/>
</svg>
