<svg width="199" height="79" viewBox="0 0 199 79" fill="none" xmlns="http://www.w3.org/2000/svg">
<path d="M9.04004 33.5684C6.01015 17.9063 18.5452 3.58258 34.4707 4.50879L99.7334 8.30469L99.8789 8.31348L100.024 8.30469L164.751 4.51172C180.412 3.59395 192.649 17.8355 189.384 33.1797C188.552 37.0902 188.547 41.1436 189.363 45.0547C192.638 60.7458 180.09 75.3129 164.117 74.3145L100.034 70.3086L99.8789 70.2988L99.7236 70.3086L35.1143 74.3164C18.8701 75.324 6.0201 60.6765 9.05762 44.6641C9.75214 41.0027 9.74825 37.2295 9.04004 33.5684Z" fill="#F5F5F5" stroke="#EE5656" stroke-width="5"/>
<path d="M50.647 39.0599C50.3657 40.1849 49.9907 41.2044 49.522 42.1185C49.0532 43.0325 48.479 43.8118 47.7993 44.4563C47.1313 45.1009 46.3462 45.5989 45.4438 45.9505C44.5532 46.302 43.5278 46.4778 42.3677 46.4778C40.7622 46.4778 39.4028 46.1497 38.2896 45.4935C37.1763 44.8255 36.2622 43.9407 35.5474 42.8392C34.8442 41.7259 34.3345 40.4603 34.0181 39.0423C33.7134 37.6126 33.561 36.1302 33.561 34.595C33.561 33.0599 33.7134 31.5774 34.0181 30.1478C34.3345 28.7181 34.8384 27.4583 35.5298 26.3685C36.2329 25.2786 37.1235 24.4056 38.2017 23.7493C39.2798 23.0813 40.5981 22.7474 42.1567 22.7474C42.6606 22.7474 43.1704 22.8118 43.686 22.9407C44.2017 23.0696 44.6821 23.2688 45.1274 23.5384C45.5728 23.7962 45.9595 24.1185 46.2876 24.5052C46.6274 24.8919 46.8677 25.3372 47.0083 25.8411V23.1341H50.2954V31.8177H47.0083C47.0083 31.1028 46.9204 30.3997 46.7446 29.7083C46.5688 29.0052 46.2876 28.3841 45.9009 27.845C45.5142 27.306 45.0278 26.8665 44.4419 26.5267C43.856 26.1868 43.1646 26.0169 42.3677 26.0169C41.3364 26.0169 40.4927 26.2688 39.8364 26.7728C39.1802 27.2767 38.6528 27.9388 38.2544 28.7591C37.856 29.5794 37.5747 30.4993 37.4106 31.5188C37.2583 32.5384 37.1821 33.5638 37.1821 34.595C37.1821 35.6263 37.2583 36.6575 37.4106 37.6888C37.5747 38.72 37.8501 39.6458 38.2368 40.4661C38.6235 41.2747 39.1509 41.931 39.8188 42.4349C40.4868 42.9388 41.3364 43.1907 42.3677 43.1907C43.856 43.1907 44.9985 42.7161 45.7954 41.7669C46.604 40.8177 47.2485 39.5403 47.729 37.9349L50.647 39.0599ZM70.3696 37.8997C70.3696 39.177 70.1646 40.3372 69.7544 41.3802C69.356 42.4231 68.7759 43.3255 68.0142 44.0872C67.2642 44.8372 66.3618 45.4231 65.3071 45.845C64.2524 46.2669 63.0747 46.4778 61.7739 46.4778C60.4966 46.4778 59.3306 46.2669 58.2759 45.845C57.2212 45.4231 56.313 44.8372 55.5513 44.0872C54.8013 43.3255 54.2212 42.4231 53.811 41.3802C53.4126 40.3372 53.2134 39.177 53.2134 37.8997C53.2134 36.6575 53.4126 35.5091 53.811 34.4544C54.2212 33.388 54.8013 32.4739 55.5513 31.7122C56.313 30.9388 57.2212 30.347 58.2759 29.9368C59.3306 29.5149 60.4966 29.304 61.7739 29.304C63.0747 29.304 64.2524 29.5149 65.3071 29.9368C66.3618 30.347 67.2642 30.9388 68.0142 31.7122C68.7759 32.4739 69.356 33.388 69.7544 34.4544C70.1646 35.5091 70.3696 36.6575 70.3696 37.8997ZM66.7485 37.8997C66.7485 37.1614 66.6313 36.4642 66.397 35.8079C66.1743 35.1399 65.8462 34.5716 65.4126 34.1028C64.979 33.6341 64.4517 33.2649 63.8306 32.9954C63.2212 32.7142 62.5356 32.5735 61.7739 32.5735C61.0005 32.5735 60.3091 32.7142 59.6997 32.9954C59.0903 33.2649 58.5747 33.6341 58.1528 34.1028C57.731 34.5716 57.4028 35.1399 57.1685 35.8079C56.9458 36.4642 56.8345 37.1614 56.8345 37.8997C56.8345 38.6731 56.9458 39.3763 57.1685 40.0091C57.4028 40.6419 57.731 41.1985 58.1528 41.679C58.5747 42.1595 59.0903 42.5345 59.6997 42.804C60.3091 43.0618 61.0005 43.1907 61.7739 43.1907C62.5356 43.1907 63.2212 43.0618 63.8306 42.804C64.4517 42.5345 64.979 42.1595 65.4126 41.679C65.8462 41.1985 66.1743 40.6419 66.397 40.0091C66.6313 39.3763 66.7485 38.6731 66.7485 37.8997ZM88.7388 46.0735H85.1001V35.9661C85.1001 34.6888 84.8599 33.804 84.3794 33.3118C83.8989 32.8196 83.2017 32.5735 82.2876 32.5735C80.9399 32.5735 79.8384 33.1185 78.9829 34.2083C78.1392 35.2981 77.7173 36.804 77.7173 38.7259V46.0735H74.0786V29.6907H77.7173V33.804C78.0806 32.386 78.7544 31.2845 79.7388 30.4993C80.7231 29.7024 81.936 29.304 83.3774 29.304C85.0532 29.304 86.3657 29.8489 87.3149 30.9388C88.2642 32.0286 88.7388 33.7044 88.7388 35.9661V46.0735ZM109.428 40.8528C109.241 42.5755 108.561 43.9466 107.389 44.9661C106.229 45.9739 104.776 46.4778 103.03 46.4778C102.069 46.4778 101.19 46.3196 100.393 46.0032C99.5962 45.6868 98.9165 45.2474 98.354 44.6849C97.7915 44.1224 97.3521 43.4485 97.0356 42.6634C96.731 41.8665 96.5786 40.9993 96.5786 40.0618V32.9778H92.8696V29.6907H96.5786V23.1341H100.217V29.6907H107.09V32.9778H100.217V40.0618C100.217 41.1165 100.475 41.9017 100.991 42.4173C101.506 42.9329 102.186 43.1907 103.03 43.1907C104.061 43.1907 104.829 42.8919 105.333 42.2942C105.836 41.6966 106.135 40.9759 106.229 40.1321L109.428 40.8528ZM112.452 41.3626C112.452 40.4017 112.709 39.5638 113.225 38.8489C113.741 38.1224 114.415 37.5188 115.247 37.0384C116.09 36.5579 117.051 36.2005 118.129 35.9661C119.219 35.72 120.327 35.597 121.452 35.597C122.073 35.597 122.606 35.6087 123.051 35.6321C123.497 35.6556 123.948 35.6907 124.405 35.7376V35.0872C124.405 34.2317 124.071 33.5931 123.403 33.1712C122.747 32.7493 121.879 32.5384 120.801 32.5384C119.817 32.5384 118.815 32.679 117.795 32.9603C116.776 33.2298 115.809 33.6282 114.895 34.1556L113.418 31.3079C114.497 30.6868 115.651 30.2005 116.881 29.8489C118.124 29.4856 119.43 29.304 120.801 29.304C121.692 29.304 122.565 29.4036 123.42 29.6028C124.288 29.802 125.061 30.1302 125.741 30.5872C126.432 31.0442 126.983 31.6419 127.393 32.3802C127.803 33.1067 128.008 34.0091 128.008 35.0872V46.0735H124.405V43.6653C123.831 44.556 122.981 45.2474 121.856 45.7395C120.743 46.2317 119.542 46.4778 118.252 46.4778C117.456 46.4778 116.7 46.3665 115.985 46.1438C115.282 45.9329 114.672 45.6106 114.157 45.177C113.641 44.7435 113.225 44.2103 112.909 43.5774C112.604 42.9329 112.452 42.1946 112.452 41.3626ZM119.184 43.2259C119.899 43.2259 120.567 43.138 121.188 42.9622C121.821 42.7747 122.377 42.5228 122.858 42.2063C123.338 41.8782 123.713 41.4856 123.983 41.0286C124.264 40.5716 124.405 40.0677 124.405 39.5169V38.9017C123.831 38.8079 123.292 38.7552 122.788 38.7435C122.284 38.7317 121.838 38.7259 121.452 38.7259C119.67 38.7259 118.323 38.9603 117.409 39.429C116.506 39.8978 116.055 40.4778 116.055 41.1692C116.055 42.5403 117.098 43.2259 119.184 43.2259ZM147.942 43.7356C146.887 44.7903 145.774 45.511 144.602 45.8978C143.442 46.2845 142.182 46.4778 140.823 46.4778C139.452 46.4778 138.204 46.2728 137.079 45.8626C135.965 45.4524 135.016 44.8782 134.231 44.1399C133.458 43.3899 132.86 42.4876 132.438 41.4329C132.028 40.3782 131.823 39.2005 131.823 37.8997C131.823 36.6575 132.028 35.5091 132.438 34.4544C132.86 33.388 133.422 32.4798 134.125 31.7298C134.84 30.9681 135.678 30.3763 136.639 29.9544C137.6 29.5208 138.62 29.304 139.698 29.304C140.823 29.304 141.801 29.5384 142.633 30.0071C143.465 30.4759 144.069 31.1614 144.444 32.0638V29.6907H147.696V37.3196H144.444C144.444 35.8782 144.045 34.7298 143.249 33.8743C142.463 33.0071 141.438 32.5735 140.172 32.5735C139.668 32.5735 139.135 32.679 138.573 32.8899C138.022 33.0892 137.512 33.4056 137.043 33.8392C136.586 34.2728 136.206 34.8235 135.901 35.4915C135.596 36.1595 135.444 36.9622 135.444 37.8997C135.444 38.8138 135.59 39.6048 135.883 40.2728C136.176 40.929 136.557 41.4739 137.026 41.9075C137.506 42.3294 138.069 42.6517 138.713 42.8743C139.37 43.0853 140.043 43.1907 140.735 43.1907C141.918 43.1907 142.944 43.0091 143.811 42.6458C144.69 42.2708 145.446 41.7786 146.079 41.1692L147.942 43.7356ZM168.385 40.8528C168.198 42.5755 167.518 43.9466 166.346 44.9661C165.186 45.9739 163.733 46.4778 161.987 46.4778C161.026 46.4778 160.147 46.3196 159.35 46.0032C158.553 45.6868 157.874 45.2474 157.311 44.6849C156.749 44.1224 156.309 43.4485 155.993 42.6634C155.688 41.8665 155.536 40.9993 155.536 40.0618V32.9778H151.827V29.6907H155.536V23.1341H159.174V29.6907H166.047V32.9778H159.174V40.0618C159.174 41.1165 159.432 41.9017 159.948 42.4173C160.463 42.9329 161.143 43.1907 161.987 43.1907C163.018 43.1907 163.786 42.8919 164.29 42.2942C164.793 41.6966 165.092 40.9759 165.186 40.1321L168.385 40.8528Z" fill="#EE5656"/>
</svg>
