<svg width="133" height="79" viewBox="0 0 133 79" fill="none" xmlns="http://www.w3.org/2000/svg">
<path d="M7.06348 35.1377C4.91266 18.5009 18.6902 4.13559 35.4023 5.58984L63.751 8.05664C65.7487 8.23048 67.7582 8.22985 69.7559 8.05469L97.8213 5.59375C114.313 4.14785 127.852 18.4374 125.521 34.8271C125.117 37.6684 125.115 40.5582 125.511 43.3994C127.844 60.1326 113.963 74.7084 97.1562 73.1367L69.9541 70.5928C67.8251 70.3937 65.6819 70.3922 63.5527 70.5898L36.0742 73.1406C19.042 74.7214 4.92009 60.0709 7.07324 43.0879C7.40759 40.4506 7.40448 37.7751 7.06348 35.1377Z" fill="#F5F5F5" stroke="#EE5656" stroke-width="5"/>
<path d="M44.5989 46.0735H40.9603V36.0364H33.5774V46.0735H29.9388V23.1341H33.5774V32.7493H40.9603V23.1341H44.5989V46.0735ZM65.5345 37.8997C65.5345 39.177 65.3294 40.3372 64.9192 41.3802C64.5208 42.4231 63.9407 43.3255 63.179 44.0872C62.429 44.8372 61.5267 45.4231 60.472 45.845C59.4173 46.2669 58.2395 46.4778 56.9388 46.4778C55.6614 46.4778 54.4954 46.2669 53.4407 45.845C52.386 45.4231 51.4778 44.8372 50.7161 44.0872C49.9661 43.3255 49.386 42.4231 48.9759 41.3802C48.5774 40.3372 48.3782 39.177 48.3782 37.8997C48.3782 36.6575 48.5774 35.5091 48.9759 34.4544C49.386 33.388 49.9661 32.4739 50.7161 31.7122C51.4778 30.9388 52.386 30.347 53.4407 29.9368C54.4954 29.5149 55.6614 29.304 56.9388 29.304C58.2395 29.304 59.4173 29.5149 60.472 29.9368C61.5267 30.347 62.429 30.9388 63.179 31.7122C63.9407 32.4739 64.5208 33.388 64.9192 34.4544C65.3294 35.5091 65.5345 36.6575 65.5345 37.8997ZM61.9134 37.8997C61.9134 37.1614 61.7962 36.4641 61.5618 35.8079C61.3392 35.1399 61.011 34.5716 60.5774 34.1028C60.1438 33.6341 59.6165 33.2649 58.9954 32.9954C58.386 32.7141 57.7005 32.5735 56.9388 32.5735C56.1653 32.5735 55.4739 32.7141 54.8645 32.9954C54.2552 33.2649 53.7395 33.6341 53.3177 34.1028C52.8958 34.5716 52.5677 35.1399 52.3333 35.8079C52.1106 36.4641 51.9993 37.1614 51.9993 37.8997C51.9993 38.6731 52.1106 39.3763 52.3333 40.0091C52.5677 40.6419 52.8958 41.1985 53.3177 41.679C53.7395 42.1595 54.2552 42.5345 54.8645 42.804C55.4739 43.0618 56.1653 43.1907 56.9388 43.1907C57.7005 43.1907 58.386 43.0618 58.9954 42.804C59.6165 42.5345 60.1438 42.1595 60.5774 41.679C61.011 41.1985 61.3392 40.6419 61.5618 40.0091C61.7962 39.3763 61.9134 38.6731 61.9134 37.8997ZM84.7649 46.0735H81.1263V34.8411C81.1263 34.0677 81.0442 33.4993 80.8802 33.136C80.7278 32.761 80.4524 32.5735 80.054 32.5735C79.3274 32.5735 78.8645 32.9837 78.6653 33.804C78.4778 34.6126 78.3841 35.7962 78.3841 37.3548V46.0735H74.7454V34.8411C74.7454 34.0677 74.6634 33.4993 74.4993 33.136C74.3353 32.761 74.0481 32.5735 73.638 32.5735C72.9231 32.5735 72.472 32.9837 72.2845 33.804C72.1087 34.6126 72.0208 35.7962 72.0208 37.3548V46.0735H68.3821V29.6907H72.056V32.0638C72.3138 31.1614 72.6946 30.4759 73.1985 30.0071C73.7024 29.5384 74.3763 29.304 75.22 29.304C75.9231 29.304 76.5091 29.5208 76.9778 29.9544C77.4583 30.3763 77.7864 30.9622 77.9622 31.7122C78.3724 30.8919 78.7942 30.2884 79.2278 29.9016C79.6731 29.5032 80.3528 29.304 81.2669 29.304C82.3919 29.304 83.2532 29.72 83.8509 30.552C84.4603 31.3723 84.7649 32.6204 84.7649 34.2962V46.0735ZM91.3743 39.2708C91.5501 40.3958 92.0833 41.3333 92.9739 42.0833C93.8763 42.8216 95.0833 43.1907 96.595 43.1907C97.7786 43.1907 98.804 43.0091 99.6712 42.6458C100.55 42.2708 101.306 41.7786 101.939 41.1692L103.802 43.7356C102.747 44.7903 101.628 45.511 100.445 45.8977C99.2728 46.2845 97.9895 46.4778 96.595 46.4778C95.3294 46.4778 94.1517 46.2669 93.0618 45.845C91.972 45.4231 91.0286 44.8372 90.2317 44.0872C89.4349 43.3255 88.8079 42.4231 88.3509 41.3802C87.9056 40.3372 87.6829 39.177 87.6829 37.8997C87.6829 36.6575 87.888 35.5149 88.2981 34.472C88.72 33.4173 89.306 32.5091 90.056 31.7473C90.8177 30.9739 91.7259 30.3763 92.7806 29.9544C93.8353 29.5208 95.0013 29.304 96.2786 29.304C97.6028 29.304 98.804 29.5325 99.8821 29.9895C100.96 30.4348 101.88 31.0852 102.642 31.9407C103.415 32.7962 104.019 33.845 104.452 35.0872C104.886 36.3177 105.103 37.7122 105.103 39.2708H91.3743ZM100.99 36.0716C100.802 35.0169 100.257 34.1731 99.3548 33.5403C98.4524 32.8958 97.427 32.5735 96.2786 32.5735C95.1302 32.5735 94.0989 32.8958 93.1849 33.5403C92.2708 34.1731 91.72 35.0169 91.5325 36.0716H100.99Z" fill="#EE5656"/>
</svg>
