<svg width="263" height="79" viewBox="0 0 263 79" fill="none" xmlns="http://www.w3.org/2000/svg">
<path d="M33.8447 3.99219L131.89 8.30664L132 8.31152L132.11 8.30664L229.326 3.99609C244.269 3.3337 255.487 17.4787 251.438 31.8779C250.107 36.6088 250.102 41.6332 251.407 46.3662C255.473 61.1087 243.972 75.5968 228.73 74.876L132.118 70.3066L132 70.3008L131.883 70.3066L34.4541 74.8799C18.9213 75.609 7.07911 61.0451 10.8682 45.9316C11.9874 41.467 11.982 36.7719 10.8408 32.3086C7.06565 17.5423 18.6182 3.32212 33.8447 3.99219Z" fill="#F5F5F5" stroke="#EE5656" stroke-width="5"/>
<path d="M54.9727 39.0599C54.6914 40.1849 54.3164 41.2044 53.8477 42.1185C53.3789 43.0325 52.8047 43.8118 52.125 44.4563C51.457 45.1009 50.6719 45.5989 49.7695 45.9505C48.8789 46.302 47.8535 46.4778 46.6934 46.4778C45.0879 46.4778 43.7285 46.1497 42.6152 45.4935C41.502 44.8255 40.5879 43.9407 39.873 42.8392C39.1699 41.7259 38.6602 40.4603 38.3438 39.0423C38.0391 37.6126 37.8867 36.1302 37.8867 34.595C37.8867 33.0599 38.0391 31.5774 38.3438 30.1478C38.6602 28.7181 39.1641 27.4583 39.8555 26.3685C40.5586 25.2786 41.4492 24.4056 42.5273 23.7493C43.6055 23.0813 44.9238 22.7474 46.4824 22.7474C46.9863 22.7474 47.4961 22.8118 48.0117 22.9407C48.5273 23.0696 49.0078 23.2688 49.4531 23.5384C49.8984 23.7962 50.2852 24.1185 50.6133 24.5052C50.9531 24.8919 51.1934 25.3372 51.334 25.8411V23.1341H54.6211V31.8177H51.334C51.334 31.1028 51.2461 30.3997 51.0703 29.7083C50.8945 29.0052 50.6133 28.3841 50.2266 27.845C49.8398 27.306 49.3535 26.8665 48.7676 26.5267C48.1816 26.1868 47.4902 26.0169 46.6934 26.0169C45.6621 26.0169 44.8184 26.2688 44.1621 26.7728C43.5059 27.2767 42.9785 27.9388 42.5801 28.7591C42.1816 29.5794 41.9004 30.4993 41.7363 31.5188C41.584 32.5384 41.5078 33.5638 41.5078 34.595C41.5078 35.6263 41.584 36.6575 41.7363 37.6888C41.9004 38.72 42.1758 39.6458 42.5625 40.4661C42.9492 41.2747 43.4766 41.931 44.1445 42.4349C44.8125 42.9388 45.6621 43.1907 46.6934 43.1907C48.1816 43.1907 49.3242 42.7161 50.1211 41.7669C50.9297 40.8177 51.5742 39.5403 52.0547 37.9349L54.9727 39.0599ZM57.8203 41.3626C57.8203 40.4017 58.0781 39.5638 58.5938 38.8489C59.1094 38.1224 59.7832 37.5188 60.6152 37.0384C61.459 36.5579 62.4199 36.2005 63.498 35.9661C64.5879 35.72 65.6953 35.597 66.8203 35.597C67.4414 35.597 67.9746 35.6087 68.4199 35.6321C68.8652 35.6556 69.3164 35.6907 69.7734 35.7376V35.0872C69.7734 34.2317 69.4395 33.5931 68.7715 33.1712C68.1152 32.7493 67.248 32.5384 66.1699 32.5384C65.1855 32.5384 64.1836 32.679 63.1641 32.9603C62.1445 33.2298 61.1777 33.6282 60.2637 34.1556L58.7871 31.3079C59.8652 30.6868 61.0195 30.2005 62.25 29.8489C63.4922 29.4856 64.7988 29.304 66.1699 29.304C67.0605 29.304 67.9336 29.4036 68.7891 29.6028C69.6562 29.802 70.4297 30.1302 71.1094 30.5872C71.8008 31.0442 72.3516 31.6419 72.7617 32.3802C73.1719 33.1067 73.377 34.0091 73.377 35.0872V46.0735H69.7734V43.6653C69.1992 44.556 68.3496 45.2474 67.2246 45.7395C66.1113 46.2317 64.9102 46.4778 63.6211 46.4778C62.8242 46.4778 62.0684 46.3665 61.3535 46.1438C60.6504 45.9329 60.041 45.6106 59.5254 45.177C59.0098 44.7435 58.5938 44.2103 58.2773 43.5774C57.9727 42.9329 57.8203 42.1946 57.8203 41.3626ZM64.5527 43.2259C65.2676 43.2259 65.9355 43.138 66.5566 42.9622C67.1895 42.7747 67.7461 42.5228 68.2266 42.2063C68.707 41.8782 69.082 41.4856 69.3516 41.0286C69.6328 40.5716 69.7734 40.0677 69.7734 39.5169V38.9017C69.1992 38.8079 68.6602 38.7552 68.1562 38.7435C67.6523 38.7317 67.207 38.7259 66.8203 38.7259C65.0391 38.7259 63.6914 38.9603 62.7773 39.429C61.875 39.8978 61.4238 40.4778 61.4238 41.1692C61.4238 42.5403 62.4668 43.2259 64.5527 43.2259ZM94.1016 40.8528C93.9141 42.5755 93.2344 43.9466 92.0625 44.9661C90.9023 45.9739 89.4492 46.4778 87.7031 46.4778C86.7422 46.4778 85.8633 46.3196 85.0664 46.0032C84.2695 45.6868 83.5898 45.2474 83.0273 44.6849C82.4648 44.1224 82.0254 43.4485 81.709 42.6634C81.4043 41.8665 81.252 40.9993 81.252 40.0618V32.9778H77.543V29.6907H81.252V23.1341H84.8906V29.6907H91.7637V32.9778H84.8906V40.0618C84.8906 41.1165 85.1484 41.9017 85.6641 42.4173C86.1797 42.9329 86.8594 43.1907 87.7031 43.1907C88.7344 43.1907 89.502 42.8919 90.0059 42.2942C90.5098 41.6966 90.8086 40.9759 90.9023 40.1321L94.1016 40.8528ZM100.535 39.2708C100.711 40.3958 101.244 41.3333 102.135 42.0833C103.037 42.8216 104.244 43.1907 105.756 43.1907C106.939 43.1907 107.965 43.0091 108.832 42.6458C109.711 42.2708 110.467 41.7786 111.1 41.1692L112.963 43.7356C111.908 44.7903 110.789 45.511 109.605 45.8978C108.434 46.2845 107.15 46.4778 105.756 46.4778C104.49 46.4778 103.312 46.2669 102.223 45.845C101.133 45.4231 100.189 44.8372 99.3926 44.0872C98.5957 43.3255 97.9688 42.4231 97.5117 41.3802C97.0664 40.3372 96.8438 39.177 96.8438 37.8997C96.8438 36.6575 97.0488 35.5149 97.459 34.472C97.8809 33.4173 98.4668 32.5091 99.2168 31.7474C99.9785 30.9739 100.887 30.3763 101.941 29.9544C102.996 29.5208 104.162 29.304 105.439 29.304C106.764 29.304 107.965 29.5325 109.043 29.9895C110.121 30.4349 111.041 31.0853 111.803 31.9407C112.576 32.7962 113.18 33.845 113.613 35.0872C114.047 36.3177 114.264 37.7122 114.264 39.2708H100.535ZM110.15 36.0716C109.963 35.0169 109.418 34.1731 108.516 33.5403C107.613 32.8958 106.588 32.5735 105.439 32.5735C104.291 32.5735 103.26 32.8958 102.346 33.5403C101.432 34.1731 100.881 35.0169 100.693 36.0716H110.15ZM132.369 45.8978C132.369 47.0228 132.176 48.0247 131.789 48.9036C131.402 49.7825 130.857 50.5267 130.154 51.136C129.463 51.7454 128.643 52.2083 127.693 52.5247C126.756 52.8528 125.707 53.0169 124.547 53.0169C121.699 53.0169 119.268 52.1556 117.252 50.4329L118.975 47.6204C120.65 49.0618 122.508 49.7825 124.547 49.7825C125.801 49.7825 126.809 49.472 127.57 48.8509C128.344 48.2415 128.73 47.2806 128.73 45.9681V44.2103C127.98 44.8548 127.26 45.3353 126.568 45.6517C125.877 45.9563 125.074 46.1087 124.16 46.1087C123.105 46.1087 122.127 45.886 121.225 45.4407C120.322 44.9954 119.543 44.3919 118.887 43.6302C118.242 42.8567 117.732 41.9603 117.357 40.9407C116.994 39.9212 116.812 38.8372 116.812 37.6888C116.812 36.5403 116.994 35.4563 117.357 34.4368C117.732 33.4056 118.242 32.5149 118.887 31.7649C119.543 31.0032 120.322 30.4056 121.225 29.972C122.127 29.5267 123.105 29.304 124.16 29.304C125.074 29.304 125.889 29.4622 126.604 29.7786C127.318 30.0833 128.027 30.5462 128.73 31.1673V29.6907H132.369V45.8978ZM128.73 34.0501C128.297 33.5696 127.734 33.2063 127.043 32.9603C126.363 32.7024 125.701 32.5735 125.057 32.5735C123.686 32.5735 122.572 33.054 121.717 34.0149C120.873 34.9759 120.451 36.2005 120.451 37.6888C120.451 38.427 120.562 39.1126 120.785 39.7454C121.02 40.3665 121.336 40.9056 121.734 41.3626C122.145 41.8196 122.631 42.1829 123.193 42.4524C123.768 42.7103 124.389 42.8392 125.057 42.8392C125.701 42.8392 126.363 42.7103 127.043 42.4524C127.734 42.1829 128.297 41.8079 128.73 41.3274V34.0501ZM153.305 37.8997C153.305 39.177 153.1 40.3372 152.689 41.3802C152.291 42.4231 151.711 43.3255 150.949 44.0872C150.199 44.8372 149.297 45.4231 148.242 45.845C147.188 46.2669 146.01 46.4778 144.709 46.4778C143.432 46.4778 142.266 46.2669 141.211 45.845C140.156 45.4231 139.248 44.8372 138.486 44.0872C137.736 43.3255 137.156 42.4231 136.746 41.3802C136.348 40.3372 136.148 39.177 136.148 37.8997C136.148 36.6575 136.348 35.5091 136.746 34.4544C137.156 33.388 137.736 32.4739 138.486 31.7122C139.248 30.9388 140.156 30.347 141.211 29.9368C142.266 29.5149 143.432 29.304 144.709 29.304C146.01 29.304 147.188 29.5149 148.242 29.9368C149.297 30.347 150.199 30.9388 150.949 31.7122C151.711 32.4739 152.291 33.388 152.689 34.4544C153.1 35.5091 153.305 36.6575 153.305 37.8997ZM149.684 37.8997C149.684 37.1614 149.566 36.4642 149.332 35.8079C149.109 35.1399 148.781 34.5716 148.348 34.1028C147.914 33.6341 147.387 33.2649 146.766 32.9954C146.156 32.7142 145.471 32.5735 144.709 32.5735C143.936 32.5735 143.244 32.7142 142.635 32.9954C142.025 33.2649 141.51 33.6341 141.088 34.1028C140.666 34.5716 140.338 35.1399 140.104 35.8079C139.881 36.4642 139.77 37.1614 139.77 37.8997C139.77 38.6731 139.881 39.3763 140.104 40.0091C140.338 40.6419 140.666 41.1985 141.088 41.679C141.51 42.1595 142.025 42.5345 142.635 42.804C143.244 43.0618 143.936 43.1907 144.709 43.1907C145.471 43.1907 146.156 43.0618 146.766 42.804C147.387 42.5345 147.914 42.1595 148.348 41.679C148.781 41.1985 149.109 40.6419 149.332 40.0091C149.566 39.3763 149.684 38.6731 149.684 37.8997ZM172.131 33.5755C171.697 33.3645 171.252 33.2063 170.795 33.1009C170.35 32.9837 169.834 32.9251 169.248 32.9251C168.439 32.9251 167.678 33.0481 166.963 33.2942C166.26 33.5286 165.65 33.886 165.135 34.3665C164.619 34.847 164.215 35.4505 163.922 36.177C163.641 36.8919 163.5 37.7415 163.5 38.7259V42.804H167.174V46.0735H156.152V42.804H159.861V32.9778H156.152V29.6907H163.5V33.804C164.098 32.1634 164.977 31.0032 166.137 30.3235C167.309 29.6438 168.697 29.304 170.303 29.304C170.807 29.304 171.334 29.3567 171.885 29.4622C172.436 29.5677 172.975 29.7552 173.502 30.0247L172.131 33.5755ZM186.211 27.5638H181.781V23.1341H186.211V27.5638ZM189.551 46.0735H178.547V42.804H182.168V32.9778H178.547V29.6907H185.807V42.804H189.551V46.0735ZM198.797 39.2708C198.973 40.3958 199.506 41.3333 200.396 42.0833C201.299 42.8216 202.506 43.1907 204.018 43.1907C205.201 43.1907 206.227 43.0091 207.094 42.6458C207.973 42.2708 208.729 41.7786 209.361 41.1692L211.225 43.7356C210.17 44.7903 209.051 45.511 207.867 45.8978C206.695 46.2845 205.412 46.4778 204.018 46.4778C202.752 46.4778 201.574 46.2669 200.484 45.845C199.395 45.4231 198.451 44.8372 197.654 44.0872C196.857 43.3255 196.23 42.4231 195.773 41.3802C195.328 40.3372 195.105 39.177 195.105 37.8997C195.105 36.6575 195.311 35.5149 195.721 34.472C196.143 33.4173 196.729 32.5091 197.479 31.7474C198.24 30.9739 199.148 30.3763 200.203 29.9544C201.258 29.5208 202.424 29.304 203.701 29.304C205.025 29.304 206.227 29.5325 207.305 29.9895C208.383 30.4349 209.303 31.0853 210.064 31.9407C210.838 32.7962 211.441 33.845 211.875 35.0872C212.309 36.3177 212.525 37.7122 212.525 39.2708H198.797ZM208.412 36.0716C208.225 35.0169 207.68 34.1731 206.777 33.5403C205.875 32.8958 204.85 32.5735 203.701 32.5735C202.553 32.5735 201.521 32.8958 200.607 33.5403C199.693 34.1731 199.143 35.0169 198.955 36.0716H208.412ZM231.053 41.1692C231.053 42.2356 230.812 43.1028 230.332 43.7708C229.852 44.4388 229.23 44.9778 228.469 45.388C227.719 45.7981 226.875 46.0794 225.938 46.2317C225.012 46.3958 224.104 46.4778 223.213 46.4778C221.725 46.4778 220.242 46.261 218.766 45.8274C217.289 45.3938 216.012 44.8255 214.934 44.1224L216.445 41.1341C217.734 41.8841 218.912 42.4173 219.979 42.7337C221.057 43.0384 222.135 43.1907 223.213 43.1907C224.678 43.1907 225.744 43.0384 226.412 42.7337C227.08 42.4173 227.414 41.9837 227.414 41.4329C227.414 41.1634 227.32 40.9407 227.133 40.7649C226.945 40.5892 226.635 40.431 226.201 40.2903C225.768 40.138 225.193 39.9915 224.479 39.8509C223.775 39.6985 222.896 39.5403 221.842 39.3763C220.998 39.2356 220.195 39.0657 219.434 38.8665C218.684 38.6556 218.021 38.3626 217.447 37.9876C216.873 37.6126 216.41 37.138 216.059 36.5638C215.719 35.9895 215.549 35.2688 215.549 34.4017C215.549 33.5228 215.771 32.761 216.217 32.1165C216.674 31.4603 217.266 30.9212 217.992 30.4993C218.73 30.0774 219.557 29.7728 220.471 29.5853C221.385 29.3978 222.299 29.304 223.213 29.304C224.502 29.304 225.75 29.4739 226.957 29.8138C228.176 30.1419 229.242 30.6165 230.156 31.2376L228.715 34.0501C227.801 33.4759 226.91 33.0892 226.043 32.8899C225.188 32.679 224.244 32.5735 223.213 32.5735C222.779 32.5735 222.328 32.597 221.859 32.6438C221.391 32.6907 220.957 32.7845 220.559 32.9251C220.16 33.054 219.826 33.2356 219.557 33.47C219.299 33.6927 219.17 33.9681 219.17 34.2962C219.17 34.7298 219.551 35.0872 220.312 35.3685C221.086 35.638 222.398 35.9075 224.25 36.177C225.258 36.3177 226.178 36.4993 227.01 36.722C227.842 36.9329 228.557 37.2259 229.154 37.6009C229.752 37.9642 230.215 38.4388 230.543 39.0247C230.883 39.5989 231.053 40.3138 231.053 41.1692Z" fill="#EE5656"/>
</svg>
