<svg width="174" height="79" viewBox="0 0 174 79" fill="none" xmlns="http://www.w3.org/2000/svg">
<path d="M8.30762 34.127C5.59612 18.0969 18.5691 3.74034 34.791 4.81934L87.165 8.30371L87.3311 8.31445L87.498 8.30371L139.438 4.82227C155.409 3.75212 168.103 18.0267 165.175 33.7627C164.517 37.2978 164.513 40.9334 165.158 44.4688C168.093 60.552 155.077 75.1408 138.791 73.9766L89.7822 70.4727C88.1505 70.356 86.5126 70.3559 84.8809 70.4717L35.4473 73.9785C18.904 75.1521 5.60566 60.4836 8.32227 44.1035C8.8695 40.8043 8.86565 37.4262 8.30762 34.127Z" fill="#F5F5F5" stroke="#EE5656" stroke-width="5"/>
<path d="M56.2175 46.0735H41.5574V23.134H45.196V42.804H56.2175V46.0735ZM77.1531 37.8997C77.1531 39.177 76.948 40.3372 76.5378 41.3801C76.1394 42.4231 75.5593 43.3254 74.7976 44.0872C74.0476 44.8372 73.1453 45.4231 72.0906 45.845C71.0359 46.2668 69.8582 46.4778 68.5574 46.4778C67.28 46.4778 66.114 46.2668 65.0593 45.845C64.0046 45.4231 63.0964 44.8372 62.3347 44.0872C61.5847 43.3254 61.0046 42.4231 60.5945 41.3801C60.196 40.3372 59.9968 39.177 59.9968 37.8997C59.9968 36.6575 60.196 35.509 60.5945 34.4543C61.0046 33.3879 61.5847 32.4739 62.3347 31.7122C63.0964 30.9387 64.0046 30.3469 65.0593 29.9368C66.114 29.5149 67.28 29.304 68.5574 29.304C69.8582 29.304 71.0359 29.5149 72.0906 29.9368C73.1453 30.3469 74.0476 30.9387 74.7976 31.7122C75.5593 32.4739 76.1394 33.3879 76.5378 34.4543C76.948 35.509 77.1531 36.6575 77.1531 37.8997ZM73.532 37.8997C73.532 37.1614 73.4148 36.4641 73.1804 35.8079C72.9578 35.1399 72.6296 34.5715 72.196 34.1028C71.7625 33.634 71.2351 33.2649 70.614 32.9954C70.0046 32.7141 69.3191 32.5735 68.5574 32.5735C67.7839 32.5735 67.0925 32.7141 66.4832 32.9954C65.8738 33.2649 65.3582 33.634 64.9363 34.1028C64.5144 34.5715 64.1863 35.1399 63.9519 35.8079C63.7292 36.4641 63.6179 37.1614 63.6179 37.8997C63.6179 38.6731 63.7292 39.3762 63.9519 40.009C64.1863 40.6418 64.5144 41.1985 64.9363 41.679C65.3582 42.1594 65.8738 42.5344 66.4832 42.804C67.0925 43.0618 67.7839 43.1907 68.5574 43.1907C69.3191 43.1907 70.0046 43.0618 70.614 42.804C71.2351 42.5344 71.7625 42.1594 72.196 41.679C72.6296 41.1985 72.9578 40.6418 73.1804 40.009C73.4148 39.3762 73.532 38.6731 73.532 37.8997ZM95.5222 45.8977C95.5222 47.0227 95.3289 48.0247 94.9421 48.9036C94.5554 49.7825 94.0105 50.5266 93.3074 51.136C92.616 51.7454 91.7957 52.2083 90.8464 52.5247C89.9089 52.8528 88.8601 53.0168 87.7 53.0168C84.8523 53.0168 82.4207 52.1555 80.405 50.4329L82.1277 47.6204C83.8035 49.0618 85.6609 49.7825 87.7 49.7825C88.9539 49.7825 89.9617 49.4719 90.7234 48.8508C91.4968 48.2415 91.8835 47.2805 91.8835 45.968V44.2102C91.1335 44.8547 90.4128 45.3352 89.7214 45.6516C89.03 45.9563 88.2273 46.1086 87.3132 46.1086C86.2585 46.1086 85.28 45.886 84.3777 45.4407C83.4753 44.9954 82.696 44.3918 82.0398 43.6301C81.3953 42.8567 80.8855 41.9602 80.5105 40.9407C80.1472 39.9211 79.9656 38.8372 79.9656 37.6887C79.9656 36.5403 80.1472 35.4563 80.5105 34.4368C80.8855 33.4055 81.3953 32.5149 82.0398 31.7649C82.696 31.0032 83.4753 30.4055 84.3777 29.9719C85.28 29.5266 86.2585 29.304 87.3132 29.304C88.2273 29.304 89.0417 29.4622 89.7566 29.7786C90.4714 30.0833 91.1804 30.5461 91.8835 31.1672V29.6907H95.5222V45.8977ZM91.8835 34.05C91.45 33.5696 90.8875 33.2063 90.196 32.9602C89.5164 32.7024 88.8542 32.5735 88.2097 32.5735C86.8386 32.5735 85.7253 33.054 84.8699 34.0149C84.0261 34.9758 83.6042 36.2004 83.6042 37.6887C83.6042 38.427 83.7156 39.1125 83.9382 39.7454C84.1726 40.3665 84.489 40.9055 84.8875 41.3625C85.2976 41.8196 85.7839 42.1829 86.3464 42.4524C86.9207 42.7102 87.5417 42.8391 88.2097 42.8391C88.8542 42.8391 89.5164 42.7102 90.196 42.4524C90.8875 42.1829 91.45 41.8079 91.8835 41.3274V34.05ZM110.059 27.5637H105.63V23.134H110.059V27.5637ZM113.399 46.0735H102.395V42.804H106.016V32.9778H102.395V29.6907H109.655V42.804H113.399V46.0735ZM134.827 46.0735H131.188V35.9661C131.188 34.6887 130.948 33.804 130.468 33.3118C129.987 32.8196 129.29 32.5735 128.376 32.5735C127.028 32.5735 125.927 33.1184 125.071 34.2083C124.227 35.2981 123.805 36.804 123.805 38.7258V46.0735H120.167V29.6907H123.805V33.804C124.169 32.386 124.843 31.2844 125.827 30.4993C126.811 29.7024 128.024 29.304 129.466 29.304C131.141 29.304 132.454 29.8489 133.403 30.9387C134.352 32.0286 134.827 33.7043 134.827 35.9661V46.0735Z" fill="#EE5656"/>
</svg>
