<svg width="363" height="60" viewBox="0 0 363 60" fill="none" xmlns="http://www.w3.org/2000/svg">
<path d="M30.0118 0L36.7499 20.7295H58.5547L40.9142 33.541L47.6523 54.2705L30.0118 41.459L12.3713 54.2705L19.1094 33.541L1.46888 20.7295H23.2737L30.0118 0Z" fill="#FFA352"/>
<path d="M105.756 0L112.494 20.7295H134.299L116.658 33.541L123.396 54.2705L105.756 41.459L88.1154 54.2705L94.8535 33.541L77.213 20.7295H99.0178L105.756 0Z" fill="#FFA352"/>
<path d="M181.5 0L188.238 20.7295H210.043L192.402 33.541L199.14 54.2705L181.5 41.459L163.86 54.2705L170.598 33.541L152.957 20.7295H174.762L181.5 0Z" fill="#FFA352"/>
<path d="M257.244 0L263.982 20.7295H285.787L268.147 33.541L274.885 54.2705L257.244 41.459L239.604 54.2705L246.342 33.541L228.701 20.7295H250.506L257.244 0Z" fill="#FFA352"/>
<path d="M332.988 0L339.726 20.7295H361.531L343.891 33.541L350.629 54.2705L332.988 41.459L315.348 54.2705L322.086 33.541L304.445 20.7295H326.25L332.988 0Z" fill="#FFA352"/>
</svg>
