<svg width="402" height="102" viewBox="0 0 402 102" fill="none" xmlns="http://www.w3.org/2000/svg">
<path d="M43.3418 4.11328L201.672 9.99805L201.765 10.002L201.857 9.99805L358.797 4.12012C378.001 3.40081 392.012 22.0848 385.941 40.3184C383.74 46.9291 383.733 54.1044 385.894 60.7217C391.987 79.387 377.642 98.5243 358.064 97.7422L201.864 91.502L201.765 91.498L201.665 91.502L44.0957 97.75C24.1456 98.541 9.33471 79.3343 15.0264 60.1572C16.8905 53.8766 16.8839 47.1518 14.9844 40.876C9.3127 22.1367 23.7764 3.38599 43.3418 4.11328Z" fill="#F5F5F5" stroke="#EE5656" stroke-width="5"/>
<path d="M155.362 50.4863C155.081 51.6113 154.706 52.6309 154.237 53.5449C153.768 54.459 153.194 55.2383 152.514 55.8828C151.846 56.5273 151.061 57.0254 150.159 57.377C149.268 57.7285 148.243 57.9043 147.083 57.9043C145.477 57.9043 144.118 57.5762 143.004 56.9199C141.891 56.252 140.977 55.3672 140.262 54.2656C139.559 53.1523 139.049 51.8867 138.733 50.4688C138.428 49.0391 138.276 47.5566 138.276 46.0215C138.276 44.4863 138.428 43.0039 138.733 41.5742C139.049 40.1445 139.553 38.8848 140.245 37.7949C140.948 36.7051 141.838 35.832 142.917 35.1758C143.995 34.5078 145.313 34.1738 146.872 34.1738C147.375 34.1738 147.885 34.2383 148.401 34.3672C148.917 34.4961 149.397 34.6953 149.842 34.9648C150.288 35.2227 150.674 35.5449 151.002 35.9316C151.342 36.3184 151.583 36.7637 151.723 37.2676V34.5605H155.01V43.2441H151.723C151.723 42.5293 151.635 41.8262 151.459 41.1348C151.284 40.4316 151.002 39.8105 150.616 39.2715C150.229 38.7324 149.743 38.293 149.157 37.9531C148.571 37.6133 147.879 37.4434 147.083 37.4434C146.051 37.4434 145.208 37.6953 144.551 38.1992C143.895 38.7031 143.368 39.3652 142.969 40.1855C142.571 41.0059 142.29 41.9258 142.125 42.9453C141.973 43.9648 141.897 44.9902 141.897 46.0215C141.897 47.0527 141.973 48.084 142.125 49.1152C142.29 50.1465 142.565 51.0723 142.952 51.8926C143.338 52.7012 143.866 53.3574 144.534 53.8613C145.202 54.3652 146.051 54.6172 147.083 54.6172C148.571 54.6172 149.713 54.1426 150.51 53.1934C151.319 52.2441 151.963 50.9668 152.444 49.3613L155.362 50.4863ZM172.061 57.5H161.057V54.2305H164.643V37.8477H161.057V34.5605H168.282V54.2305H172.061V57.5ZM194.737 49.3262C194.737 50.6035 194.532 51.7637 194.122 52.8066C193.723 53.8496 193.143 54.752 192.381 55.5137C191.631 56.2637 190.729 56.8496 189.674 57.2715C188.62 57.6934 187.442 57.9043 186.141 57.9043C184.864 57.9043 183.698 57.6934 182.643 57.2715C181.588 56.8496 180.68 56.2637 179.918 55.5137C179.168 54.752 178.588 53.8496 178.178 52.8066C177.78 51.7637 177.581 50.6035 177.581 49.3262C177.581 48.084 177.78 46.9355 178.178 45.8809C178.588 44.8145 179.168 43.9004 179.918 43.1387C180.68 42.3652 181.588 41.7734 182.643 41.3633C183.698 40.9414 184.864 40.7305 186.141 40.7305C187.442 40.7305 188.62 40.9414 189.674 41.3633C190.729 41.7734 191.631 42.3652 192.381 43.1387C193.143 43.9004 193.723 44.8145 194.122 45.8809C194.532 46.9355 194.737 48.084 194.737 49.3262ZM191.116 49.3262C191.116 48.5879 190.999 47.8906 190.764 47.2344C190.542 46.5664 190.213 45.998 189.78 45.5293C189.346 45.0605 188.819 44.6914 188.198 44.4219C187.588 44.1406 186.903 44 186.141 44C185.368 44 184.676 44.1406 184.067 44.4219C183.458 44.6914 182.942 45.0605 182.52 45.5293C182.098 45.998 181.77 46.5664 181.536 47.2344C181.313 47.8906 181.202 48.5879 181.202 49.3262C181.202 50.0996 181.313 50.8027 181.536 51.4355C181.77 52.0684 182.098 52.625 182.52 53.1055C182.942 53.5859 183.458 53.9609 184.067 54.2305C184.676 54.4883 185.368 54.6172 186.141 54.6172C186.903 54.6172 187.588 54.4883 188.198 54.2305C188.819 53.9609 189.346 53.5859 189.78 53.1055C190.213 52.625 190.542 52.0684 190.764 51.4355C190.999 50.8027 191.116 50.0996 191.116 49.3262ZM214.143 52.2793C213.956 54.002 213.276 55.373 212.104 56.3926C210.944 57.4004 209.491 57.9043 207.745 57.9043C206.784 57.9043 205.905 57.7461 205.108 57.4297C204.311 57.1133 203.631 56.6738 203.069 56.1113C202.506 55.5488 202.067 54.875 201.75 54.0898C201.446 53.293 201.293 52.4258 201.293 51.4883V44.4043H197.584V41.1172H201.293V34.5605H204.932V41.1172H211.805V44.4043H204.932V51.4883C204.932 52.543 205.19 53.3281 205.706 53.8438C206.221 54.3594 206.901 54.6172 207.745 54.6172C208.776 54.6172 209.543 54.3184 210.047 53.7207C210.551 53.123 210.85 52.4023 210.944 51.5586L214.143 52.2793ZM232.758 57.5H229.12V47.3926C229.12 46.1152 228.879 45.2305 228.399 44.7383C227.918 44.2461 227.221 44 226.307 44C224.959 44 223.858 44.5449 223.002 45.6348C222.159 46.7246 221.737 48.2305 221.737 50.1523V57.5H218.098V34.5605H221.737V45.2305C222.1 43.8125 222.774 42.7109 223.758 41.9258C224.743 41.1289 225.956 40.7305 227.397 40.7305C229.073 40.7305 230.385 41.2754 231.334 42.3652C232.284 43.4551 232.758 45.1309 232.758 47.3926V57.5ZM240.229 50.6973C240.405 51.8223 240.938 52.7598 241.829 53.5098C242.731 54.248 243.938 54.6172 245.45 54.6172C246.633 54.6172 247.659 54.4355 248.526 54.0723C249.405 53.6973 250.161 53.2051 250.793 52.5957L252.657 55.1621C251.602 56.2168 250.483 56.9375 249.299 57.3242C248.127 57.7109 246.844 57.9043 245.45 57.9043C244.184 57.9043 243.006 57.6934 241.917 57.2715C240.827 56.8496 239.883 56.2637 239.086 55.5137C238.29 54.752 237.663 53.8496 237.206 52.8066C236.76 51.7637 236.538 50.6035 236.538 49.3262C236.538 48.084 236.743 46.9414 237.153 45.8984C237.575 44.8438 238.161 43.9355 238.911 43.1738C239.672 42.4004 240.581 41.8027 241.635 41.3809C242.69 40.9473 243.856 40.7305 245.133 40.7305C246.458 40.7305 247.659 40.959 248.737 41.416C249.815 41.8613 250.735 42.5117 251.497 43.3672C252.27 44.2227 252.874 45.2715 253.307 46.5137C253.741 47.7441 253.958 49.1387 253.958 50.6973H240.229ZM249.844 47.498C249.657 46.4434 249.112 45.5996 248.209 44.9668C247.307 44.3223 246.282 44 245.133 44C243.985 44 242.954 44.3223 242.04 44.9668C241.125 45.5996 240.575 46.4434 240.387 47.498H249.844ZM272.485 52.5957C272.485 53.6621 272.245 54.5293 271.764 55.1973C271.284 55.8652 270.663 56.4043 269.901 56.8145C269.151 57.2246 268.307 57.5059 267.37 57.6582C266.444 57.8223 265.536 57.9043 264.645 57.9043C263.157 57.9043 261.674 57.6875 260.198 57.2539C258.721 56.8203 257.444 56.252 256.366 55.5488L257.877 52.5605C259.167 53.3105 260.344 53.8438 261.411 54.1602C262.489 54.4648 263.567 54.6172 264.645 54.6172C266.11 54.6172 267.176 54.4648 267.844 54.1602C268.512 53.8438 268.846 53.4102 268.846 52.8594C268.846 52.5898 268.752 52.3672 268.565 52.1914C268.377 52.0156 268.067 51.8574 267.633 51.7168C267.2 51.5645 266.625 51.418 265.911 51.2773C265.208 51.125 264.329 50.9668 263.274 50.8027C262.43 50.6621 261.627 50.4922 260.866 50.293C260.116 50.082 259.454 49.7891 258.879 49.4141C258.305 49.0391 257.842 48.5645 257.491 47.9902C257.151 47.416 256.981 46.6953 256.981 45.8281C256.981 44.9492 257.204 44.1875 257.649 43.543C258.106 42.8867 258.698 42.3477 259.424 41.9258C260.163 41.5039 260.989 41.1992 261.903 41.0117C262.817 40.8242 263.731 40.7305 264.645 40.7305C265.934 40.7305 267.182 40.9004 268.389 41.2402C269.608 41.5684 270.674 42.043 271.588 42.6641L270.147 45.4766C269.233 44.9023 268.342 44.5156 267.475 44.3164C266.62 44.1055 265.676 44 264.645 44C264.211 44 263.76 44.0234 263.292 44.0703C262.823 44.1172 262.389 44.2109 261.991 44.3516C261.592 44.4805 261.258 44.6621 260.989 44.8965C260.731 45.1191 260.602 45.3945 260.602 45.7227C260.602 46.1562 260.983 46.5137 261.745 46.7949C262.518 47.0645 263.831 47.334 265.682 47.6035C266.69 47.7441 267.61 47.9258 268.442 48.1484C269.274 48.3594 269.989 48.6523 270.586 49.0273C271.184 49.3906 271.647 49.8652 271.975 50.4512C272.315 51.0254 272.485 51.7402 272.485 52.5957Z" fill="#EE5656"/>
</svg>
