<svg width="270" height="102" viewBox="0 0 270 102" fill="none" xmlns="http://www.w3.org/2000/svg">
<path d="M2.96099 28.8603C1.40169 13.662 13.7192 0.632103 28.9811 1.33528L141.076 6.5L239.367 1.54446C255.181 0.747153 267.743 14.6655 265.335 30.3154L262.665 47.6597C262.274 50.2046 262.278 52.7948 262.677 55.3385L265.193 71.3702C267.665 87.1194 254.963 101.128 239.047 100.204L132.094 94L29.4453 100.217C14.0292 101.15 1.46257 88.0214 3.06972 72.6609L5.01421 54.0763C5.19343 52.3633 5.19516 50.6365 5.01939 48.9232L2.96099 28.8603Z" fill="#FFA352"/>
<path d="M76.3995 39.0605L72.8487 62H69.1046L67.0831 52.1035L65.0967 62H61.3526L57.8018 39.0605H61.5811L63.6905 54.5117L65.3604 45.6172H68.8409L70.4581 54.5117L72.6202 39.0605H76.3995ZM81.9014 55.1973C82.0772 56.3223 82.6104 57.2598 83.501 58.0098C84.4034 58.748 85.6104 59.1172 87.1221 59.1172C88.3057 59.1172 89.3311 58.9355 90.1983 58.5723C91.0772 58.1973 91.8331 57.7051 92.4659 57.0957L94.3292 59.6621C93.2745 60.7168 92.1553 61.4375 90.9717 61.8242C89.7999 62.2109 88.5167 62.4043 87.1221 62.4043C85.8565 62.4043 84.6788 62.1934 83.5889 61.7715C82.4991 61.3496 81.5557 60.7637 80.7589 60.0137C79.962 59.252 79.335 58.3496 78.878 57.3066C78.4327 56.2637 78.21 55.1035 78.21 53.8262C78.21 52.584 78.4151 51.4414 78.8253 50.3984C79.2471 49.3438 79.8331 48.4355 80.5831 47.6738C81.3448 46.9004 82.253 46.3027 83.3077 45.8809C84.3624 45.4473 85.5284 45.2305 86.8057 45.2305C88.1299 45.2305 89.3311 45.459 90.4092 45.916C91.4874 46.3613 92.4073 47.0117 93.169 47.8672C93.9424 48.7227 94.546 49.7715 94.9796 51.0137C95.4131 52.2441 95.6299 53.6387 95.6299 55.1973H81.9014ZM91.5167 51.998C91.3292 50.9434 90.7842 50.0996 89.8819 49.4668C88.9796 48.8223 87.9542 48.5 86.8057 48.5C85.6573 48.5 84.626 48.8223 83.712 49.4668C82.7979 50.0996 82.2471 50.9434 82.0596 51.998H91.5167ZM98.1436 57.2891C98.1436 56.3281 98.4014 55.4902 98.9171 54.7754C99.4327 54.0488 100.107 53.4453 100.939 52.9648C101.782 52.4844 102.743 52.127 103.821 51.8926C104.911 51.6465 106.019 51.5234 107.144 51.5234C107.765 51.5234 108.298 51.5352 108.743 51.5586C109.189 51.582 109.64 51.6172 110.097 51.6641V51.0137C110.097 50.1582 109.763 49.5195 109.095 49.0977C108.439 48.6758 107.571 48.4648 106.493 48.4648C105.509 48.4648 104.507 48.6055 103.487 48.8867C102.468 49.1562 101.501 49.5547 100.587 50.082L99.1104 47.2344C100.189 46.6133 101.343 46.127 102.573 45.7754C103.815 45.4121 105.122 45.2305 106.493 45.2305C107.384 45.2305 108.257 45.3301 109.112 45.5293C109.98 45.7285 110.753 46.0566 111.433 46.5137C112.124 46.9707 112.675 47.5684 113.085 48.3066C113.495 49.0332 113.7 49.9355 113.7 51.0137V62H110.097V59.5918C109.523 60.4824 108.673 61.1738 107.548 61.666C106.435 62.1582 105.233 62.4043 103.944 62.4043C103.148 62.4043 102.392 62.293 101.677 62.0703C100.974 61.8594 100.364 61.5371 99.8487 61.1035C99.3331 60.6699 98.9171 60.1367 98.6006 59.5039C98.296 58.8594 98.1436 58.1211 98.1436 57.2891ZM104.876 59.1523C105.591 59.1523 106.259 59.0645 106.88 58.8887C107.513 58.7012 108.069 58.4492 108.55 58.1328C109.03 57.8047 109.405 57.4121 109.675 56.9551C109.956 56.498 110.097 55.9941 110.097 55.4434V54.8281C109.523 54.7344 108.983 54.6816 108.48 54.6699C107.976 54.6582 107.53 54.6523 107.144 54.6523C105.362 54.6523 104.015 54.8867 103.101 55.3555C102.198 55.8242 101.747 56.4043 101.747 57.0957C101.747 58.4668 102.79 59.1523 104.876 59.1523ZM133.845 49.502C133.411 49.291 132.966 49.1328 132.509 49.0273C132.064 48.9102 131.548 48.8516 130.962 48.8516C130.153 48.8516 129.392 48.9746 128.677 49.2207C127.974 49.4551 127.364 49.8125 126.849 50.293C126.333 50.7734 125.929 51.377 125.636 52.1035C125.355 52.8184 125.214 53.668 125.214 54.6523V58.7305H128.888V62H117.866V58.7305H121.575V48.9043H117.866V45.6172H125.214V49.7305C125.812 48.0898 126.69 46.9297 127.851 46.25C129.023 45.5703 130.411 45.2305 132.017 45.2305C132.521 45.2305 133.048 45.2832 133.599 45.3887C134.149 45.4941 134.689 45.6816 135.216 45.9512L133.845 49.502ZM137.448 57.2891C137.448 56.3281 137.706 55.4902 138.222 54.7754C138.737 54.0488 139.411 53.4453 140.243 52.9648C141.087 52.4844 142.048 52.127 143.126 51.8926C144.216 51.6465 145.323 51.5234 146.448 51.5234C147.069 51.5234 147.603 51.5352 148.048 51.5586C148.493 51.582 148.944 51.6172 149.401 51.6641V51.0137C149.401 50.1582 149.067 49.5195 148.399 49.0977C147.743 48.6758 146.876 48.4648 145.798 48.4648C144.814 48.4648 143.812 48.6055 142.792 48.8867C141.773 49.1562 140.806 49.5547 139.892 50.082L138.415 47.2344C139.493 46.6133 140.648 46.127 141.878 45.7754C143.12 45.4121 144.427 45.2305 145.798 45.2305C146.689 45.2305 147.562 45.3301 148.417 45.5293C149.284 45.7285 150.058 46.0566 150.737 46.5137C151.429 46.9707 151.98 47.5684 152.39 48.3066C152.8 49.0332 153.005 49.9355 153.005 51.0137V62H149.401V59.5918C148.827 60.4824 147.978 61.1738 146.853 61.666C145.739 62.1582 144.538 62.4043 143.249 62.4043C142.452 62.4043 141.696 62.293 140.982 62.0703C140.278 61.8594 139.669 61.5371 139.153 61.1035C138.638 60.6699 138.222 60.1367 137.905 59.5039C137.601 58.8594 137.448 58.1211 137.448 57.2891ZM144.181 59.1523C144.896 59.1523 145.564 59.0645 146.185 58.8887C146.817 58.7012 147.374 58.4492 147.855 58.1328C148.335 57.8047 148.71 57.4121 148.98 56.9551C149.261 56.498 149.401 55.9941 149.401 55.4434V54.8281C148.827 54.7344 148.288 54.6816 147.784 54.6699C147.28 54.6582 146.835 54.6523 146.448 54.6523C144.667 54.6523 143.319 54.8867 142.405 55.3555C141.503 55.8242 141.052 56.4043 141.052 57.0957C141.052 58.4668 142.095 59.1523 144.181 59.1523ZM158.032 39.0605H161.671V47.0938C162.362 46.4727 163.06 46.0098 163.763 45.7051C164.478 45.3887 165.292 45.2305 166.206 45.2305C167.261 45.2305 168.239 45.4473 169.142 45.8809C170.044 46.3027 170.817 46.8945 171.462 47.6562C172.107 48.4062 172.616 49.3145 172.991 50.3809C173.366 51.4355 173.554 52.584 173.554 53.8262C173.554 55.0801 173.366 56.2344 172.991 57.2891C172.616 58.3438 172.107 59.252 171.462 60.0137C170.817 60.7637 170.044 61.3496 169.142 61.7715C168.239 62.1934 167.261 62.4043 166.206 62.4043C165.292 62.4043 164.478 62.2402 163.763 61.9121C163.06 61.584 162.362 61.1094 161.671 60.4883V62H158.032V39.0605ZM161.671 57.6406C162.105 58.1211 162.655 58.4902 163.323 58.748C164.003 58.9941 164.653 59.1172 165.274 59.1172C166.646 59.1172 167.759 58.6309 168.614 57.6582C169.482 56.6855 169.915 55.4082 169.915 53.8262C169.915 52.2441 169.482 50.9609 168.614 49.9766C167.759 48.9922 166.646 48.5 165.274 48.5C164.653 48.5 164.003 48.6289 163.323 48.8867C162.655 49.1328 162.105 49.4961 161.671 49.9766V57.6406ZM190.605 62H179.601V58.7305H183.187V42.3477H179.601V39.0605H186.825V58.7305H190.605V62ZM199.815 55.1973C199.991 56.3223 200.524 57.2598 201.415 58.0098C202.317 58.748 203.524 59.1172 205.036 59.1172C206.22 59.1172 207.245 58.9355 208.112 58.5723C208.991 58.1973 209.747 57.7051 210.38 57.0957L212.243 59.6621C211.189 60.7168 210.069 61.4375 208.886 61.8242C207.714 62.2109 206.431 62.4043 205.036 62.4043C203.771 62.4043 202.593 62.1934 201.503 61.7715C200.413 61.3496 199.47 60.7637 198.673 60.0137C197.876 59.252 197.249 58.3496 196.792 57.3066C196.347 56.2637 196.124 55.1035 196.124 53.8262C196.124 52.584 196.329 51.4414 196.739 50.3984C197.161 49.3438 197.747 48.4355 198.497 47.6738C199.259 46.9004 200.167 46.3027 201.222 45.8809C202.276 45.4473 203.442 45.2305 204.72 45.2305C206.044 45.2305 207.245 45.459 208.323 45.916C209.401 46.3613 210.321 47.0117 211.083 47.8672C211.857 48.7227 212.46 49.7715 212.894 51.0137C213.327 52.2441 213.544 53.6387 213.544 55.1973H199.815ZM209.431 51.998C209.243 50.9434 208.698 50.0996 207.796 49.4668C206.894 48.8223 205.868 48.5 204.72 48.5C203.571 48.5 202.54 48.8223 201.626 49.4668C200.712 50.0996 200.161 50.9434 199.974 51.998H209.431Z" fill="#F5F5F5"/>
</svg>
