<svg width="462" height="102" viewBox="0 0 462 102" fill="none" xmlns="http://www.w3.org/2000/svg">
<path d="M43.1348 3.89648L231.798 9.99902L231.879 10.001L231.96 9.99902L418.907 3.90625C437.627 3.29614 450.921 21.9581 444.228 39.4512C441.504 46.5684 441.498 54.4746 444.172 61.6016C450.895 79.5199 437.288 98.6398 418.211 97.9766L231.965 91.502L231.879 91.498L231.792 91.502L43.8555 97.9854C24.4091 98.6563 10.3212 79.4866 16.6172 61.0283C18.9362 54.2296 18.9288 46.808 16.5664 40.0166C10.2958 21.9898 24.0585 3.27947 43.1348 3.89648Z" fill="#F5F5F5" stroke="#EE5656" stroke-width="5"/>
<path d="M177.577 34.5605L174.026 57.5H170.282L168.26 47.6035L166.274 57.5H162.53L158.979 34.5605H162.758L164.868 50.0117L166.538 41.1172H170.018L171.635 50.0117L173.797 34.5605H177.577ZM183.079 50.6973C183.254 51.8223 183.788 52.7598 184.678 53.5098C185.581 54.248 186.788 54.6172 188.299 54.6172C189.483 54.6172 190.508 54.4355 191.375 54.0723C192.254 53.6973 193.01 53.2051 193.643 52.5957L195.506 55.1621C194.452 56.2168 193.333 56.9375 192.149 57.3242C190.977 57.7109 189.694 57.9043 188.299 57.9043C187.034 57.9043 185.856 57.6934 184.766 57.2715C183.676 56.8496 182.733 56.2637 181.936 55.5137C181.139 54.752 180.512 53.8496 180.055 52.8066C179.61 51.7637 179.387 50.6035 179.387 49.3262C179.387 48.084 179.592 46.9414 180.002 45.8984C180.424 44.8438 181.01 43.9355 181.76 43.1738C182.522 42.4004 183.43 41.8027 184.485 41.3809C185.54 40.9473 186.706 40.7305 187.983 40.7305C189.307 40.7305 190.508 40.959 191.586 41.416C192.665 41.8613 193.584 42.5117 194.346 43.3672C195.12 44.2227 195.723 45.2715 196.157 46.5137C196.59 47.7441 196.807 49.1387 196.807 50.6973H183.079ZM192.694 47.498C192.506 46.4434 191.961 45.5996 191.059 44.9668C190.157 44.3223 189.131 44 187.983 44C186.834 44 185.803 44.3223 184.889 44.9668C183.975 45.5996 183.424 46.4434 183.237 47.498H192.694ZM199.321 52.7891C199.321 51.8281 199.579 50.9902 200.094 50.2754C200.61 49.5488 201.284 48.9453 202.116 48.4648C202.959 47.9844 203.92 47.627 204.999 47.3926C206.088 47.1465 207.196 47.0234 208.321 47.0234C208.942 47.0234 209.475 47.0352 209.92 47.0586C210.366 47.082 210.817 47.1172 211.274 47.1641V46.5137C211.274 45.6582 210.94 45.0195 210.272 44.5977C209.616 44.1758 208.749 43.9648 207.67 43.9648C206.686 43.9648 205.684 44.1055 204.665 44.3867C203.645 44.6562 202.678 45.0547 201.764 45.582L200.288 42.7344C201.366 42.1133 202.52 41.627 203.75 41.2754C204.993 40.9121 206.299 40.7305 207.67 40.7305C208.561 40.7305 209.434 40.8301 210.29 41.0293C211.157 41.2285 211.93 41.5566 212.61 42.0137C213.301 42.4707 213.852 43.0684 214.262 43.8066C214.672 44.5332 214.877 45.4355 214.877 46.5137V57.5H211.274V55.0918C210.7 55.9824 209.85 56.6738 208.725 57.166C207.612 57.6582 206.411 57.9043 205.122 57.9043C204.325 57.9043 203.569 57.793 202.854 57.5703C202.151 57.3594 201.542 57.0371 201.026 56.6035C200.51 56.1699 200.094 55.6367 199.778 55.0039C199.473 54.3594 199.321 53.6211 199.321 52.7891ZM206.053 54.6523C206.768 54.6523 207.436 54.5645 208.057 54.3887C208.69 54.2012 209.247 53.9492 209.727 53.6328C210.208 53.3047 210.583 52.9121 210.852 52.4551C211.133 51.998 211.274 51.4941 211.274 50.9434V50.3281C210.7 50.2344 210.161 50.1816 209.657 50.1699C209.153 50.1582 208.708 50.1523 208.321 50.1523C206.54 50.1523 205.192 50.3867 204.278 50.8555C203.375 51.3242 202.924 51.9043 202.924 52.5957C202.924 53.9668 203.967 54.6523 206.053 54.6523ZM235.022 45.002C234.588 44.791 234.143 44.6328 233.686 44.5273C233.241 44.4102 232.725 44.3516 232.139 44.3516C231.331 44.3516 230.569 44.4746 229.854 44.7207C229.151 44.9551 228.542 45.3125 228.026 45.793C227.51 46.2734 227.106 46.877 226.813 47.6035C226.532 48.3184 226.391 49.168 226.391 50.1523V54.2305H230.065V57.5H219.043V54.2305H222.752V44.4043H219.043V41.1172H226.391V45.2305C226.989 43.5898 227.868 42.4297 229.028 41.75C230.2 41.0703 231.588 40.7305 233.194 40.7305C233.698 40.7305 234.225 40.7832 234.776 40.8887C235.327 40.9941 235.866 41.1816 236.393 41.4512L235.022 45.002ZM238.625 52.7891C238.625 51.8281 238.883 50.9902 239.399 50.2754C239.915 49.5488 240.588 48.9453 241.42 48.4648C242.264 47.9844 243.225 47.627 244.303 47.3926C245.393 47.1465 246.5 47.0234 247.625 47.0234C248.247 47.0234 248.78 47.0352 249.225 47.0586C249.67 47.082 250.122 47.1172 250.579 47.1641V46.5137C250.579 45.6582 250.245 45.0195 249.577 44.5977C248.92 44.1758 248.053 43.9648 246.975 43.9648C245.991 43.9648 244.989 44.1055 243.969 44.3867C242.95 44.6562 241.983 45.0547 241.069 45.582L239.592 42.7344C240.67 42.1133 241.825 41.627 243.055 41.2754C244.297 40.9121 245.604 40.7305 246.975 40.7305C247.866 40.7305 248.739 40.8301 249.594 41.0293C250.461 41.2285 251.235 41.5566 251.915 42.0137C252.606 42.4707 253.157 43.0684 253.567 43.8066C253.977 44.5332 254.182 45.4355 254.182 46.5137V57.5H250.579V55.0918C250.004 55.9824 249.155 56.6738 248.03 57.166C246.917 57.6582 245.715 57.9043 244.426 57.9043C243.629 57.9043 242.874 57.793 242.159 57.5703C241.456 57.3594 240.846 57.0371 240.331 56.6035C239.815 56.1699 239.399 55.6367 239.083 55.0039C238.778 54.3594 238.625 53.6211 238.625 52.7891ZM245.358 54.6523C246.073 54.6523 246.741 54.5645 247.362 54.3887C247.995 54.2012 248.551 53.9492 249.032 53.6328C249.512 53.3047 249.887 52.9121 250.157 52.4551C250.438 51.998 250.579 51.4941 250.579 50.9434V50.3281C250.004 50.2344 249.465 50.1816 248.961 50.1699C248.458 50.1582 248.012 50.1523 247.625 50.1523C245.844 50.1523 244.497 50.3867 243.583 50.8555C242.68 51.3242 242.229 51.9043 242.229 52.5957C242.229 53.9668 243.272 54.6523 245.358 54.6523ZM259.209 34.5605H262.848V42.5938C263.54 41.9727 264.237 41.5098 264.94 41.2051C265.655 40.8887 266.469 40.7305 267.383 40.7305C268.438 40.7305 269.417 40.9473 270.319 41.3809C271.221 41.8027 271.995 42.3945 272.639 43.1562C273.284 43.9062 273.793 44.8145 274.168 45.8809C274.543 46.9355 274.731 48.084 274.731 49.3262C274.731 50.5801 274.543 51.7344 274.168 52.7891C273.793 53.8438 273.284 54.752 272.639 55.5137C271.995 56.2637 271.221 56.8496 270.319 57.2715C269.417 57.6934 268.438 57.9043 267.383 57.9043C266.469 57.9043 265.655 57.7402 264.94 57.4121C264.237 57.084 263.54 56.6094 262.848 55.9883V57.5H259.209V34.5605ZM262.848 53.1406C263.282 53.6211 263.833 53.9902 264.5 54.248C265.18 54.4941 265.831 54.6172 266.452 54.6172C267.823 54.6172 268.936 54.1309 269.792 53.1582C270.659 52.1855 271.092 50.9082 271.092 49.3262C271.092 47.7441 270.659 46.4609 269.792 45.4766C268.936 44.4922 267.823 44 266.452 44C265.831 44 265.18 44.1289 264.5 44.3867C263.833 44.6328 263.282 44.9961 262.848 45.4766V53.1406ZM291.782 57.5H280.778V54.2305H284.364V37.8477H280.778V34.5605H288.002V54.2305H291.782V57.5ZM300.993 50.6973C301.168 51.8223 301.702 52.7598 302.592 53.5098C303.495 54.248 304.702 54.6172 306.213 54.6172C307.397 54.6172 308.422 54.4355 309.29 54.0723C310.168 53.6973 310.924 53.2051 311.557 52.5957L313.42 55.1621C312.366 56.2168 311.247 56.9375 310.063 57.3242C308.891 57.7109 307.608 57.9043 306.213 57.9043C304.948 57.9043 303.77 57.6934 302.68 57.2715C301.59 56.8496 300.647 56.2637 299.85 55.5137C299.053 54.752 298.426 53.8496 297.969 52.8066C297.524 51.7637 297.301 50.6035 297.301 49.3262C297.301 48.084 297.506 46.9414 297.917 45.8984C298.338 44.8438 298.924 43.9355 299.674 43.1738C300.436 42.4004 301.344 41.8027 302.399 41.3809C303.454 40.9473 304.62 40.7305 305.897 40.7305C307.221 40.7305 308.422 40.959 309.5 41.416C310.579 41.8613 311.499 42.5117 312.26 43.3672C313.034 44.2227 313.637 45.2715 314.071 46.5137C314.504 47.7441 314.721 49.1387 314.721 50.6973H300.993ZM310.608 47.498C310.42 46.4434 309.875 45.5996 308.973 44.9668C308.071 44.3223 307.045 44 305.897 44C304.749 44 303.717 44.3223 302.803 44.9668C301.889 45.5996 301.338 46.4434 301.151 47.498H310.608Z" fill="#EE5656"/>
</svg>
